<?xml version="1.0" encoding="UTF-8"?>
<svg width="832px" height="370px" viewBox="0 0 832 370" version="1.1" xmlns="http://www.w3.org/2000/svg" xmlns:xlink="http://www.w3.org/1999/xlink">
    <title>Combined Shape Copy</title>
    <defs>
        <linearGradient x1="50%" y1="0%" x2="50%" y2="100%" id="linearGradient-1">
            <stop stop-color="#ED1846" offset="0%"></stop>
            <stop stop-color="#ED1846" stop-opacity="0" offset="100%"></stop>
        </linearGradient>
    </defs>
    <g id="Сайт" stroke="none" stroke-width="1" fill="none" fill-rule="evenodd" opacity="0.200000003">
        <g id="013-Страница-404" transform="translate(-608.000000, -241.000000)" fill="url(#linearGradient-1)" fill-rule="nonzero">
            <g id="Group-3" transform="translate(80.000000, 241.000000)">
                <path d="M528,298.810127 L528,239.427769 L676.586913,4.6835443 L727.783395,4.6835443 L727.783395,86.9274702 L697.452991,86.9274702 L603.820574,235.523578 L603.820574,238.311508 L815.013874,238.311508 L815.013874,298.810127 L528,298.810127 Z M699.086446,361.56962 L699.086446,280.712619 L700.337451,254.434638 L700.337451,4.6835443 L771.073639,4.6835443 L771.073639,361.56962 L699.086446,361.56962 Z M967.404293,370 C937.491177,369.930942 911.778388,362.557166 890.265927,347.878672 C868.753467,333.200178 852.218669,311.97388 840.661535,284.199778 C829.1044,256.425675 823.36028,223.010612 823.428563,183.954587 C823.499883,144.920369 829.307912,111.690672 840.853262,84.2654957 C852.398612,56.840319 868.921625,35.9397755 890.422301,21.5638653 C911.922977,7.1879551 937.583641,0 967.404293,0 C997.224946,0 1022.90329,7.20521964 1044.43932,21.6156589 C1065.97535,36.0260982 1082.53326,56.9443605 1094.11306,84.370446 C1105.69286,111.796531 1111.4474,144.991245 1111.37734,183.954587 C1111.37734,223.150545 1105.59858,256.635576 1094.04235,284.409678 C1082.48612,312.18378 1065.969,333.392359 1044.49099,348.035416 C1023.01298,362.678472 997.31741,370 967.404293,370 Z M967.402695,307.240506 C987.88434,307.240506 1004.24065,296.962396 1016.47164,276.406175 C1028.70262,255.849954 1034.78356,224.992901 1034.71505,183.835017 C1034.71505,156.72967 1031.93288,134.149455 1026.3697,116.094371 C1020.80653,98.0392872 1012.9859,84.4802519 1002.90782,75.417265 C992.829738,66.3542782 980.994696,61.8227848 967.402695,61.8227848 C947.013785,61.8227848 930.732932,72.0022858 918.560136,92.3612878 C906.38734,112.72029 900.230936,143.211533 900.089648,183.835017 C900.021828,211.21847 902.757048,234.071338 908.296584,252.393622 C913.83612,270.715906 921.662203,284.437624 931.774833,293.558777 C941.887464,302.67993 953.763418,307.240506 967.402695,307.240506 Z M1116.98613,298.810127 L1116.98613,239.427769 L1265.57304,4.6835443 L1316.76952,4.6835443 L1316.76952,86.9274702 L1286.43912,86.9274702 L1192.8067,235.523578 L1192.8067,238.311508 L1404,238.311508 L1404,298.810127 L1116.98613,298.810127 Z M1288.07257,361.56962 L1288.07257,280.712619 L1289.32358,254.434638 L1289.32358,4.6835443 L1360.05977,4.6835443 L1360.05977,361.56962 L1288.07257,361.56962 Z" id="Combined-Shape-Copy"></path>
            </g>
        </g>
    </g>
</svg>