<?xml version="1.0" encoding="UTF-8"?>
<svg width="490px" height="255px" viewBox="0 0 490 255" version="1.1" xmlns="http://www.w3.org/2000/svg" xmlns:xlink="http://www.w3.org/1999/xlink">
    <title>Group 7</title>
    <defs>
        <path d="M143.519574,38.0526372 L145.698393,38.4483387 L147.811055,39.2397418 L146.820682,40.4929285 L145.16993,42.6692869 L146.886443,42.3396675 L150.121791,42.8671377 L149.527567,44.3181751 L147.348749,46.4945335 L150.187948,46.4945335 L150.650253,45.4391976 L152.960989,44.9774139 L156.064023,45.3070333 L158.308999,46.4941378 L158.903222,49.0001156 L159.959751,48.2747947 L160.223982,49.3958171 L161.148198,51.0447054 L161.082041,52.3635786 L160.157825,52.8910487 L161.280115,53.9463847 L160.883966,55.1334892 L160.091669,56.848064 L158.507073,58.1669371 L157.582858,59.2222731 L158.969379,60.3432955 L160.553974,60.8050792 L159.365528,62.5857361 L157.979007,63.0475198 L156.922478,61.5307958 L158.638991,60.2119226 L157.516701,59.4866017 L154.743659,61.2672586 L153.423295,63.1796841 L151.706782,65.2242738 L150.782567,65.5538932 L148.405674,67.4663187 L147.877608,68.9830426 L149.52836,68.3894903 L152.697551,67.9937888 L155.074444,66.3449006 L153.81984,65.949199 L154.084071,64.0367736 L155.338675,64.1685422 L156.857113,63.4432213 L156.989031,64.7620945 L158.639783,65.4217289 L159.234006,63.7728406 L159.762073,64.3663929 L160.158222,66.2788184 L161.874734,66.2127363 L163.591247,65.4874154 L167.156587,66.2127363 L169.797711,66.8723707 L168.807339,67.2680722 L169.401562,68.9826469 L170.458091,68.6530276 L172.240761,69.1148112 L175.938018,69.4444306 L177.390696,69.2465798 L177.126465,67.0702215 L177.522614,64.6960123 L180.295655,65.3556467 L183.00254,66.6088335 L185.577508,66.4770649 L187.756327,69.1808934 L187.954401,71.159401 L187.624409,73.9293117 L187.096343,75.5121178 L187.360574,77.2266925 L187.624805,79.0073494 L189.671706,80.3923047 L191.058227,81.6454914 L191.982442,80.7880062 L192.246674,79.0073494 L193.567038,75.775655 L195.085476,77.8202448 L196.538154,78.8094986 L198.122749,77.0288418 L200.367725,77.4906254 L201.622328,77.4906254 L202.546543,78.4137971 L203.866908,77.4245433 L204.659205,78.1498642 L206.441875,77.8202448 L205.253428,75.3799535 L206.375718,73.928916 L204.593048,73.928916 L205.451503,72.8078936 L207.168016,72.8078936 L207.828396,72.0164905 L207.960313,70.4997666 L209.346834,70.9615503 L211.063347,71.0276324 L213.506397,71.6211847 L215.420985,71.9508041 L217.137497,72.6104385 L215.949051,72.8743714 L213.770232,72.5447521 L213.638315,73.7318566 L215.090993,74.1275582 L216.345596,73.7318566 L217.798274,73.3361551 L216.543,76.0386372 L216.675588,74.061476 L215.487141,75.5125135 L214.826761,76.3699987 L214.958679,77.4253347 L216.279043,76.8978645 L217.599407,75.5789914 L218.589779,73.5344016 L220.702441,73.402633 L222.947416,74.4579689 L223.805871,76.2386258 L222.287432,76.1068572 L221.561292,76.7664916 L223.07973,76.8982602 L224.003945,77.5578947 L225.126235,78.6132307 L226.64507,78.5471485 L226.908905,80.0638725 L227.239293,81.0531263 L228.361582,80.9870441 L229.81426,80.920962 L233.841509,80.7231112 L236.350716,80.5913426 L238.595295,80.9870441 L239.651824,82.5037681 L240.312204,84.1526563 L240.11413,85.2736787 L239.519907,86.4607833 L240.57604,86.7904027 L242.226792,87.7796565 L243.415238,88.2414402 L244.40561,87.4500371 L245.990206,87.3182685 L246.980578,86.7907984 L248.433256,88.0439851 L250.347843,88.1100673 L251.866282,88.2418359 L252.460505,89.0332389 L252.724736,87.9122165 L253.913183,87.3847464 L254.573563,86.7251119 L254.573563,85.8676267 L256.48815,86.3294104 L256.554307,87.4504328 L255.497778,87.8461344 L254.309331,87.3186642 L255.233547,88.307918 L255.36586,89.9568063 L256.223919,90.3525078 L257.412365,91.4078438 L259.327349,90.4846721 L259.591184,89.0336346 L258.072745,87.7147614 L258.600812,87.055127 L258.733125,85.3405523 L262.298465,86.1319553 L264.675358,86.1319553 L267.910706,85.9341046 L268.901078,86.9233584 L270.881822,88.3083137 L272.994484,88.8357839 L274.710997,90.5503586 L276.955972,91.7374632 L277.285964,92.9245677 L279.729014,94.573456 L281.313609,95.4966276 L281.247452,96.2880307 L282.502056,97.3433667 L282.303981,96.420195 L283.690502,97.2776802 L283.954734,99.0583371 L284.416643,100.641143 L285.010866,101.432546 L284.747031,99.3879564 L285.935478,99.3879564 L287.189685,100.311128 L288.180057,100.179359 L289.632735,101.168613 L291.547322,102.883188 L293,104.136375 L291.481562,105.125629 L290.689264,105.917032 L290.226958,106.708435 L288.114296,106.0488 L289.038512,107.169823 L288.378132,108.488696 L287.387759,109.609718 L287.387759,110.928591 L285.935478,111.324293 L285.275098,110.268957 L284.680874,109.147935 L283.558585,109.345785 L282.03975,108.356532 L282.370138,108.026912 L281.379766,106.510188 L280.125163,105.916636 L279.134791,106.37842 L277.08789,106.246651 L277.880187,105.784867 L277.285964,104.135979 L277.616352,102.948874 L276.62598,103.410658 L275.173302,103.740278 L275.437534,104.795613 L276.295592,106.57627 L274.777153,108.225159 L273.456789,109.016562 L272.40026,109.346181 L270.485673,108.95048 L270.419516,110.533286 L272.268343,110.797219 L272.40026,111.324689 L272.070268,113.237114 L272.862566,114.160286 L273.852938,115.940943 L274.116773,117.457667 L273.720624,118.974391 L272.862566,118.116905 L270.287599,117.721204 L268.240698,119.040077 L265.66573,119.963249 L263.816904,121.282122 L260.978101,124.183801 L259.525423,125.370906 L258.27082,127.217645 L257.346605,125.898772 L256.158158,125.041286 L254.63972,125.305219 L253.187042,125.700921 L251.800521,127.349809 L251.272454,127.54766 L251.53629,125.767003 L250.678231,126.096622 L249.027479,127.481578 L248.961322,126.558406 C248.961322,126.558406 248.103264,126.954108 247.905189,127.151958 C247.707115,127.349809 247.905189,126.624488 247.905189,126.624488 L246.782503,127.284123 L246.320594,128.141608 L245.990206,129.328712 L245.660214,130.449735 L245.132147,131.768608 L244.273693,133.219645 L244.141775,134.736369 L244.999834,134.274586 L246.056363,134.999907 L245.660214,135.725228 L245.264065,137.637653 L246.12252,137.637653 L246.12252,138.429056 L246.518668,139.154377 L245.924445,140.341482 L245.132147,139.879698 L245.528296,138.560825 L244.273693,139.220459 L244.207536,140.011862 L243.67947,141.330735 L243.943701,142.51784 L244.33985,143.704944 L243.415238,144.430265 L242.887172,144.232415 L241.962957,144.298497 L240.576436,146.013071 L240.708353,146.672706 L240.840271,148.453363 L239.982213,148.123743 L239.123758,148.585527 L238.199543,148.585527 L238.199543,148.981229 L238.397617,150.432266 L237.473006,152.344692 L236.878783,153.070012 L236.284559,153.729647 L235.360344,154.389281 L234.766121,154.784983 L234.303815,155.312453 L233.973823,155.642072 L233.577674,156.763095 L232.455385,157.027028 L232.059236,158.14805 L232.323071,158.543752 L231.795004,159.005535 L231.134624,159.599088 L231.266938,160.060871 L230.47464,160.324804 L230.210409,160.918357 L229.682343,161.70976 L229.418111,162.039379 L229.088119,162.368998 L229.15388,162.962551 L228.493896,163.29217 L227.899673,164.281424 L227.701599,164.677125 L227.107375,165.402446 L226.513152,165.468528 L224.598565,166.721715 L224.40049,167.183499 L223.476275,167.777051 L222.948209,168.568454 L222.618217,168.172753 L221.825919,168.898074 L220.901704,169.227693 L220.109406,169.755163 L219.317108,170.414797 L218.392893,171.272283 L218.392893,170.546962 L217.600595,171.206596 L217.336364,171.470529 L216.47791,171.932313 L216.015604,172.328014 L216.213678,171.602693 L216.939819,170.81129 L217.600199,170.943059 L217.996348,170.415589 L219.382869,169.360253 L219.910935,168.437081 L220.835151,168.634932 L221.693605,168.634932 L222.683977,167.843529 L223.542432,166.722507 L224.730878,166.392887 L226.183556,165.271865 L226.910093,164.348693 L227.900465,163.886909 L228.428532,162.897656 L228.82468,161.908402 L229.748896,161.314849 L230.277358,159.995976 L231.069656,159.072805 L231.663879,158.215319 L232.125789,157.489999 L232.125789,156.698595 L232.456177,155.907192 L233.578467,155.049707 L234.436921,154.654006 L235.163062,154.060453 L234.766913,153.26905 L234.502682,151.356625 L234.370764,149.509886 L233.578467,146.476042 L233.182318,143.903982 L233.182318,141.463691 L233.446549,137.968459 L234.964987,136.385653 L235.493054,135.198549 L235.493054,133.945362 L236.483426,134.077131 L237.539955,133.813198 L238.860319,132.032541 L240.444914,130.120115 L241.5676,128.537309 L244.142568,126.229182 L244.208328,125.239929 L245.594849,124.382443 L246.651378,124.316361 L246.849453,123.195339 L247.245601,122.470018 L247.179445,121.480764 L247.64175,120.359742 L247.905982,118.710853 L249.622494,118.381234 L248.698279,117.39198 L246.849453,117.787682 L245.990998,118.381234 L245.925237,120.161891 L245.859081,121.546846 L245.396775,121.151145 L244.604477,121.810779 L242.954121,123.261817 L241.831435,124.184988 L240.709146,124.844623 L241.171451,123.525749 L240.312997,123.921451 L240.181079,122.668264 L240.577228,122.074712 L240.90722,120.360137 L239.652617,120.887607 L239.322625,120.425824 L237.804186,120.755443 L235.096905,121.546846 L235.229219,122.667869 L233.974615,123.459272 L233.248475,124.646376 L231.927714,125.503861 L231.26773,127.3506 L230.805425,126.888817 L230.871582,128.537705 L231.72964,128.537705 L232.786169,129.72481 L231.201574,129.526959 L230.60735,130.384444 L229.485061,129.790892 L228.692763,130.648377 L227.702391,130.450526 L226.579705,131.044078 L225.589333,130.582295 L225.721647,129.790892 L227.768152,129.790892 C227.966226,129.790892 226.579705,129.197339 226.579705,129.197339 L225.853564,128.801638 L224.467043,128.735556 L223.031004,128.010235 L221.991113,127.713459 L221.892076,128.65325 L221.446408,129.048951 L221.793039,129.543578 L220.951222,129.741429 L220.555073,129.494116 L219.861813,129.246802 L218.92096,129.494116 L218.277218,129.246802 L217.286846,128.900563 L216.742141,129.494116 L216.147918,129.593041 L215.801287,129.296265 L215.058508,129.494116 L214.068136,130.087668 L211.740762,130.186593 L210.057129,130.334981 L208.819164,131.472623 L207.284087,132.659728 L206.541308,134.242534 L205.699492,134.242534 L205.699492,135.429638 L204.70912,136.270504 L203.27308,137.902773 L202.480783,139.386654 L201.341855,140.227519 L200.301964,141.365161 L199.361111,142.156564 L198.370739,142.750117 L198.073627,143.689908 L198.865925,144.184535 L200.10389,143.887759 L200.747632,144.332923 L200.648594,145.173789 L200.747632,145.915729 L201.193299,145.074863 L202.183671,145.074863 L201.837041,145.866266 L202.134152,146.261968 L201.391373,147.102833 L202.381746,147.102833 L202.728376,146.410356 L203.471155,145.915729 L203.27308,146.954445 L203.817785,147.053371 L203.966341,146.064117 L203.916822,144.926475 L204.956713,145.470565 L205.649973,145.124326 L205.798529,145.470565 L206.689864,146.212505 L207.036494,146.756595 L207.779273,147.201759 L208.472534,147.844774 L208.423015,148.537252 L208.125904,148.88349 L208.423015,149.279192 L208.720127,150.317908 L208.224941,150.367371 L208.472534,150.960923 L209.017239,150.960923 L209.066757,150.515759 L209.215313,149.922207 L209.512425,148.982416 L209.31435,148.339401 L209.017239,147.449072 L209.760018,147.102833 L210.552315,146.707132 L210.601834,145.866266 L209.760018,145.074863 L210.453278,145.0254 L210.997983,144.82755 L211.344613,145.717878 L211.196057,146.163042 L211.493169,146.904983 L211.740762,148.240475 L211.938836,150.515759 L211.592206,150.218983 L211.344613,151.2577 L212.037873,152.246953 L212.136911,153.186744 L212.384504,154.472774 L212.731134,156.105043 L213.374876,157.984625 L214.167173,159.320118 L214.860434,160.160984 L214.315729,160.408297 L213.275839,159.023342 L212.186429,159.023342 L211.146539,159.765282 L211.047501,160.803999 L210.651353,162.040566 L210.403759,163.227671 L211.394132,164.019074 L211.740762,164.859939 L212.533059,166.096507 L212.483541,166.937372 L212.45504,166.90173 C212.40962,166.844877 212.315231,166.726528 212.210907,166.594533 L212.062328,166.405688 C211.939715,166.248992 211.828372,166.104116 211.79028,166.047044 C211.691243,165.898656 210.997983,165.502954 210.997983,165.502954 L210.255204,166.047044 L210.156166,166.88791 L210.057129,167.827701 L209.462906,167.135223 L209.264832,165.60188 L209.710499,164.810477 L209.66098,163.178208 L210.007611,162.28788 L209.710499,160.853461 L209.215313,160.655611 L209.958092,158.924417 L209.908573,156.797521 L209.958092,155.066327 L210.007611,153.384595 L209.31435,152.246953 L209.215313,151.158774 L208.769646,151.208237 L208.423015,151.900714 L207.680236,152.692118 L207.581199,153.879222 L207.135532,155.758804 L207.234569,157.044834 L207.284087,158.330864 L206.788901,158.776028 L206.937457,160.210447 L206.343234,161.00185 L205.699492,161.892178 L204.907194,162.831969 L204.610083,163.77176 L204.114897,164.117999 L203.669229,165.255641 L203.075006,166.442746 L202.035115,168.421253 C202.035115,168.421253 200.698113,169.262119 200.549557,169.361044 C200.488387,169.401778 200.351654,169.710877 200.211958,170.060428 L200.093186,170.364635 C199.938371,170.769276 199.806778,171.141701 199.806778,171.141701 L199.410629,171.141701 L198.469776,172.378268 L197.826034,173.31806 L196.637587,174.257851 L195.84529,174.505164 L194.953955,175.098716 L194.211176,174.80194 L193.270322,174.406239 L192.973211,173.911612 L192.329469,174.307313 L192.180913,173.416985 L191.982839,173.763224 L191.883801,174.307313 L191.58669,175.148179 L190.942948,175.494418 L190.348725,175.395493 L190.167288,175.989045 L189.540185,175.32941 L190.860549,174.505164 L190.926706,173.911612 L191.190937,172.328806 L190.695751,170.350298 L191.389011,170.251373 L191.917078,169.492813 L192.577458,169.262119 L194.360128,169.888514 L194.293971,169.22888 L194.888194,168.635328 L195.41626,167.118604 L196.340476,165.404029 L196.53855,164.019074 L197.132773,163.359439 L197.330848,162.172335 L197.858914,161.116999 L196.043364,161.644469 L193.567434,162.336947 L191.685727,163.029424 L190.398243,162.501954 L190.398243,161.545543 L189.80402,160.786984 L190.002094,159.929498 L189.539789,160.061267 L188.153268,158.016677 L185.446383,157.554894 L184.918316,157.027423 L184.918316,155.906401 L183.564676,153.037565 L182.079118,149.377326 L180.824514,148.256303 L180.62644,148.652005 L179.108001,147.893445 L177.72148,147.102042 L176.268803,147.530587 L174.651327,147.596669 L173.033851,147.79452 L171.977322,149.2784 L172.373471,149.476251 L173.099612,150.36658 L172.637306,152.081154 L171.44886,153.46611 L170.689442,155.213923 L170.722323,156.368185 L169.996182,156.401028 L169.302921,157.093506 L168.477743,158.016677 L166.727954,156.99458 L165.374313,156.566035 L164.252024,156.829968 L164.053949,156.302498 L163.360689,155.313244 L162.469354,155.247162 L161.082833,155.610021 L160.686684,156.401424 L159.993424,157.291752 L158.177874,158.083155 L156.329047,158.577782 L154.150228,158.182081 L152.367559,157.819222 L150.683926,157.093901 L149.330285,155.840715 L148.009921,155.906797 L147.547616,155.577177 L145.434954,155.313244 L144.708813,155.775028 L143.751321,155.906797 L142.199606,155.445013 L141.539226,154.12614 L141.770181,152.84011 L140.284623,152.741185 L139.954631,152.147632 L137.511581,151.455155 L135.795068,150.564826 L135.332762,151.949781 L134.606621,151.422311 L134.012398,153.26905 L134.144316,154.654006 L134.870457,154.983625 L134.606225,156.962133 L133.813928,157.226066 L131.172803,156.566431 L129.588208,156.6982 L129.093022,156.302498 L128.06977,155.313244 L125.824794,155.379327 L124.96634,154.521841 L124.768265,154.917543 L124.107885,154.785774 L123.18367,155.577177 L121.764268,155.807871 L120.773896,156.500349 L119.882561,156.236416 L119.420256,157.291752 L117.901817,157.390677 L117.175676,158.281006 L115.393007,158.281006 L115.657238,157.687454 L115.129172,156.6982 L114.138799,157.22567 L113.214584,157.357439 L112.35613,156.170334 L111.365758,156.236416 L110.243468,153.993976 L109.186939,153.862207 L107.998492,154.257908 L106.413897,154.323991 L105.621599,152.872953 L104.895459,152.477252 L103.575095,153.993976 L103.146065,153.037565 L101.660507,149.773027 L99.7788002,147.992371 L97.2367131,144.89284 L97.8309364,143.837505 L96.6424899,143.903587 L95.6521178,145.750326 L94.8598201,145.882094 L94.1336793,146.805266 L91.8229431,146.673497 L91.6910255,145.684244 L91.4929511,145.288542 L90.5687359,145.618161 L90.2716243,145.024609 L89.2483718,144.826758 L88.9841405,145.486393 L88.125686,144.826758 L88.3237604,143.573572 L87.8947312,143.046101 L87.465702,141.595064 L85.913987,141.36437 L84.6265033,140.869743 L83.2399824,142.254698 L82.2496103,142.716482 L79.4104115,142.980415 L77.8258162,144.431452 L76.6373697,144.299684 L72.6758813,144.959318 L71.5535916,144.695385 L71.0912859,145.750721 L72.1478149,146.278192 L71.4545544,146.904587 L72.5439637,148.718087 L70.1670707,148.652005 L70.3651451,150.56443 L68.8467066,151.224065 L69.5728474,151.685849 L70.0680335,152.642259 L71.2235997,152.741185 L72.0158973,153.268655 L70.3651451,155.247162 L68.9786242,154.719692 L68.1201697,155.379327 L66.99788,154.785774 L66.4036567,153.79652 L64.8852182,154.192222 L64.1590774,153.730438 L62.7725565,153.730438 L61.914102,154.719692 L61.0556474,154.587924 L60.1971929,153.994371 L59.7681637,153.829364 L59.1410601,154.851461 L58.8768288,153.532588 L57.5564647,152.213714 L56.4341751,151.884095 L55.3776461,152.213714 L54.4534309,152.147632 L53.5949763,152.741185 L53.7930508,151.883699 L52.6046043,151.487998 L52.4065298,152.147632 L50.8880913,153.005117 L49.6667645,152.84011 L49.6338841,154.12614 L49.0396609,154.917543 L49.3696528,155.840715 L49.0396609,156.829968 L46.9927598,155.378931 L46.0023877,160.589133 L46.6627678,161.710155 L49.5019665,164.413984 L49.9642722,165.205387 L49.1719746,166.260723 L49.040057,167.249977 L48.3796769,167.876372 L47.5873792,166.986044 L47.2902676,167.777447 L46.4979699,169.85488 L45.5075978,170.943059 L46.3989327,171.239835 L46.8941187,172.229089 L47.488342,172.525865 L47.0921932,173.91082 L48.1816025,175.493627 L48.9739001,177.142515 L48.1816025,178 L47.4554616,177.736067 L46.3989327,176.746813 L44.6162629,176.28503 L43.8901221,175.164007 L41.7113035,175.097925 L40.6547745,174.24044 L38.2778815,173.71297 L36.8252037,172.921567 L33.7221699,172.987649 C33.7221699,172.987649 33.3256249,171.929147 33.1275505,171.797379 C32.929476,171.66561 32.4014096,171.467759 32.4014096,171.467759 L30.2887479,170.610274 L29.6945246,169.687102 L28.6379957,169.09355 L29.0341445,168.697849 L29.892599,168.302147 L30.7510536,167.181125 L31.7414257,167.049356 L30.4868223,165.532632 L31.9395001,165.268699 L33.5240954,164.213363 L32.0714177,164.213363 L31.7414257,163.42196 L32.7317978,162.828408 L33.4579386,162.103087 L34.5144675,162.037005 L35.1748477,160.981669 L34.5144675,159.662796 L34.712542,159.003161 L35.0425339,157.816057 L33.986005,157.749974 L33.5898562,157.222504 L33.1275505,157.288586 L32.2033352,156.563266 L31.27912,156.167564 L30.6848967,155.376161 L29.6945246,155.969713 L28.572235,155.50793 L27.185714,155.639698 L26.9214828,154.980064 L26.3272595,153.397258 L25.138813,153.331176 L24.8745817,151.352668 L24.082284,150.297332 L22.8276807,150.297332 L21.8373086,150.363414 L20.7150189,150.561265 L20.3850269,149.044541 L20.1207957,147.989205 L21.4411597,148.055287 L21.9034654,146.8021 L20.9792502,146.010697 L20.9130933,145.219294 L19.9888781,144.296123 L19.3946548,142.317615 L18.8665884,139.811637 L17.4800675,140.009488 L17.1500755,139.284167 L14.7070256,139.020234 L14.4427944,138.294913 L14.5089512,136.97604 L14.4427944,134.997532 L14.1128024,133.744346 L13.4524223,133.019025 L12.6601246,130.776584 L13.7824142,129.655562 L13.6504967,128.600226 L14.1785631,127.874905 L15.3670096,127.215271 L16.0273897,127.149188 L17.5458282,127.215271 L16.6873737,126.226017 L16.0269936,126.292099 L14.7723902,125.368927 L14.6404726,124.643606 L13.3201085,125.10539 L14.2443238,123.852203 L15.6970016,122.665099 L16.4892992,121.214061 L17.4135145,119.631255 L18.601961,118.444151 L19.8565644,117.257046 L20.1207957,116.267792 L19.65849,115.872091 L19.3942587,114.684986 L18.4038866,114.289284 L17.6115889,113.036098 L18.4700434,111.717225 L17.8758202,110.794053 L17.7439026,109.409098 L17.2158362,108.551612 L17.0839187,107.034888 L17.2158362,105.518164 L17.5458282,105.122463 L15.6970016,99.912261 L17.5458282,96.8784174 L17.0835225,96.6144845 L16.6212168,95.2295291 L15.1027783,93.646723 L14.5085551,92.3278498 L14.5085551,91.4703646 L15.0366215,90.3493422 L15.6308447,90.4154244 L16.0269936,89.0965512 L17.1492832,88.4369167 L17.5454321,87.6455137 L18.8657961,87.9094466 L19.591937,87.1841257 L20.912301,87.4480586 L21.96883,88.6351632 L23.4872685,89.0969469 L25.6660871,89.163029 L28.3072114,90.2840515 L30.156038,91.9329397 L32.2029391,94.0432159 L34.1836833,95.1642384 L36.1644275,96.8131266 L36.7586507,98.3959327 L37.1547996,99.6491195 L35.7021218,101.759396 L34.1836833,103.012582 L32.4010135,104.001836 L29.8922029,103.474366 L28.505682,102.749045 L26.0626321,101.89156 L24.5441936,101.231926 L22.9595982,100.572291 L22.4315318,99.5830373 L21.0450109,99.1212536 L20.978854,100.044425 L20.978854,101.23153 L21.9692261,101.099761 L22.9595982,102.220784 L24.0818879,103.407888 L25.3364913,104.594993 L25.2045737,105.84818 L24.9403424,106.771351 L25.0064993,108.552008 L25.798797,110.398747 L26.9872435,111.124068 L28.6379957,112.575105 L30.552583,112.706874 L31.5429551,112.640792 L31.0806494,110.728366 L29.8922029,111.124068 C29.8922029,111.124068 28.4395251,109.343807 28.2414507,109.211643 C28.0433763,109.079478 29.2979796,107.760605 29.2979796,107.760605 L31.0144926,109.013792 L33.1271543,109.541262 L34.9098241,110.332665 L35.9001962,110.068732 L35.0417416,108.815545 C35.0417416,108.815545 34.2498401,106.705269 34.1175264,106.507418 C33.9852127,106.309568 34.4475184,105.518164 34.4475184,105.518164 L36.2301882,104.397142 L37.8809404,103.143955 L38.5413205,102.220784 L40.2578334,102.946105 L41.7762719,104.726761 L41.6443543,102.484321 L41.9743463,100.505813 L41.4462799,99.3847908 L40.5220647,98.2637684 L41.1162879,96.9448952 L41.4462799,95.2303205 L41.1162879,93.9771338 L39.5978494,92.3282455 L41.8428249,93.1196486 L44.0878004,93.1857307 L44.8139412,94.2410667 L45.4081645,94.9663876 L45.7381564,96.0217236 L44.6158668,96.4835072 L43.5593378,96.6152759 L43.2951065,98.2641641 L44.0212474,99.9130524 L46.3319835,100.572687 L47.4542732,99.583433 L48.2465709,97.3409925 L49.1707861,95.9560371 L52.6699688,94.4393132 L54.1884073,93.12044 L55.7068458,93.8457609 L55.5087714,92.3290369 L56.8291355,91.5376339 L58.7437228,91.603716 L58.7437228,93.0547535 C58.7437228,93.0547535 57.8191114,93.9122387 57.0929706,94.0440073 C56.6996443,94.115382 57.081115,94.225534 57.5134223,94.3115131 L57.7139223,94.3492501 C58.0121783,94.4025933 58.2814171,94.4397089 58.2814171,94.4397089 L59.9321693,94.6375596 L60.724467,92.9886714 L62.5071368,92.659052 L64.0917321,92.8569028 L64.157889,92.0654997 L65.5444099,91.6697982 L66.9309308,90.6144622 L67.4589972,91.6697982 L67.4589972,93.5822237 L68.5812869,93.7800744 L68.7793613,92.2633505 L70.0997254,91.9337311 L70.2977998,90.5487758 L69.571659,89.1638204 L69.3074277,87.8449472 L69.3074277,87.3174771 L67.9209068,87.1196264 L66.7986171,86.0642904 L66.3363114,84.6132529 L66.468229,83.4261483 L68.9112789,85.4046559 L69.4393453,87.0535442 L70.2977998,86.7896113 L72.0804696,86.8556934 L74.0612138,87.3174771 L75.6458091,88.042798 L77.1642476,89.559522 L79.1449918,90.8127087 C79.1449918,90.8127087 79.4325378,90.8701874 79.7593837,90.9314981 L80.0433718,90.9837372 C80.3254044,91.0344123 80.5842006,91.0766416 80.6634303,91.0766416 C80.8615047,91.0766416 81.455728,92.0658954 81.455728,92.0658954 L82.3799432,93.3190822 L83.2383978,94.5722689 L83.8987779,93.0555449 L84.2287699,91.3409702 L83.7007035,91.2748881 L82.7103314,89.692082 L82.7103314,88.1092759 L82.4461001,88.3071266 L81.2576536,87.4496414 L80.5972735,88.0431937 L80.2672815,86.2625368 L81.3238104,85.537216 L81.125736,84.48188 L81.125736,81.7119693 L80.2015208,82.1076708 L79.7392151,81.3823499 L80.9276616,80.657029 L80.4653559,79.6677752 L82.3799432,78.0849691 L83.3041585,76.1064615 L83.7003073,74.194036 L84.2283737,72.0837598 L84.5583657,70.7648866 L85.152589,69.7095506 L86.0768042,70.03917 L86.5391099,69.0499162 L85.6148947,68.0606624 L86.869498,66.6096249 L87.926027,67.2692593 L88.7844815,68.5224461 L86.9356549,68.8520654 L86.4733492,69.9730879 L88.256019,69.9070057 L90.1706063,70.4344758 L90.5005983,71.6876626 L90.1044494,73.9301031 L89.3783086,77.0296332 L89.576383,78.1506556 L90.8967471,80.1291632 L91.0948215,83.6904769 L90.1706063,84.0200963 L90.8309864,85.6689846 L90.3686807,88.0431937 L90.4348376,90.8131044 L92.4817386,92.791612 L91.5575234,94.5061867 L91.4913665,96.5507765 L90.3690769,97.4082617 L90.0390849,98.7932171 L88.7844815,100.705643 L87.3979606,101.497046 L86.0775965,102.420217 L88.0583407,102.551986 L89.9071673,103.277307 L89.8410105,101.826269 L91.6898371,100.441314 L92.5482916,98.8585078 L93.1425149,97.7374854 L94.5290358,96.4186122 L93.2086717,94.2422538 L93.6709774,92.197664 L97.0382426,91.0105595 L98.0947715,92.9890671 L98.5570772,94.5718732 L98.0290108,96.6821494 L99.4155317,97.5396346 L100.472061,97.2100153 L99.7459199,96.5503808 L98.8874653,95.8907464 L99.7459199,94.6375596 L99.349771,93.7800744 L99.019779,91.4058653 L97.4351837,89.6252084 L95.3882826,89.6252084 L93.0775465,90.4826936 L92.2852488,88.1084845 L92.3514057,85.4703424 L93.4079346,83.0961332 L93.1437033,81.1176256 L91.229116,78.2159463 L91.559108,76.0395879 L93.936001,74.6546326 L94.5963811,72.8078936 L94.3321498,71.2250875 L94.3321498,70.1040651 L95.3886788,71.2250875 L95.3886788,73.8632295 C95.3886788,74.0610803 95.2567612,76.1056701 95.2567612,76.1056701 L94.8606124,78.6116479 L96.8413566,79.5348195 L98.4259519,79.7326703 L100.076704,80.8536927 L100.604771,79.2708866 L98.3597951,78.6112522 L96.5109685,75.7752593 L97.8313325,75.0499384 L99.0859359,76.0391922 L100.010151,75.3795578 L99.2840103,74.2585354 L100.868606,73.1375129 L102.651275,73.5332145 L104.962012,75.5778043 L106.546607,76.9627596 L107.405062,76.5670581 L108.527351,76.830991 L108.461194,78.0180956 L107.404665,79.4691331 L107.404665,81.7772601 L108.196963,81.3154764 L109.055418,81.6450957 L108.9235,78.5455657 L109.055418,76.6331402 L108.065045,75.9078193 L107.404665,74.4567818 L106.612368,73.9293117 L104.763541,72.4125878 L105.027772,70.9615503 L104.0374,68.4555725 L104.829698,66.2792141 L106.876599,65.6195797 L109.649641,64.9599452 L112.158451,65.0917138 L114.535344,64.7620945 L116.186097,63.9706914 C116.186097,63.9706914 115.637583,63.5070884 115.027402,62.9818749 L114.56581,62.5826939 C114.006106,62.0960408 113.496856,61.642064 113.413055,61.5304001 C113.21498,61.2664672 114.535344,60.4750641 114.535344,60.4750641 L113.21498,58.4304744 L114.799576,57.7051535 L115.129568,56.0562652 L116.384171,56.1223474 L118.364915,54.4077726 L121.73218,52.5610336 L126.882115,50.8464589 C126.882115,50.8464589 126.437682,50.6540592 125.948806,50.4375283 L125.620694,50.291446 C125.186137,50.096827 124.786696,49.9126866 124.703297,49.8572051 C124.505222,49.7254365 128.202479,49.4615036 128.202479,49.4615036 L130.975521,48.6701005 L130.117067,50.7146903 L132.49396,49.9232873 L135.068927,48.6044141 L136.78544,48.4726455 L135.596994,46.6919886 L137.379663,46.6919886 L139.6904,46.9559215 L139.096176,45.1091825 L138.501953,43.7242272 L140.614615,39.9650627 L143.519574,38.0526372 Z M24.2637202,166.986044 L24.659869,167.381745 L25.1550551,167.629059 L25.6007225,168.321536 L25.7492783,168.816163 L26.3435016,168.816163 L27.2348365,168.865626 L28.0271342,169.014014 L27.6309853,169.360253 L26.6901318,169.459178 L25.9968714,170.003268 L25.0560179,170.646283 L23.5704597,171.14091 L23.1743109,170.547357 L23.1743109,169.261328 L22.8276807,169.112939 L21.8868272,168.56885 L21.8373086,168.272074 L22.8276807,167.727984 L23.4714225,167.233357 L23.1743109,167.084969 L24.2637202,166.986044 Z M2.0302628,141.463295 L2.77304187,141.957922 L3.86245117,142.353624 L5.24897211,142.798788 L5.34800932,143.590191 L5.29849071,144.233206 L5.10041629,144.628908 L3.46630234,144.67837 L2.0302628,144.183743 L0.495186048,144.233206 L0,144.233206 L0.495186048,143.689116 L0.198074419,143.145027 L1.28748372,142.897713 L1.38652093,143.39234 L1.93122559,142.947176 L1.78266977,142.056848 L2.17881861,141.858997 L2.0302628,141.463295 Z M50.7561738,88.769306 L51.9446203,89.824642 L50.7561738,91.671381 L48.3792807,92.0670825 L47.8512143,90.2203435 L49.3038921,88.769306 L50.7561738,88.769306 Z M81.9200144,42.8679291 L82.711916,43.2632349 L84.1645938,44.3185709 L83.7684449,45.637444 L84.428825,46.4288471 L83.6365274,47.4841831 L83.2403785,48.6712876 L81.3915519,49.5944593 L78.4865925,51.0454968 L76.241617,52.8922358 L74.9212529,52.8922358 L73.0724263,53.8154075 L71.0916821,55.9256837 L70.1674669,56.1896166 L69.2432516,58.1681242 L68.7151852,60.0148633 L67.6586563,59.4873931 L66.6021273,59.751326 L66.0740609,61.4659008 L65.6779121,63.576177 L64.7536968,63.1804755 L64.2256304,65.1589831 L63.3014152,67.5331922 L62.6410351,69.7756328 L61.0564397,71.2266703 L61.1883573,74.5240511 L61.3202748,76.5025587 L62.2444901,79.2724694 L63.1687053,80.9870441 L64.7533007,82.0423801 L64.3571518,82.9655517 L63.5648542,82.3059173 L61.7160275,82.7016188 L59.9995146,82.1741487 L57.7545391,81.6466786 L57.4903079,80.459574 L57.8864567,79.404238 L56.4337789,77.8214319 L55.9057125,78.4810663 L54.4530347,77.1621932 L53.9249683,74.787984 L55.6414812,75.0519169 L56.4337789,73.2051779 L55.6414812,71.6223718 L56.6980102,70.1713343 L58.4145231,68.1928267 L58.6787544,67.0057221 L60.1314322,65.422916 L58.9429857,64.631513 L60.1314322,61.9933709 L61.58411,60.8062663 L61.58411,58.6959901 L61.4521924,56.1900123 L64.2252343,55.5303779 L64.6213831,53.5518702 L67.1301937,51.3094297 L69.3751692,49.4626907 L72.0162935,48.1438175 L73.9970377,48.539519 L76.9019971,46.5610114 L79.675039,44.0550336 L81.9200144,42.8679291 Z M276.825639,77.4257304 L278.67407,78.8767679 L277.881772,80.9870441 L275.76911,80.7231112 L272.864151,81.5145142 L272.468002,79.7999395 L275.372961,77.8214319 L276.825639,77.4257304 Z M207.763427,61.4659008 L207.499196,63.9718785 L208.159576,64.4993486 L209.216105,64.1036471 L211.064932,64.7632816 L212.121461,66.3460877 L212.253378,68.3245953 L211.592998,68.1928267 L207.367279,67.6653566 L205.386534,67.4014236 L206.97113,65.9503861 L207.235361,64.2358114 L205.386534,63.3126398 L206.046915,61.4659008 L207.763427,61.4659008 Z M217.139082,52.8922358 L219.912124,54.3428776 L221.364802,55.1342806 L223.213628,55.5299822 L224.666306,57.3767212 L223.609777,58.6955944 L221.232884,58.2998928 L218.59176,56.7170867 L217.93138,55.002512 L217.139082,52.8922358 Z M203.538104,48.4073547 L205.783079,49.5944593 L206.179228,51.8368998 L206.971526,52.6283029 L208.028055,52.1008328 L207.896137,50.1223251 L209.216501,49.7266236 L211.725312,51.5733626 L212.649527,52.2329971 L214.630271,52.6286986 L215.422569,53.288333 L214.102205,54.8711391 L213.441825,56.4539452 L211.85723,55.6625422 L211.85723,53.4201016 L209.876485,52.49693 L210.800701,55.0029077 L211.196849,56.1900123 L212.517214,56.7174824 L211.196849,57.5088855 L209.480337,57.3771169 L208.159972,57.5088855 L205.914997,58.3002886 L205.650766,56.9814154 L204.858468,56.8492511 L204.198088,58.4320572 L201.953112,56.5853181 L201.953112,53.9471761 L201.028897,52.6283029 L202.481575,50.3858623 L203.538104,48.4073547 Z M129.986338,3.36346297 L128.995966,7.12262746 L124.242179,8.90328432 L124.044105,12.0688965 L125.826775,15.036658 L126.817147,16.4216133 L124.638328,17.2130164 L122.063361,16.2237625 L123.251807,19.5872255 L125.430626,18.9936732 L127.015221,17.8065686 L127.41137,18.5979717 L125.430626,21.3678824 L127.609445,23.1485392 L128.401742,25.1270469 L130.580561,25.3248976 L131.769007,27.3034053 L135.136272,27.6991068 L137.315091,26.1163007 L139.691984,27.1055545 L138.107389,30.864719 L137.513166,34.4260327 L139.691984,33.4367789 L144.247696,33.2389281 L146.426514,30.864719 L146.624589,28.2926591 L144.247696,25.9184499 L142.6631,24.7313453 L142.266952,22.7528377 L140.484282,22.3571362 L139.890059,25.1270469 L139.592947,26.709853 L137.71124,25.9184499 L136.918942,23.8410169 L137.117017,21.4668078 L137.414128,19.4883001 L136.918942,17.3119417 L135.631459,16.4216133 L134.641086,17.2130164 L133.254566,15.7291356 L132.660342,15.1355833 L129.491152,15.828061 L127.906556,16.9162402 L127.906556,18.1033448 L127.015221,17.2130164 L127.114259,16.3226879 L128.005593,15.828061 L129.19404,14.8388072 L130.283449,13.750628 L132.165156,13.750628 L132.759379,13.2560011 L132.462268,11.3764189 L133.551677,9.59576199 L132.957454,7.61725436 L131.471896,6.9247767 L130.877672,3.75916449 L129.986338,3.36346297 Z M76.0110584,1.97850763 L74.426463,3.46238835 L73.1389793,6.13337364 L74.3274258,7.91403051 L75.4168351,6.72692593 L77.4966165,6.52907517 L76.7043188,4.2537914 L76.9023933,2.07743301 L76.0110584,1.97850763 Z M51.4498304,7.32047822 L50.7565699,9.0022097 L48.9739001,10.0903889 L48.1816025,8.21080665 L44.2201141,7.91403051 L41.4470722,9.69468737 C41.4470722,9.69468737 41.8432211,11.2774935 42.1403327,11.2774935 C42.4374443,11.2774935 44.3191513,12.1678219 44.3191513,12.1678219 L44.5172257,9.49683661 L45.8047094,8.90328432 L47.3893048,9.69468737 L48.3796769,10.2882397 L46.3989327,10.6839412 C46.3989327,10.6839412 45.2104862,11.4753442 45.606635,11.4753442 C46.0027839,11.4753442 47.5873792,11.8710458 47.5873792,11.8710458 L46.993156,12.959225 L44.9133746,13.750628 L46.2008583,15.5312849 L47.6864164,15.036658 L47.5873792,16.4216133 L48.8748629,15.828061 C48.8748629,15.828061 49.5681234,14.7398818 49.5681234,14.4431057 C49.5681234,14.1463295 49.4690862,13.1570757 49.4690862,13.1570757 L51.1527188,13.2560011 L51.6479048,11.5742696 L53.0344257,10.9807173 L53.7276862,9.39791123 L51.6479048,9.49683661 C51.6479048,9.49683661 51.9450164,8.30973203 52.2421281,8.30973203 C52.5392397,8.30973203 53.4305746,7.71617975 53.4305746,7.71617975 L52.2421281,7.81510513 L51.4498304,7.32047822 Z M68.286156,8.30973203 L67.79097,10.1893143 L67.3948211,13.2560011 L70.3659374,13.0581503 C70.3659374,13.0581503 71.4553467,12.959225 71.2572723,12.3656727 C71.0591979,11.7721204 70.0688258,9.99146352 70.0688258,9.99146352 L71.3563095,9.20006047 L71.8514956,8.01295589 L70.167863,8.21080665 L68.286156,8.30973203 Z M59.0756955,5.63874674 L61.650663,6.33122441 L61.7497002,6.9247767 L63.9285188,8.01295589 L64.6217793,9.39791123 L63.53237,9.10113509 L61.9477746,8.40865742 L60.8583653,7.12262746 C60.8583653,7.12262746 59.5708816,6.9247767 59.2737699,6.82585131 C58.9766583,6.72692593 59.0756955,5.63874674 59.0756955,5.63874674 Z M63.53237,5.44089597 L64.8198537,6.72692593 L64.3246676,7.51832898 C64.3246676,7.51832898 63.2352583,6.9247767 62.9381467,6.72692593 C62.6410351,6.52907517 62.145849,5.8365975 61.8487374,5.44089597 L63.53237,5.44089597 Z M62.4429607,2.07743301 L63.9285188,2.27528377 L63.9565264,2.31998766 C64.063937,2.4913045 64.4520012,3.10908341 64.6217793,3.36346297 C64.8198537,3.66023911 63.4333327,3.26453758 63.4333327,3.26453758 L62.145849,3.95701525 C62.145849,3.95701525 60.5612537,3.56131373 60.264142,3.36346297 C59.9670304,3.1656122 62.2448862,2.86883606 62.2448862,2.86883606 L62.4429607,2.07743301 Z M63.8294816,0 L64.9188909,0.395701525 L66.0083002,1.38495534 L64.7208165,2.07743301 L63.0371839,0.791403051 L63.8294816,0 Z M62.2448862,13.0581503 L61.5516258,13.750628 C61.5516258,13.750628 61.3535513,16.3226879 61.650663,16.2237625 C61.9477746,16.1248372 63.6314072,16.3226879 63.53237,15.9269864 C63.4333327,15.5312849 63.4333327,15.036658 63.4333327,14.6409564 C63.4333327,14.2452549 63.4333327,13.5527772 63.4333327,13.5527772 L62.2448862,13.0581503 Z M64.2256304,12.2667473 C64.2256304,12.2667473 64.3246676,13.4538519 64.4237048,13.8495534 C64.5227421,14.2452549 65.1169653,15.7291356 65.1169653,15.7291356 L65.8102258,13.9484788 L66.404449,13.5527772 L65.0179281,12.5635234 L64.2256304,12.2667473 Z M69.1774909,5.53982136 L69.2765281,6.52907517 L70.663049,7.32047822 L71.3563095,5.93552288 L70.3659374,5.53982136 L69.1774909,5.53982136 Z M56.6988025,13.1570757 L56.1045792,14.1463295 C56.1045792,14.1463295 54.0247978,15.2345087 55.510356,15.3334341 C56.9959141,15.4323595 58.3824351,15.5312849 58.3824351,15.5312849 L58.1843606,14.1463295 L56.6988025,13.1570757 Z" id="path-1"></path>
        <rect id="path-3" x="0" y="0" width="240" height="136" rx="2"></rect>
        <rect id="path-5" x="0" y="0" width="240" height="136" rx="2"></rect>
        <filter x="-17.5%" y="-30.9%" width="135.0%" height="161.8%" filterUnits="objectBoundingBox" id="filter-7">
            <feMorphology radius="2" operator="dilate" in="SourceAlpha" result="shadowSpreadOuter1"></feMorphology>
            <feOffset dx="0" dy="0" in="shadowSpreadOuter1" result="shadowOffsetOuter1"></feOffset>
            <feGaussianBlur stdDeviation="12" in="shadowOffsetOuter1" result="shadowBlurOuter1"></feGaussianBlur>
            <feColorMatrix values="0 0 0 0 0.0850139608   0 0 0 0 0.146164906   0 0 0 0 0.336412292  0 0 0 0.05 0" type="matrix" in="shadowBlurOuter1" result="shadowMatrixOuter1"></feColorMatrix>
            <feMorphology radius="2" operator="erode" in="SourceAlpha" result="shadowSpreadOuter2"></feMorphology>
            <feOffset dx="0" dy="0" in="shadowSpreadOuter2" result="shadowOffsetOuter2"></feOffset>
            <feGaussianBlur stdDeviation="8" in="shadowOffsetOuter2" result="shadowBlurOuter2"></feGaussianBlur>
            <feColorMatrix values="0 0 0 0 0.0829581453   0 0 0 0 0.137473016   0 0 0 0 0.307074837  0 0 0 0.0775855004 0" type="matrix" in="shadowBlurOuter2" result="shadowMatrixOuter2"></feColorMatrix>
            <feMerge>
                <feMergeNode in="shadowMatrixOuter1"></feMergeNode>
                <feMergeNode in="shadowMatrixOuter2"></feMergeNode>
            </feMerge>
        </filter>
    </defs>
    <g id="Сайт" stroke="none" stroke-width="1" fill="none" fill-rule="evenodd">
        <g id="002-О-нас" transform="translate(-898.000000, -952.000000)">
            <g id="Group-7" transform="translate(898.000000, 952.000000)">
                <g id="1L8A4405">
                    <mask id="mask-2" fill="white">
                        <use xlink:href="#path-1"></use>
                    </mask>
                    <use id="Mask" fill="#D6DFF1" fill-rule="nonzero" xlink:href="#path-1"></use>
                </g>
                <g id="Group-6" transform="translate(120.000000, 119.000000)">
                    <g id="Group-46">
                        <mask id="mask-4" fill="white">
                            <use xlink:href="#path-3"></use>
                        </mask>
                        <use id="Mask" fill-opacity="0.508793" fill="#F0F2F9" xlink:href="#path-3"></use>
                    </g>
                    <g id="Group-4" transform="translate(24.000000, 32.000000)">
                        <text id="национальностей-прож" font-family="Montserrat-SemiBold, Montserrat" font-size="14" font-weight="500" line-spacing="20" fill="#000000">
                            <tspan x="0" y="46">национальностей </tspan>
                            <tspan x="0" y="66">проживает в России</tspan>
                        </text>
                        <text id="160" font-family="Montserrat-Bold, Montserrat" font-size="24" font-weight="bold" line-spacing="32" fill="#234BA0">
                            <tspan x="0" y="23">160</tspan>
                        </text>
                    </g>
                </g>
                <g id="Group-5" transform="translate(222.000000, 32.000000)">
                    <g id="Group-46-Copy">
                        <mask id="mask-6" fill="white">
                            <use xlink:href="#path-5"></use>
                        </mask>
                        <g id="Mask">
                            <use fill="black" fill-opacity="1" filter="url(#filter-7)" xlink:href="#path-5"></use>
                            <use fill="#FFFFFF" fill-rule="evenodd" xlink:href="#path-5"></use>
                        </g>
                    </g>
                    <g id="Group-3" transform="translate(24.000000, 32.000000)">
                        <text id="жителей-в-России-—-м" font-family="Montserrat-SemiBold, Montserrat" font-size="14" font-weight="500" line-spacing="20" fill="#000000">
                            <tspan x="12.054" y="45">жителей в России — </tspan>
                            <tspan x="0" y="65">молдаване </tspan>
                            <tspan x="98.44975" y="63.5" font-family="AppleColorEmoji, Apple Color Emoji" font-weight="normal">🇲🇩</tspan>
                            <tspan x="105.702" y="65"> </tspan>
                        </text>
                        <text id="&gt;-500-000" font-family="Montserrat-Bold, Montserrat" font-size="24" font-weight="bold" line-spacing="32" fill="#234BA0">
                            <tspan x="0" y="23">&gt; 500 000</tspan>
                        </text>
                    </g>
                </g>
            </g>
        </g>
    </g>
</svg>