<?xml version="1.0" encoding="UTF-8"?>
<svg width="13px" height="13px" viewBox="0 0 13 13" version="1.1" xmlns="http://www.w3.org/2000/svg" xmlns:xlink="http://www.w3.org/1999/xlink">
    <title>Group 4</title>
    <g id="Сайт" stroke="none" stroke-width="1" fill="none" fill-rule="evenodd">
        <g id="007-Новость-(мероприятие)" transform="translate(-80.000000, -145.000000)">
            <g id="Group-15" transform="translate(80.000000, 143.000000)">
                <g id="Group-4" transform="translate(0.000000, 2.000000)">
                    <circle id="Oval" fill="#234BA0" cx="6.5" cy="6.5" r="6.5"></circle>
                    <path d="M3.34596525,6.84011651 L3.32484493,6.80317254 L3.27892659,6.69219185 L3.25761522,6.59949427 C3.24746159,6.53358533 3.24746159,6.46641467 3.25761522,6.40050573 L3.27752037,6.31227141 L3.29973503,6.25020629 L3.33141204,6.18468186 L3.37559375,6.11579602 L3.44038059,6.04038059 L6.04038059,3.44038059 C6.29422138,3.1865398 6.70577862,3.1865398 6.95961941,3.44038059 C7.2134602,3.69422138 7.2134602,4.10577862 6.95961941,4.35961941 L5.47,5.849 L9.1,5.85 C9.45898509,5.85 9.75,6.14101491 9.75,6.5 C9.75,6.85898509 9.45898509,7.15 9.1,7.15 L5.468,7.149 L6.95961941,8.64038059 C7.18807612,8.8688373 7.21092179,9.22504434 7.02815642,9.47905111 L6.95961941,9.55961941 C6.70577862,9.8134602 6.29422138,9.8134602 6.04038059,9.55961941 L3.44038059,6.95961941 L3.39810918,6.91311649 L3.34596525,6.84011651 Z" id="Path" fill="#FFFFFF" fill-rule="nonzero"></path>
                </g>
            </g>
        </g>
    </g>
</svg>