<?xml version="1.0" encoding="UTF-8"?>
<svg width="160px" height="179px" viewBox="0 0 160 179" version="1.1" xmlns="http://www.w3.org/2000/svg" xmlns:xlink="http://www.w3.org/1999/xlink">
    <title>bw-logo-v</title>
    <g id="Сайт" stroke="none" stroke-width="1" fill="none" fill-rule="evenodd">
        <g id="mob-001-Главная" transform="translate(-108.000000, -6116.000000)" fill="#FFFFFF" fill-rule="nonzero">
            <g id="Group-5" transform="translate(0.000000, 548.000000)">
                <g id="mob-big-footer" transform="translate(0.000000, 2325.000000)">
                    <g id="Group-5" transform="translate(0.000000, 723.000000)">
                        <g id="mob-footer" transform="translate(0.000000, 2472.000000)">
                            <g id="Group-24" transform="translate(16.000000, 48.000000)">
                                <g id="bw-logo-v" transform="translate(92.000000, 0.000000)">
                                    <g id="Group-Copy" transform="translate(0.000000, 138.232515)">
                                        <polygon id="Path" points="45.4190325 3.49927118 43.9664918 3.49927118 43.9664918 6.41852364 43.3128484 6.41852364 43.3128484 0.0525525436 43.9664918 0.0525525436 43.9664918 2.90814529 45.4190325 2.90814529 47.5706085 0.0525525436 48.2968789 0.0525525436 45.9365002 3.14459565 48.4330546 6.41852364 47.6613923 6.41852364"></polygon>
                                        <path d="M56.5037342,0.0525525436 L53.6168094,5.41360963 C53.4493897,5.75198724 53.2015496,6.04398152 52.8950782,6.26392148 C52.6272487,6.44584043 52.3108299,6.54251681 51.9872403,6.54130736 C51.7183532,6.53427845 51.4533106,6.4756202 51.2064996,6.36850529 L51.3971456,5.82285063 C51.5877457,5.90057095 51.7906347,5.94368323 51.9963186,5.95017005 C52.4396149,5.93575591 52.8367454,5.67171311 53.0221755,5.26810172 L53.2037431,4.95889741 L50.6527184,0.0525525436 L51.3699104,0.0525525436 L53.5850351,4.3632244 L55.85463,0.0525525436 L56.5037342,0.0525525436 Z" id="Path"></path>
                                        <path d="M63.816369,0.0525525436 L63.816369,6.41852364 L63.1536473,6.41852364 L63.1536473,0.634584186 L60.085155,0.634584186 L60.0125279,2.76263738 C60.0019983,3.47527231 59.9306241,4.18569831 59.799186,4.88614345 C59.7334782,5.32363989 59.5568779,5.73694932 59.2862576,6.08658372 C59.0584383,6.34851274 58.7250242,6.4938013 58.3784196,6.48218335 C58.2071011,6.48025388 58.0365516,6.45889794 57.8700303,6.41852364 L57.9245006,5.81830351 C58.0227904,5.8410491 58.123219,5.85324353 58.2240871,5.85468048 C58.4790647,5.85978267 58.7208114,5.74123835 58.8731913,5.53638193 C59.0743742,5.24166949 59.2034425,4.90363609 59.249944,4.54965641 C59.3510241,3.96513011 59.4086787,3.37389758 59.4224333,2.78082587 L59.513217,0.0525525436 L63.816369,0.0525525436 Z" id="Path"></path>
                                        <path d="M71.632854,2.83539134 C72.0513018,3.2132152 72.2709788,3.76420735 72.2274879,4.32684742 C72.2674112,4.91620866 72.0347787,5.49126165 71.5965405,5.88651034 C71.0733139,6.27366368 70.4298874,6.46219483 69.7808645,6.41852364 L67.257075,6.41852364 L67.257075,0.0525525436 L67.9016399,0.0525525436 L67.9016399,2.32611365 L69.8988835,2.32611365 C70.5194539,2.27910398 71.1358693,2.46014893 71.632854,2.83539134 L71.632854,2.83539134 Z M71.0790728,5.49091071 C71.3982565,5.19538868 71.5653914,4.77012417 71.5329918,4.33594167 C71.5329918,3.3598261 70.9277665,2.87176831 69.7173159,2.87176831 L67.9016399,2.87176831 L67.9016399,5.86832185 L69.744551,5.86832185 C70.2199518,5.90460669 70.6927995,5.7708824 71.0790728,5.49091071 Z" id="Shape"></path>
                                        <polygon id="Path" points="78.5823537 0.634584186 76.3490723 0.634584186 76.3490723 6.41852364 75.6863505 6.41852364 75.6863505 0.634584186 73.4530691 0.634584186 73.4530691 0.0525525436 78.5823537 0.0525525436"></polygon>
                                        <path d="M86.6893468,0.0525525436 L83.7888044,5.41360963 C83.6213847,5.75198724 83.3735446,6.04398152 83.0670733,6.26392148 C82.798999,6.44532691 82.482742,6.54195384 82.1592353,6.54129927 C81.890293,6.53473229 81.6251649,6.47605511 81.3784946,6.36850529 L81.5691406,5.82285063 C81.7597407,5.90057095 81.9626298,5.94368323 82.1683137,5.95017005 C82.611275,5.93470767 83.0079063,5.67099678 83.1941706,5.26810172 L83.3757382,4.95889741 L80.7974783,0.0570996658 L81.5192095,0.0570996658 L83.7343342,4.36777152 L86.0039291,0.0570996658 L86.6893468,0.0525525436 Z" id="Path"></path>
                                        <path d="M93.6433856,0.634584186 C94.0797864,1.04851173 94.3270011,1.62404058 94.3270011,2.22607696 C94.3270011,2.82811334 94.0797864,3.40364219 93.6433856,3.81756973 C93.096042,4.22980351 92.4205823,4.43440659 91.7369259,4.39505425 L90.0301905,4.39505425 L90.0301905,6.40488227 L89.3583904,6.40488227 L89.3583904,0.0389111769 L91.7369259,0.0389111769 C92.4233244,0.000688925994 93.1003901,0.212237989 93.6433856,0.634584186 Z M93.1622315,3.40378161 C93.4812113,3.09530113 93.6613699,2.67022135 93.6613699,2.22607696 C93.6613699,1.78193257 93.4812113,1.35685279 93.1622315,1.04837231 C92.744515,0.744915348 92.2335014,0.598426344 91.7187691,0.634584186 L90.0301905,0.634584186 L90.0301905,3.81756973 L91.7187691,3.81756973 C92.2332562,3.85140711 92.7434977,3.70513944 93.1622315,3.40378161 Z" id="Shape"></path>
                                        <polygon id="Path" points="102.453953 0.0525525436 102.453953 6.41852364 101.791231 6.41852364 101.791231 3.48108269 97.8149011 3.48108269 97.8149011 6.41852364 97.143101 6.41852364 97.143101 0.0525525436 97.8149011 0.0525525436 97.8149011 2.8899568 101.791231 2.8899568 101.791231 0.0525525436"></polygon>
                                        <path d="M107.052152,6.05020674 C106.553457,5.78200295 106.138672,5.38065841 105.853806,4.89069058 C105.278977,3.86238106 105.278977,2.60869512 105.853806,1.58038561 C106.138672,1.09041778 106.553457,0.689073231 107.052152,0.420869443 C108.121028,-0.140289814 109.396748,-0.140289814 110.465623,0.420869443 C110.962228,0.690322523 111.37524,1.09147122 111.65943,1.58038561 C112.240339,2.61033925 112.240339,3.86983118 111.65943,4.89978482 C111.372521,5.38656055 110.960178,5.78705907 110.465623,6.05930098 C109.396748,6.62046024 108.121028,6.62046024 107.052152,6.05930098 L107.052152,6.05020674 Z M110.125184,5.53183481 C110.522846,5.30923174 110.852404,4.98224147 111.078414,4.58603339 C111.538659,3.74472773 111.538659,2.72634846 111.078414,1.88504279 C110.853708,1.48783416 110.523832,1.160529 110.125184,0.939241375 C109.273585,0.486540564 108.253269,0.486540564 107.40167,0.939241375 C106.999393,1.15879782 106.666157,1.48631713 106.439362,1.88504279 C105.973089,2.72479219 105.973089,3.74628399 106.439362,4.58603339 C106.667481,4.98373552 107.000389,5.31093299 107.40167,5.53183481 C108.253269,5.98453562 109.273585,5.98453562 110.125184,5.53183481 L110.125184,5.53183481 Z" id="Shape"></path>
                                        <polygon id="Path" points="114.655296 2.93542802 117.033831 2.93542802 117.033831 3.49927118 114.655296 3.49927118"></polygon>
                                        <path d="M1.6294679,16.9633 C1.13077213,16.6950963 0.715987327,16.2937517 0.43112178,15.8037839 C-0.14370726,14.7754744 -0.14370726,13.5217884 0.43112178,12.4934789 C0.71466336,12.0001598 1.12956933,11.5955493 1.6294679,11.3248685 C2.15438953,11.0395855 2.74359796,10.893983 3.34074248,10.9019861 C3.93474671,10.8912747 4.52132815,11.0354342 5.04293868,11.3203214 C5.53954338,11.5897745 5.95255539,11.9909232 6.23674562,12.4798375 C6.81765418,13.5097912 6.81765418,14.7692831 6.23674562,15.7992368 C5.94983606,16.2860125 5.53749346,16.686511 5.04293868,16.9587529 C3.97406295,17.5199122 2.69834364,17.5199122 1.6294679,16.9587529 L1.6294679,16.9633 Z M4.70249944,16.4449281 C5.10016096,16.222325 5.42971947,15.8953348 5.65572931,15.4991267 C6.11597414,14.657821 6.11597414,13.6394418 5.65572931,12.7981361 C5.43102311,12.4009275 5.10114725,12.0736223 4.70249944,11.8523347 C4.28612269,11.6214199 3.81660996,11.5038366 3.34074248,11.5113005 C2.86506903,11.5055113 2.39597783,11.6229891 1.97898552,11.8523347 C1.5767081,12.0718911 1.24347268,12.3994104 1.01667727,12.7981361 C0.550404426,13.6378855 0.550404426,14.6593773 1.01667727,15.4991267 C1.24479649,15.8968288 1.57770445,16.2240263 1.97898552,16.4449281 C2.39597783,16.6742737 2.86506903,16.7917515 3.34074248,16.7859623 C3.81814275,16.7942246 4.28932231,16.6766159 4.70703863,16.4449281 L4.70249944,16.4449281 Z" id="Shape"></path>
                                        <path d="M9.36878662,10.9656458 L14.016917,10.9656458 L14.016917,11.5385832 L10.0315083,11.5385832 L10.0315083,13.6211652 L12.1104573,13.6211652 C12.7155156,13.5775935 13.3177769,13.7376237 13.8217319,14.0758774 C14.2271306,14.4078584 14.4456323,14.9168899 14.4072874,15.4400141 C14.4382456,15.9846962 14.2029154,16.5104505 13.77634,16.849622 C13.2422148,17.2104668 12.6035047,17.3832199 11.960664,17.3407112 L9.36878662,17.3407112 L9.36878662,10.9656458 Z M11.9561248,16.7950565 C12.423798,16.8263763 12.889365,16.7085873 13.2861075,16.4585695 C13.5935941,16.221104 13.7636093,15.8464171 13.7400265,15.4582026 C13.7641126,15.0762812 13.5932038,14.7081851 13.2861075,14.4805713 C12.8774641,14.2319612 12.4008843,14.1189736 11.9243505,14.1577256 L10.0315083,14.1577256 L10.0315083,16.7814152 L11.9561248,16.7950565 Z" id="Shape"></path>
                                        <path d="M21.2977776,11.5476775 C21.7341783,11.961605 21.981393,12.5371339 21.981393,13.1391703 C21.981393,13.7412066 21.7341783,14.3167355 21.2977776,14.730663 C20.750434,15.1428968 20.0749743,15.3474999 19.3913178,15.3081476 L17.6845825,15.3081476 L17.6845825,17.3179756 L17.0127824,17.3179756 L17.0127824,10.9520045 L19.3913178,10.9520045 C20.0777163,10.9137822 20.754782,11.1253313 21.2977776,11.5476775 L21.2977776,11.5476775 Z M20.8166235,14.3168749 C21.1356032,14.0083944 21.3157619,13.5833147 21.3157619,13.1391703 C21.3157619,12.6950259 21.1356032,12.2699461 20.8166235,11.9614656 C20.398907,11.6580087 19.8878934,11.5115196 19.3731611,11.5476775 L17.6845825,11.5476775 L17.6845825,14.730663 L19.3731611,14.730663 C19.8876482,14.7645004 20.3978897,14.6182327 20.8166235,14.3168749 L20.8166235,14.3168749 Z" id="Shape"></path>
                                        <path d="M28.2699732,15.6309932 L24.7294051,15.6309932 L23.9668212,17.3316169 L23.267786,17.3316169 L26.1728675,10.9656458 L26.8355892,10.9656458 L29.7406707,17.3316169 L29.0325571,17.3316169 L28.2699732,15.6309932 Z M28.024857,15.0853386 L26.4996892,11.6659027 L24.9745214,15.0853386 L28.024857,15.0853386 Z" id="Shape"></path>
                                        <path d="M36.1273109,14.5669666 C36.3661475,14.8373812 36.4942244,15.1881782 36.4859069,15.549145 C36.4910555,15.904442 36.3686292,16.2497709 36.1409284,16.5222292 C35.8981336,16.8103137 35.5855297,17.0310846 35.2330905,17.1633734 C34.8356834,17.3135086 34.4140715,17.3890381 33.9893524,17.3861824 C33.5649618,17.3859236 33.1434133,17.3168224 32.7410752,17.1815619 C32.3381237,17.0482772 31.963901,16.8400124 31.6380521,16.5677004 L31.8831683,16.0857055 C32.1661575,16.3215752 32.4889855,16.5048307 32.8363982,16.626813 C33.1836981,16.7485292 33.5487886,16.8115328 33.9167254,16.813245 C34.2417206,16.8166778 34.5646579,16.7612203 34.8699553,16.6495486 C35.1357721,16.5585449 35.3745566,16.4022039 35.5644513,16.1948364 C35.7356662,15.9934186 35.8276603,15.7363551 35.8231851,15.471844 C35.8341882,15.1263538 35.6614025,14.800949 35.3692662,14.616985 C34.9999615,14.3962509 34.572996,14.2916992 34.1436849,14.3168749 L32.7819279,14.3168749 L32.7819279,13.7712203 L34.1073714,13.7712203 C34.478818,13.7937565 34.8473302,13.6930775 35.1559242,13.4847516 C35.4059181,13.2988721 35.5471643,13.0005435 35.532677,12.6890052 C35.5511978,12.3203474 35.3664685,11.9711924 35.0515229,11.7795807 C34.6912704,11.5512768 34.2700049,11.4386373 33.8440984,11.456735 C33.5367796,11.457412 33.2311145,11.5018109 32.9362604,11.5886016 C32.6250711,11.6768337 32.3284083,11.8101058 32.0556576,11.9842012 L31.8286981,11.4294523 C32.44136,11.0609023 33.143081,10.8674739 33.8577159,10.8701563 C34.260796,10.864251 34.6613162,10.9352361 35.0379053,11.0793239 C35.3704274,11.1976607 35.6640712,11.4053009 35.8867338,11.679544 C36.0940211,11.9367039 36.2048387,12.2584758 36.1999379,12.5889685 C36.208389,12.9050346 36.1091296,13.2145594 35.9185081,13.4665631 C35.7179251,13.7210956 35.4410673,13.9043961 35.1286891,13.9894821 C35.5153582,14.0681681 35.8659167,14.2708897 36.1273109,14.5669666 L36.1273109,14.5669666 Z" id="Path"></path>
                                        <path d="M40.4123061,16.9633 C39.9154094,16.6926333 39.5012203,16.2918652 39.21396,15.8037839 C38.6391309,14.7754744 38.6391309,13.5217884 39.21396,12.4934789 C39.5012203,12.0053976 39.9154094,11.6046295 40.4123061,11.3339627 C40.937448,11.0492499 41.5265059,10.9036846 42.1235807,10.9110804 C42.7233011,10.8957946 43.3165208,11.0384788 43.8439336,11.3248685 C44.3413832,11.593167 44.7546763,11.9945887 45.0377406,12.4843847 C45.6186491,13.5143383 45.6186491,14.7738302 45.0377406,15.8037839 C44.7520834,16.2915463 44.3394342,16.6923426 43.8439336,16.9633 C42.7750579,17.5244593 41.4993386,17.5244593 40.4304629,16.9633 L40.4123061,16.9633 Z M43.4853376,16.4449281 C43.8849968,16.2249944 44.2152031,15.8973613 44.4385675,15.4991267 C44.8988123,14.657821 44.8988123,13.6394418 44.4385675,12.7981361 C44.2163849,12.3990011 43.8858842,12.071076 43.4853376,11.8523347 C43.0689609,11.6214199 42.5994482,11.5038366 42.1235807,11.5113005 C41.6479793,11.5061273 41.1790418,11.6235666 40.7618237,11.8523347 C40.3605426,12.0732365 40.0276347,12.400434 39.7995155,12.7981361 C39.3332426,13.6378855 39.3332426,14.6593773 39.7995155,15.4991267 C40.0289212,15.8958305 40.3615146,16.2227187 40.7618237,16.4449281 C41.1790418,16.6736962 41.6479793,16.7911355 42.1235807,16.7859623 C42.5994482,16.7934262 43.0689609,16.6758429 43.4853376,16.4449281 L43.4853376,16.4449281 Z" id="Shape"></path>
                                        <path d="M52.9223134,14.580608 C53.4629266,15.292 53.3575301,16.3019881 52.6817363,16.885999 C52.172327,17.2196445 51.5688005,17.3791646 50.9613833,17.3407112 L48.1470856,17.3407112 L48.1470856,10.9747401 L50.7888941,10.9747401 C51.3495149,10.9402349 51.9063919,11.0868698 52.3776106,11.3930753 C52.7600089,11.6735602 52.9751436,12.1285272 52.9495485,12.6026098 C52.9607544,12.9274649 52.8650598,13.2470042 52.6771971,13.5120343 C52.4824559,13.7664748 52.2172298,13.9578347 51.9146132,14.0622361 C52.2988652,14.1174803 52.6536059,14.2999627 52.9223134,14.580608 L52.9223134,14.580608 Z M48.8098073,13.8485213 L50.7525806,13.8485213 C51.151865,13.8740408 51.5485947,13.7686998 51.8828389,13.5484113 C52.1343223,13.3282249 52.2786,13.0099489 52.2786,12.6753638 C52.2786,12.3407787 52.1343223,12.0225027 51.8828389,11.8023163 C51.5485947,11.5820278 51.151865,11.4766868 50.7525806,11.5022063 L48.8098073,11.5022063 L48.8098073,13.8485213 Z M52.6045701,15.5673335 C52.6045701,14.76704 52.0598673,14.3668933 50.9613833,14.3668933 L48.8098073,14.3668933 L48.8098073,16.7814152 L50.9613833,16.7814152 C52.0598673,16.7814152 52.6045701,16.3858155 52.6045701,15.5673335 Z" id="Shape"></path>
                                        <path d="M60.1850171,15.6309932 L56.6444491,15.6309932 L55.8818652,17.3316169 L55.1919083,17.3316169 L58.0969898,10.9656458 L58.7597115,10.9656458 L61.664793,17.3316169 L60.9566794,17.3316169 L60.1850171,15.6309932 Z M59.9399009,15.0853386 L58.4147331,11.6659027 L56.8895653,15.0853386 L59.9399009,15.0853386 Z" id="Shape"></path>
                                        <polygon id="Path" points="67.592975 11.5476775 65.3596936 11.5476775 65.3596936 17.3316169 64.6969719 17.3316169 64.6969719 11.5476775 62.4546121 11.5476775 62.4546121 10.9656458 67.5838966 10.9656458"></polygon>
                                        <polygon id="Path" points="74.4834652 16.7495853 74.4834652 17.3316169 69.9896673 17.3316169 69.9896673 10.9656458 74.3472895 10.9656458 74.3472895 11.5476775 70.6614674 11.5476775 70.6614674 13.8212386 73.9478408 13.8212386 73.9478408 14.394176 70.6614674 14.394176 70.6614674 16.7586795"></polygon>
                                        <path d="M82.5087529,10.9656458 L82.5087529,17.3316169 L81.8460312,17.3316169 L81.8460312,11.5476775 L78.7956956,11.5476775 L78.7230686,13.6757307 C78.7125389,14.3883656 78.6411647,15.0987916 78.5097266,15.7992368 C78.4419036,16.2361282 78.2655213,16.6489272 77.9967982,16.999677 C77.7689789,17.261606 77.4355648,17.4068946 77.0889602,17.3952767 C76.9176417,17.3933472 76.7470922,17.3719912 76.5805709,17.3316169 L76.6350412,16.7313968 C76.733331,16.7541424 76.8337596,16.7663368 76.9346277,16.7677738 C77.1896053,16.772876 77.431352,16.6543317 77.5837319,16.4494752 C77.7832809,16.153908 77.9121968,15.8162737 77.9604847,15.4627497 C78.0593069,14.8779197 78.1169455,14.2868512 78.1329739,13.6939192 L78.2237577,10.9656458 L82.5087529,10.9656458 Z" id="Path"></path>
                                        <path d="M90.0483473,13.7484846 C90.4622275,14.1294806 90.6809798,14.6781533 90.6429811,15.2399407 C90.6829044,15.829302 90.450272,16.404355 90.0120337,16.7996036 C89.4884527,17.1860404 88.8452938,17.3744932 88.1963578,17.3316169 L85.6725682,17.3316169 L85.6725682,10.9656458 L86.33529,10.9656458 L86.33529,13.239207 L88.3279943,13.239207 C88.9439026,13.1963851 89.554608,13.3771728 90.0483473,13.7484846 L90.0483473,13.7484846 Z M89.5127229,16.404004 C89.8302274,16.1073343 89.9970319,15.6829104 89.9666418,15.249035 C89.9666418,14.2729194 89.3614165,13.7848616 88.1509659,13.7848616 L86.3307508,13.7848616 L86.3307508,16.7814152 L88.1736618,16.7814152 C88.6505045,16.8179988 89.1248799,16.6842972 89.5127229,16.404004 L89.5127229,16.404004 Z" id="Shape"></path>
                                        <polygon id="Path" points="98.4912404 10.9656458 98.4912404 17.3316169 97.8285187 17.3316169 97.8285187 14.394176 93.8521884 14.394176 93.8521884 17.3316169 93.1803883 17.3316169 93.1803883 10.9656458 93.8521884 10.9656458 93.8521884 13.8030501 97.8285187 13.8030501 97.8285187 10.9656458"></polygon>
                                        <path d="M106.030835,13.7484846 C106.444715,14.1294806 106.663467,14.6781533 106.625469,15.2399407 C106.663348,15.8289726 106.431063,16.403166 105.994521,16.7996036 C105.470589,17.1853289 104.827695,17.3737041 104.178845,17.3316169 L101.655056,17.3316169 L101.655056,10.9656458 L102.317777,10.9656458 L102.317777,13.239207 L104.315021,13.239207 C104.929313,13.1983091 105.537938,13.3789576 106.030835,13.7484846 Z M105.49521,16.404004 C105.812715,16.1073343 105.979519,15.6829104 105.949129,15.249035 C105.949129,14.2729194 105.343904,13.7848616 104.133453,13.7848616 L102.308699,13.7848616 L102.308699,16.7814152 L104.15161,16.7814152 C104.628413,16.8176027 105.102656,16.6839386 105.490671,16.404004 L105.49521,16.404004 Z M107.723953,10.9474574 L108.386674,10.9474574 L108.386674,17.3134285 L107.723953,17.3134285 L107.723953,10.9474574 Z" id="Shape"></path>
                                        <path d="M111.536872,10.9656458 L112.199594,10.9656458 L112.199594,16.2403076 L116.284865,10.9656458 L116.893116,10.9656458 L116.893116,17.3316169 L116.230394,17.3316169 L116.230394,12.0660494 L112.145124,17.3316169 L111.536872,17.3316169 L111.536872,10.9656458 Z M113.111971,10.1926351 C112.848168,9.98511621 112.698268,9.66454602 112.707983,9.32868185 L113.207294,9.32868185 C113.202987,9.55195976 113.303893,9.76423349 113.479645,9.90161925 C113.685183,10.0497494 113.934874,10.1235051 114.187759,10.1107869 C114.438938,10.1210553 114.68641,10.0474835 114.891333,9.90161925 C115.06656,9.76336597 115.16865,9.55212176 115.168224,9.32868185 L115.667535,9.32868185 C115.673295,9.66472561 115.522219,9.98422168 115.259008,10.1926351 C114.602579,10.605199 113.7684,10.605199 113.111971,10.1926351 L113.111971,10.1926351 Z" id="Shape"></path>
                                        <polygon id="Path" points="130.292805 16.7495853 130.292805 18.823073 129.666396 18.823073 129.666396 17.3316169 124.119506 17.3316169 124.119506 10.9656458 124.782228 10.9656458 124.782228 16.7495853 128.622383 16.7495853 128.622383 10.9656458 129.285104 10.9656458 129.285104 16.7495853"></polygon>
                                        <polygon id="Path" points="137.260461 16.7495853 137.260461 17.3316169 132.766663 17.3316169 132.766663 10.9656458 137.124285 10.9656458 137.124285 11.5476775 133.438463 11.5476775 133.438463 13.8212386 136.724837 13.8212386 136.724837 14.394176 133.438463 14.394176 133.438463 16.7586795"></polygon>
                                        <polygon id="Path" points="145.117799 10.9656458 145.117799 17.3316169 144.455077 17.3316169 144.455077 14.394176 140.478747 14.394176 140.478747 17.3316169 139.806947 17.3316169 139.806947 10.9656458 140.478747 10.9656458 140.478747 13.8030501 144.455077 13.8030501 144.455077 10.9656458"></polygon>
                                        <polygon id="Path" points="152.634697 11.5476775 150.401416 11.5476775 150.401416 17.3316169 149.738694 17.3316169 149.738694 11.5476775 147.505413 11.5476775 147.505413 10.9656458 152.634697 10.9656458"></polygon>
                                        <path d="M159.316385,11.5476775 C159.752785,11.961605 160,12.5371339 160,13.1391703 C160,13.7412066 159.752785,14.3167355 159.316385,14.730663 C158.769041,15.1428968 158.093581,15.3474999 157.409925,15.3081476 L155.703189,15.3081476 L155.703189,17.3179756 L155.054085,17.3179756 L155.054085,10.9520045 L157.432621,10.9520045 C158.111345,10.9193044 158.779405,11.1305547 159.316385,11.5476775 Z M158.83523,14.3168749 C159.15421,14.0083944 159.334369,13.5833147 159.334369,13.1391703 C159.334369,12.6950259 159.15421,12.2699461 158.83523,11.9614656 C158.417514,11.6580087 157.9065,11.5115196 157.391768,11.5476775 L155.703189,11.5476775 L155.703189,14.730663 L157.391768,14.730663 C157.906255,14.7645004 158.416497,14.6182327 158.83523,14.3168749 L158.83523,14.3168749 Z" id="Shape"></path>
                                        <polygon id="Path" points="32.949878 38.0619471 32.949878 30.2499911 29.1142625 36.6841691 27.7752015 36.6841691 23.9214293 30.4227818 23.9214293 38.0619471 21.0889749 38.0619471 21.0889749 25.0117064 23.5855293 25.0117064 28.4606192 33.1237724 33.2630821 25.0117064 35.7550973 25.0117064 35.7550973 38.0619471"></polygon>
                                        <path d="M42.9905659,37.4117086 C40.8263331,36.2543642 39.4746787,33.9966875 39.4746787,31.5391003 C39.4746787,29.0815131 40.8263331,26.8238364 42.9905659,25.666492 C45.2849307,24.4961908 47.9997576,24.4961908 50.2941224,25.666492 C51.8866675,26.5467834 53.0561564,28.0348166 53.5366223,29.7921811 C54.0170881,31.5495455 53.7676903,33.4268614 52.8451471,34.9971867 C52.2272145,36.0173393 51.3458821,36.8515125 50.2941224,37.4117086 C47.9997576,38.5820098 45.2849307,38.5820098 42.9905659,37.4117086 L42.9905659,37.4117086 Z M48.7326411,35.1836187 C49.3464069,34.8332184 49.8520749,34.3203742 50.1942603,33.7012569 C50.9021714,32.3470396 50.9021714,30.731161 50.1942603,29.3769437 C49.8534098,28.756827 49.347421,28.2436574 48.7326411,27.8945818 C47.4322467,27.1853915 45.8615201,27.1853915 44.5611256,27.8945818 C43.9466909,28.2425917 43.4419109,28.7561302 43.1040457,29.3769437 C42.3961345,30.731161 42.3961345,32.3470396 43.1040457,33.7012569 C43.4430818,34.321199 43.9475787,34.8344495 44.5611256,35.1836187 C45.8615201,35.8928091 47.4322467,35.8928091 48.7326411,35.1836187 L48.7326411,35.1836187 Z" id="Shape"></path>
                                        <path d="M68.9910455,25.0117064 L68.9910455,38.0619471 L66.0133369,38.0619471 L66.0133369,27.4762466 L61.5467741,27.4762466 L61.4559903,30.2045199 C61.4238746,31.714741 61.2720912,33.2200226 61.0020713,34.7061709 C60.8484221,35.6779482 60.4395376,36.5913069 59.8173428,37.352596 C59.2178243,37.9836467 58.3702792,38.3165982 57.5023559,38.2620205 C56.9999905,38.2498474 56.5005776,38.1812107 56.0135017,38.0574 L56.1996084,35.5064644 C56.3749832,35.5578031 56.5570889,35.5823307 56.739772,35.5792184 C57.456964,35.5792184 57.9593011,35.1533046 58.2467831,34.301477 C58.5976742,32.9979842 58.7792272,31.6545896 58.7869467,30.3045566 L58.9730535,25.0071592 L68.9910455,25.0117064 Z" id="Path"></path>
                                        <path d="M87.1296482,35.601954 L87.1296482,40.7674848 L84.3380464,40.7674848 L84.3380464,38.0619471 L75.1643437,38.0619471 L75.1643437,40.7674848 L72.3727419,40.7674848 L72.3727419,35.601954 L72.8947488,35.601954 C73.6754894,35.5777027 74.2277575,35.006281 74.5515531,33.8876889 C74.940551,32.3193239 75.1461953,30.7109698 75.1643437,29.0950221 L75.314137,25.0026121 L85.3275898,25.0026121 L85.3275898,35.5928597 L87.1296482,35.601954 Z M77.4157819,33.2829217 C77.3056521,34.1183142 76.9940593,34.9142644 76.5079439,35.601954 L82.3362637,35.601954 L82.3362637,27.4762466 L77.8878576,27.4762466 L77.8288481,29.3769437 C77.7926153,30.6868505 77.6606254,31.9923378 77.4339386,33.2829217 L77.4157819,33.2829217 Z" id="Shape"></path>
                                        <path d="M93.0169774,37.4117086 C91.9625371,36.8552589 91.0803034,36.0202327 90.4659527,34.9971867 C89.237315,32.8560663 89.237315,30.2221343 90.4659527,28.0810138 C91.0775426,27.0557454 91.9604786,26.2200545 93.0169774,25.666492 C95.3113422,24.4961908 98.0261691,24.4961908 100.320534,25.666492 C101.909994,26.5499089 103.075589,28.0393171 103.552559,29.7964023 C104.02953,31.5534875 103.777386,33.429095 102.853402,34.9971867 C102.235469,36.0173393 101.354137,36.8515125 100.302377,37.4117086 C98.0080124,38.5820098 95.2931855,38.5820098 92.9988207,37.4117086 L93.0169774,37.4117086 Z M98.7590526,35.1836187 C99.3725995,34.8344495 99.8770965,34.321199 100.216133,33.7012569 C100.924044,32.3470396 100.924044,30.731161 100.216133,29.3769437 C99.8782674,28.7561302 99.3734873,28.2425917 98.7590526,27.8945818 C97.4586582,27.1853915 95.8879316,27.1853915 94.5875371,27.8945818 C93.9727573,28.2436574 93.4667685,28.756827 93.125918,29.3769437 C92.4241858,30.7326769 92.4241858,32.3455236 93.125918,33.7012569 C93.4681033,34.3203742 93.9737714,34.8332184 94.5875371,35.1836187 C95.8879316,35.8928091 97.4586582,35.8928091 98.7590526,35.1836187 L98.7590526,35.1836187 Z" id="Shape"></path>
                                        <path d="M118.427362,32.4144213 C118.859342,32.9810056 119.082274,33.6798882 119.05831,34.3924195 C119.099262,35.4558189 118.606998,36.4693693 117.746484,37.0934101 C116.874959,37.7391014 115.622143,38.0619471 113.997113,38.0619471 L107.578699,38.0619471 L107.578699,25.0117064 L113.643056,25.0117064 C115.159146,25.0117064 116.334796,25.3072693 117.179085,25.8893009 C118.006806,26.4433521 118.486686,27.3892819 118.445519,28.385671 C118.457438,28.9913437 118.288296,29.5867516 117.959826,30.095389 C117.619724,30.5999723 117.148996,31.0023622 116.598069,31.2594523 C117.313142,31.4439341 117.952744,31.8477624 118.427362,32.4144213 L118.427362,32.4144213 Z M110.570025,30.4227818 L113.379783,30.4227818 C113.906888,30.4611438 114.431489,30.3201514 114.868637,30.022635 C115.189987,29.7154528 115.371808,29.2898882 115.371808,28.8449304 C115.371808,28.3999725 115.189987,27.9744079 114.868637,27.6672257 C114.437098,27.3639043 113.914836,27.2178648 113.388862,27.2534376 L110.570025,27.2534376 L110.570025,30.4227818 Z M116.017052,34.151422 C116.017052,33.0722383 115.308939,32.5326465 113.892712,32.5326465 L110.570025,32.5326465 L110.570025,35.8293101 L113.879094,35.8293101 C115.3044,35.8262787 116.017052,35.2654669 116.017052,34.1468749 L116.017052,34.151422 Z" id="Shape"></path>
                                        <path d="M132.875604,30.3636692 C133.725945,31.0730203 134.151116,32.1234055 134.151116,33.5148249 C134.151116,34.9926396 133.697197,36.1203259 132.743967,36.8978838 C131.790737,37.6754417 130.474372,38.0619471 128.790333,38.0619471 L122.889386,38.0619471 L122.889386,25.0117064 L125.885251,25.0117064 L125.885251,29.2996426 L129.19886,29.2996426 C130.805733,29.2996426 132.022236,29.6543181 132.875604,30.3636692 Z M130.456215,35.2472784 C130.916748,34.8158772 131.158551,34.1994562 131.114398,33.5693904 C131.114398,32.2143479 130.283726,31.5368267 128.622383,31.5368267 L125.898869,31.5368267 L125.898869,35.824763 L128.622383,35.824763 C129.283779,35.8649361 129.936728,35.6593186 130.456215,35.2472784 L130.456215,35.2472784 Z M135.80792,25.0117064 L138.803786,25.0117064 L138.803786,38.0619471 L135.80792,38.0619471 L135.80792,25.0117064 Z" id="Shape"></path>
                                    </g>
                                    <g id="Group-Copy" transform="translate(19.064597, 0.000000)">
                                        <polygon id="Rectangle" transform="translate(8.300263, 61.150683) rotate(-45.000000) translate(-8.300263, -61.150683) " points="2.43109085 55.2815109 14.1796924 55.2712544 14.1694358 67.0198559 2.42083432 67.0301125"></polygon>
                                        <polygon id="Path" points="68.4417673 53.5940353 60.9748 61.0785985 53.5032935 53.5940353 45.9591599 61.1513524 60.9748 76.2705338 75.9904401 61.1513524"></polygon>
                                        <path d="M99.6078449,61.1513524 L114.700651,46.0367182 L98.8543394,30.1627146 L83.0080276,46.0367182 L90.5521612,53.5940353 L90.5521612,53.5940353 L83.0080276,61.1513524 L90.5521612,68.726858 L90.5521612,68.726858 L83.0080276,76.2705338 L98.8543394,92.1445374 L114.700651,76.2705338 L99.6078449,61.1513524 Z M84.5195778,46.0367182 L98.8543394,31.6723591 L105.663124,38.4930425 L91.3283626,52.8574015 L84.5195778,46.0367182 Z M98.8543394,90.6348928 L84.5195778,76.2705338 L91.3283626,69.4498505 L105.663124,83.8142095 L98.8543394,90.6348928 Z" id="Shape"></path>
                                        <polygon id="Rectangle" transform="translate(113.946291, 61.149759) rotate(-45.000000) translate(-113.946291, -61.149759) " points="108.077118 55.2805869 119.82572 55.2703303 119.815463 67.0189318 108.066862 67.0291884"></polygon>
                                        <polygon id="Rectangle" transform="translate(61.286510, 8.314768) rotate(-45.000000) translate(-61.286510, -8.314768) " points="55.4173376 2.44559576 67.1659391 2.43533924 67.1556826 14.1839407 55.4070811 14.1941973"></polygon>
                                        <polygon id="Rectangle" transform="translate(61.123738, 114.056450) rotate(-45.000000) translate(-61.123738, -114.056450) " points="55.2545658 108.187278 67.0031673 108.177021 66.9929108 119.925623 55.2443092 119.935879"></polygon>
                                        <path d="M39.2411589,76.2705338 L31.6970254,68.726858 L39.2411589,61.1649938 L31.6970254,53.6076767 L39.2411589,46.0503596 L23.3948471,30.1763559 L7.5485353,46.0367182 L22.6413416,61.1513524 L22.6413416,61.1513524 L7.5485353,76.2705338 L23.3948471,92.1445374 L39.2411589,76.2705338 Z M23.3948471,31.6723591 L37.7341479,46.0367182 L30.9253631,52.8574015 L16.5906015,38.4930425 L23.3948471,31.6723591 Z M16.5860623,83.832398 L30.9208239,69.468039 L37.7296087,76.2887223 L23.3903079,90.6530813 L16.5860623,83.832398 Z" id="Shape"></path>
                                        <path d="M46.1906586,39.3024302 L53.7393314,31.7451131 L61.2653082,39.3069773 L68.8139809,31.7451131 L68.8139809,31.7451131 L76.3581145,39.3024302 L92.2044263,23.4284266 L84.6602927,15.8711095 L84.6602927,15.8711095 L76.3762712,7.55442294 L61.2653082,22.6736043 L46.1906586,7.55442294 C42.0554566,11.7013984 34.484088,19.2859982 30.3443468,23.4284266 L46.1906586,39.3024302 Z M76.3762712,37.7927856 L69.5674864,30.9721023 L83.9067872,16.6077433 L90.715572,23.4284266 L76.3762712,37.7927856 Z M38.6465251,16.6259317 L52.9858258,30.9857437 L46.177041,37.806427 L31.8422795,23.4420679 L38.6465251,16.6259317 Z" id="Shape"></path>
                                        <path d="M76.2173996,83.0730286 L68.6687268,90.6348928 L68.6687268,90.6348928 L61.1245933,83.0730286 L53.5804597,90.6348928 L46.031787,83.0730286 L30.1854752,98.9515794 L46.031787,114.825583 L61.1245933,99.7064016 L61.1245933,99.7064016 C64.8785033,103.466872 72.4725679,111.074207 76.2173996,114.825583 L84.5195778,106.508896 L84.5195778,106.508896 L92.0637114,98.9515794 L76.2173996,83.0730286 Z M31.6970254,98.9515794 L46.031787,84.5872203 L52.8405718,91.4079036 L38.501271,105.772263 L31.6970254,98.9515794 Z M83.7615331,105.772263 L69.4358499,91.3897151 L76.2446347,84.5690318 L90.5793963,98.9333909 L83.7615331,105.772263 Z" id="Shape"></path>
                                    </g>
                                </g>
                            </g>
                        </g>
                    </g>
                </g>
            </g>
        </g>
    </g>
</svg>