<?xml version="1.0" encoding="UTF-8"?>
<svg width="16px" height="18.2px" viewBox="0 0 16 18.2" xmlns="http://www.w3.org/2000/svg">
    <rect fill="#ED1846" x="0" y="1.5" width="16" height="16.2" rx="1.78"/>
    <rect fill="#F7EAE2" opacity="0.71" x="1" y="4.7" width="14" height="1" rx="0.5"/>
    
    <g stroke-linecap="round" stroke-linejoin="round">
        <line x1="11.56" y1="0" x2="11.56" y2="3" stroke="#FFFFFF"/>
        <line x1="0.5" y1="0" x2="0.5" y2="3" stroke="#FFFFFF"/>
        <line x1="11.56" y1="0" x2="11.56" y2="1.5" stroke="#ED1846"/>
        <line x1="0.5" y1="0" x2="0.5" y2="1.5" stroke="#ED1846"/>
    </g>

    <g transform="translate(3, 7.7)">
        <rect fill="#F7EAE2" opacity="0.71" x="0" y="0.5" width="2" height="2" rx="1"/>
        <rect fill="#FFFFFF" x="3.5" y="0" width="3" height="3" rx="1.5"/>
        <rect fill="#FFFFFF" x="8" y="0.5" width="2" height="2" rx="1"/>
        <rect fill="#FFFFFF" x="0" y="4.5" width="2" height="2" rx="1"/>
        <rect fill="#F7EAE2" opacity="0.71" x="4" y="4.5" width="2" height="2" rx="1"/>
        <rect fill="#F7EAE2" opacity="0.3" x="8" y="4.5" width="2" height="2" rx="1"/>
    </g>
</svg>
