<?xml version="1.0" encoding="UTF-8"?>
<svg width="14px" height="11px" viewBox="0 0 14 11" version="1.1" xmlns="http://www.w3.org/2000/svg" xmlns:xlink="http://www.w3.org/1999/xlink">
    <title>Group 9</title>
    <g id="Сайт" stroke="none" stroke-width="1" fill="none" fill-rule="evenodd">
        <g id="004-Проект" transform="translate(-242.000000, -1796.000000)" fill="#ED1846" fill-rule="nonzero">
            <g id="Group-25" transform="translate(80.000000, 1582.000000)">
                <g id="Group-12" transform="translate(0.000000, 204.000000)">
                    <g id="Group-111" transform="translate(12.000000, 8.000000)">
                        <g id="Group-9" transform="translate(150.000000, 2.000000)">
                            <path d="M6.99970871,4.728295 C5.86192834,4.728295 0,1.59005 0,1.59005 L0,1.1 C0,0.4928 0.521992426,0 1.16632683,0 L12.8330906,0 C13.4780076,0 14,0.4928 14,1.1 L13.9906787,1.65 C13.9906787,1.65 8.19225167,4.728295 6.99970871,4.728295 Z" id="Shape-path"></path>
                            <path d="M6.99970871,6.240795 C8.24701427,6.240795 13.9906787,3.3 13.9906787,3.3 L14,9.9 C14,10.5072 13.4780076,11 12.8330906,11 L1.16632683,11 C0.522575007,11 0,10.5072 0,9.9 L0.00932129333,3.3 C0.0087387125,3.3 5.86192834,6.240795 6.99970871,6.240795 Z" id="Shape-path"></path>
                        </g>
                    </g>
                </g>
            </g>
        </g>
    </g>
</svg>