<?xml version="1.0" encoding="UTF-8"?>
<svg width="375px" height="8px" viewBox="0 0 375 8" version="1.1" xmlns="http://www.w3.org/2000/svg" xmlns:xlink="http://www.w3.org/1999/xlink">
    <title>Group 39 Copy</title>
    <defs>
        <rect id="path-1" x="0" y="0" width="1440" height="8" rx="2"></rect>
    </defs>
    <g id="Сайт" stroke="none" stroke-width="1" fill="none" fill-rule="evenodd">
        <g id="mob-001-Главная" transform="translate(0.000000, -6060.000000)">
            <g id="Group-5" transform="translate(0.000000, 548.000000)">
                <g id="mob-big-footer" transform="translate(0.000000, 2325.000000)">
                    <g id="Group-5" transform="translate(0.000000, 723.000000)">
                        <g id="Group-2" transform="translate(0.000000, 1546.000000)">
                            <g id="Group-39-Copy" transform="translate(187.000000, 922.000000) scale(1, -1) translate(-187.000000, -922.000000) translate(-533.000000, 918.000000)">
                                <mask id="mask-2" fill="white">
                                    <use xlink:href="#path-1"></use>
                                </mask>
                                <g id="Rectangle"></g>
                                <path d="M-104,-8 L-96,0 L-104,8 L-112,0 L-104,-8 Z M-88,-8 L-80,0 L-88,8 L-96,0 L-88,-8 Z M-72,-8 L-64,0 L-72,8 L-80,0 L-72,-8 Z M-56,-8 L-48,0 L-56,8 L-64,0 L-56,-8 Z M-40,-8 L-32,0 L-40,8 L-48,0 L-40,-8 Z M-24,-8 L-16,0 L-24,8 L-32,0 L-24,-8 Z M-8,-8 L0,0 L-8,8 L-16,0 L-8,-8 Z M8,-8 L16,0 L8,8 L0,0 L8,-8 Z M24,-8 L32,0 L24,8 L16,0 L24,-8 Z M40,-8 L48,0 L40,8 L32,0 L40,-8 Z M56,-8 L64,0 L56,8 L48,0 L56,-8 Z M72,-8 L80,0 L72,8 L64,0 L72,-8 Z M88,-8 L96,0 L88,8 L80,0 L88,-8 Z M104,-8 L112,0 L104,8 L96,0 L104,-8 Z M120,-8 L128,0 L120,8 L112,0 L120,-8 Z M136,-8 L144,0 L136,8 L128,0 L136,-8 Z M152,-8 L160,0 L152,8 L144,0 L152,-8 Z M168,-8 L176,0 L168,8 L160,0 L168,-8 Z M184,-8 L192,0 L184,8 L176,0 L184,-8 Z M200,-8 L208,0 L200,8 L192,0 L200,-8 Z M216,-8 L224,0 L216,8 L208,0 L216,-8 Z M232,-8 L240,0 L232,8 L224,0 L232,-8 Z M248,-8 L256,0 L248,8 L240,0 L248,-8 Z M264,-8 L272,0 L264,8 L256,0 L264,-8 Z M280,-8 L288,0 L280,8 L272,0 L280,-8 Z M296,-8 L304,0 L296,8 L288,0 L296,-8 Z M312,-8 L320,0 L312,8 L304,0 L312,-8 Z M328,-8 L336,0 L328,8 L320,0 L328,-8 Z M344,-8 L352,0 L344,8 L336,0 L344,-8 Z M360,-8 L368,0 L360,8 L352,0 L360,-8 Z M376,-8 L384,0 L376,8 L368,0 L376,-8 Z M392,-8 L400,0 L392,8 L384,0 L392,-8 Z M408,-8 L416,0 L408,8 L400,0 L408,-8 Z M424,-8 L432,0 L424,8 L416,0 L424,-8 Z M440,-8 L448,0 L440,8 L432,0 L440,-8 Z M456,-8 L464,0 L456,8 L448,0 L456,-8 Z M472,-8 L480,0 L472,8 L464,0 L472,-8 Z M488,-8 L496,0 L488,8 L480,0 L488,-8 Z M504,-8 L512,0 L504,8 L496,0 L504,-8 Z M520,-8 L528,0 L520,8 L512,0 L520,-8 Z M536,-8 L544,0 L536,8 L528,0 L536,-8 Z M552,-8 L560,0 L552,8 L544,0 L552,-8 Z M568,-8 L576,0 L568,8 L560,0 L568,-8 Z M584,-8 L592,0 L584,8 L576,0 L584,-8 Z M600,-8 L608,0 L600,8 L592,0 L600,-8 Z M616,-8 L624,0 L616,8 L608,0 L616,-8 Z M632,-8 L640,0 L632,8 L624,0 L632,-8 Z M648,-8 L656,0 L648,8 L640,0 L648,-8 Z M664,-8 L672,0 L664,8 L656,0 L664,-8 Z M680,-8 L688,0 L680,8 L672,0 L680,-8 Z M696,-8 L704,0 L696,8 L688,0 L696,-8 Z M712,-8 L720,0 L712,8 L704,0 L712,-8 Z M728,-8 L736,0 L728,8 L720,0 L728,-8 Z M744,-8 L752,0 L744,8 L736,0 L744,-8 Z M760,-8 L768,0 L760,8 L752,0 L760,-8 Z M776,-8 L784,0 L776,8 L768,0 L776,-8 Z M792,-8 L800,0 L792,8 L784,0 L792,-8 Z M808,-8 L816,0 L808,8 L800,0 L808,-8 Z M824,-8 L832,0 L824,8 L816,0 L824,-8 Z M840,-8 L848,0 L840,8 L832,0 L840,-8 Z M856,-8 L864,0 L856,8 L848,0 L856,-8 Z M872,-8 L880,0 L872,8 L864,0 L872,-8 Z M888,-8 L896,0 L888,8 L880,0 L888,-8 Z M904,-8 L912,0 L904,8 L896,0 L904,-8 Z M920,-8 L928,0 L920,8 L912,0 L920,-8 Z M936,-8 L944,0 L936,8 L928,0 L936,-8 Z M952,-8 L960,0 L952,8 L944,0 L952,-8 Z M968,-8 L976,0 L968,8 L960,0 L968,-8 Z M984,-8 L992,0 L984,8 L976,0 L984,-8 Z M1000,-8 L1008,0 L1000,8 L992,0 L1000,-8 Z M1016,-8 L1024,0 L1016,8 L1008,0 L1016,-8 Z M1032,-8 L1040,0 L1032,8 L1024,0 L1032,-8 Z M1048,-8 L1056,0 L1048,8 L1040,0 L1048,-8 Z M1064,-8 L1072,0 L1064,8 L1056,0 L1064,-8 Z M1080,-8 L1088,0 L1080,8 L1072,0 L1080,-8 Z M1096,-8 L1104,0 L1096,8 L1088,0 L1096,-8 Z M1112,-8 L1120,0 L1112,8 L1104,0 L1112,-8 Z M1128,-8 L1136,0 L1128,8 L1120,0 L1128,-8 Z M1144,-8 L1152,0 L1144,8 L1136,0 L1144,-8 Z M1160,-8 L1168,0 L1160,8 L1152,0 L1160,-8 Z M1176,-8 L1184,0 L1176,8 L1168,0 L1176,-8 Z M1192,-8 L1200,0 L1192,8 L1184,0 L1192,-8 Z M1208,-8 L1216,0 L1208,8 L1200,0 L1208,-8 Z M1224,-8 L1232,0 L1224,8 L1216,0 L1224,-8 Z M1240,-8 L1248,0 L1240,8 L1232,0 L1240,-8 Z M1256,-8 L1264,0 L1256,8 L1248,0 L1256,-8 Z M1272,-8 L1280,0 L1272,8 L1264,0 L1272,-8 Z M1288,-8 L1296,0 L1288,8 L1280,0 L1288,-8 Z M1304,-8 L1312,0 L1304,8 L1296,0 L1304,-8 Z M1320,-8 L1328,0 L1320,8 L1312,0 L1320,-8 Z M1336,-8 L1344,0 L1336,8 L1328,0 L1336,-8 Z M1352,-8 L1360,0 L1352,8 L1344,0 L1352,-8 Z M1368,-8 L1376,0 L1368,8 L1360,0 L1368,-8 Z M1384,-8 L1392,0 L1384,8 L1376,0 L1384,-8 Z M1400,-8 L1408,0 L1400,8 L1392,0 L1400,-8 Z M1416,-8 L1424,0 L1416,8 L1408,0 L1416,-8 Z M1432,-8 L1440,0 L1432,8 L1424,0 L1432,-8 Z M1448,-8 L1456,0 L1448,8 L1440,0 L1448,-8 Z M1464,-8 L1472,0 L1464,8 L1456,0 L1464,-8 Z M1480,-8 L1488,0 L1480,8 L1472,0 L1480,-8 Z M1496,-8 L1504,0 L1496,8 L1488,0 L1496,-8 Z M1512,-8 L1520,0 L1512,8 L1504,0 L1512,-8 Z M1528,-8 L1536,0 L1528,8 L1520,0 L1528,-8 Z M1544,-8 L1552,0 L1544,8 L1536,0 L1544,-8 Z" id="Shape" fill="#234BA0" mask="url(#mask-2)"></path>
                            </g>
                        </g>
                    </g>
                </g>
            </g>
        </g>
    </g>
</svg>