<?xml version="1.0" encoding="UTF-8"?>
<svg width="409.217218px" height="7.20011437px" viewBox="0 0 409.217218 7.20011437" version="1.1" xmlns="http://www.w3.org/2000/svg" xmlns:xlink="http://www.w3.org/1999/xlink">
    <title>Group 35</title>
    <g id="Сайт" stroke="none" stroke-width="1" fill="none" fill-rule="evenodd">
        <g id="001-Главная" transform="translate(-1030.782782, -3783.399921)">
            <g id="Group-8" transform="translate(-360.000000, 1478.000000)">
                <g id="FAQ-Section" transform="translate(360.000000, 2227.000000)">
                    <g id="Group-4" transform="translate(-208.000000, 64.000000)">
                        <g id="Group-33-Copy" transform="translate(1158.931288, 0.000000)">
                            <g id="Group-35" transform="translate(79.851494, 14.399921)">
                                <polygon id="Path" fill="#FBB416" points="3.6301027 0 7.2597619 3.60049708 3.6301027 7.20011437 0 3.60049708"></polygon>
                                <path d="M18.149605,0.704250583 L21.0692658,3.6004537 L18.149605,6.49594912 L15.2295874,3.6004537 L18.149605,0.704250583 Z" id="Path-Copy-58" stroke="#ED1846"></path>
                                <path d="M10.8898431,0.704250583 L13.8095039,3.6004537 L10.8898431,6.49594912 L7.96982552,3.6004537 L10.8898431,0.704250583 Z" id="Path-Copy-58" stroke="#ED1846"></path>
                                <path d="M25.4093669,0.704250583 L28.3290277,3.6004537 L25.4093669,6.49594912 L22.4893493,3.6004537 L25.4093669,0.704250583 Z" id="Path-Copy-59" stroke="#ED1846"></path>
                                <path d="M32.6691288,0.704250583 L35.5887896,3.6004537 L32.6691288,6.49594912 L29.7491112,3.6004537 L32.6691288,0.704250583 Z" id="Path-Copy-60" stroke="#ED1846"></path>
                                <path d="M39.9288907,0.704250583 L42.8485515,3.6004537 L39.9288907,6.49594912 L37.0088731,3.6004537 L39.9288907,0.704250583 Z" id="Path-Copy-61" stroke="#ED1846"></path>
                                <path d="M47.1886526,0.704250583 L50.1083134,3.6004537 L47.1886526,6.49594912 L44.268635,3.6004537 L47.1886526,0.704250583 Z" id="Path-Copy-62" stroke="#ED1846"></path>
                                <path d="M54.4484145,0.704250583 L57.3680753,3.6004537 L54.4484145,6.49594912 L51.5283969,3.6004537 L54.4484145,0.704250583 Z" id="Path-Copy-63" stroke="#ED1846"></path>
                                <path d="M61.7081764,0.704250583 L64.6278372,3.6004537 L61.7081764,6.49594912 L58.7881588,3.6004537 L61.7081764,0.704250583 Z" id="Path-Copy-64" stroke="#ED1846"></path>
                                <path d="M68.9679383,0.704250583 L71.8875991,3.6004537 L68.9679383,6.49594912 L66.0479207,3.6004537 L68.9679383,0.704250583 Z" id="Path-Copy-65" stroke="#ED1846"></path>
                                <path d="M76.2277002,0.704250583 L79.147361,3.6004537 L76.2277002,6.49594912 L73.3076826,3.6004537 L76.2277002,0.704250583 Z" id="Path-Copy-66" stroke="#ED1846"></path>
                                <path d="M83.4874621,0.704250583 L86.4071229,3.6004537 L83.4874621,6.49594912 L80.5674445,3.6004537 L83.4874621,0.704250583 Z" id="Path-Copy-67" stroke="#ED1846"></path>
                                <path d="M90.747224,0.704250583 L93.6668848,3.6004537 L90.747224,6.49594912 L87.8272064,3.6004537 L90.747224,0.704250583 Z" id="Path-Copy-68" stroke="#ED1846"></path>
                                <path d="M98.0069859,0.704250583 L100.926647,3.6004537 L98.0069859,6.49594912 L95.0869683,3.6004537 L98.0069859,0.704250583 Z" id="Path-Copy-69" stroke="#ED1846"></path>
                                <path d="M105.266748,0.704250583 L108.186409,3.6004537 L105.266748,6.49594912 L102.34673,3.6004537 L105.266748,0.704250583 Z" id="Path-Copy-70" stroke="#ED1846"></path>
                                <path d="M112.52651,0.704250583 L115.446171,3.6004537 L112.52651,6.49594912 L109.606492,3.6004537 L112.52651,0.704250583 Z" id="Path-Copy-71" stroke="#ED1846"></path>
                                <path d="M119.786272,0.704250583 L122.705932,3.6004537 L119.786272,6.49594912 L116.866254,3.6004537 L119.786272,0.704250583 Z" id="Path-Copy-72" stroke="#ED1846"></path>
                                <path d="M127.046033,0.704250583 L129.965694,3.6004537 L127.046033,6.49594912 L124.126016,3.6004537 L127.046033,0.704250583 Z" id="Path-Copy-73" stroke="#ED1846"></path>
                                <path d="M134.305795,0.704250583 L137.225456,3.6004537 L134.305795,6.49594912 L131.385778,3.6004537 L134.305795,0.704250583 Z" id="Path-Copy-74" stroke="#ED1846"></path>
                                <path d="M141.565557,0.704250583 L144.485218,3.6004537 L141.565557,6.49594912 L138.64554,3.6004537 L141.565557,0.704250583 Z" id="Path-Copy-75" stroke="#ED1846"></path>
                                <path d="M148.825319,0.704250583 L151.74498,3.6004537 L148.825319,6.49594912 L145.905302,3.6004537 L148.825319,0.704250583 Z" id="Path-Copy-76" stroke="#ED1846"></path>
                                <path d="M156.085081,0.704250583 L159.004742,3.6004537 L156.085081,6.49594912 L153.165064,3.6004537 L156.085081,0.704250583 Z" id="Path-Copy-77" stroke="#ED1846"></path>
                                <path d="M163.344843,0.704250583 L166.264504,3.6004537 L163.344843,6.49594912 L160.424825,3.6004537 L163.344843,0.704250583 Z" id="Path-Copy-78" stroke="#ED1846"></path>
                                <path d="M170.604605,0.704250583 L173.524266,3.6004537 L170.604605,6.49594912 L167.684587,3.6004537 L170.604605,0.704250583 Z" id="Path-Copy-79" stroke="#ED1846"></path>
                                <path d="M177.864367,0.704250583 L180.784028,3.6004537 L177.864367,6.49594912 L174.944349,3.6004537 L177.864367,0.704250583 Z" id="Path-Copy-80" stroke="#ED1846"></path>
                                <path d="M185.124129,0.704250583 L188.04379,3.6004537 L185.124129,6.49594912 L182.204111,3.6004537 L185.124129,0.704250583 Z" id="Path-Copy-81" stroke="#ED1846"></path>
                                <path d="M192.383891,0.704250583 L195.303551,3.6004537 L192.383891,6.49594912 L189.463873,3.6004537 L192.383891,0.704250583 Z" id="Path-Copy-82" stroke="#ED1846"></path>
                                <path d="M199.643652,0.704250583 L202.563313,3.6004537 L199.643653,6.49594912 L196.723635,3.6004537 L199.643652,0.704250583 Z" id="Path-Copy-83" stroke="#ED1846"></path>
                                <path d="M206.903414,0.704250583 L209.823075,3.6004537 L206.903414,6.49594912 L203.983397,3.6004537 L206.903414,0.704250583 Z" id="Path-Copy-84" stroke="#ED1846"></path>
                                <path d="M214.163176,0.704250583 L217.082837,3.6004537 L214.163176,6.49594912 L211.243159,3.6004537 L214.163176,0.704250583 Z" id="Path-Copy-85" stroke="#ED1846"></path>
                                <path d="M221.422938,0.704250583 L224.342599,3.6004537 L221.422938,6.49594912 L218.502921,3.6004537 L221.422938,0.704250583 Z" id="Path-Copy-86" stroke="#ED1846"></path>
                                <path d="M228.6827,0.704250583 L231.602361,3.6004537 L228.6827,6.49594912 L225.762683,3.6004537 L228.6827,0.704250583 Z" id="Path-Copy-87" stroke="#ED1846"></path>
                                <path d="M235.942462,0.704250583 L238.862123,3.6004537 L235.942462,6.49594912 L233.022444,3.6004537 L235.942462,0.704250583 Z" id="Path-Copy-88" stroke="#ED1846"></path>
                                <path d="M243.202224,0.704250583 L246.121885,3.6004537 L243.202224,6.49594912 L240.282206,3.6004537 L243.202224,0.704250583 Z" id="Path-Copy-89" stroke="#ED1846"></path>
                                <path d="M250.461986,0.704250583 L253.381647,3.6004537 L250.461986,6.49594912 L247.541968,3.6004537 L250.461986,0.704250583 Z" id="Path-Copy-90" stroke="#ED1846"></path>
                                <path d="M257.721748,0.704250583 L260.641409,3.6004537 L257.721748,6.49594912 L254.80173,3.6004537 L257.721748,0.704250583 Z" id="Path-Copy-91" stroke="#ED1846"></path>
                                <path d="M264.98151,0.704250583 L267.90117,3.6004537 L264.98151,6.49594912 L262.061492,3.6004537 L264.98151,0.704250583 Z" id="Path-Copy-92" stroke="#ED1846"></path>
                                <path d="M272.241272,0.704250583 L275.160932,3.6004537 L272.241272,6.49594912 L269.321254,3.6004537 L272.241272,0.704250583 Z" id="Path-Copy-93" stroke="#ED1846"></path>
                                <path d="M279.501033,0.704250583 L282.420694,3.6004537 L279.501033,6.49594912 L276.581016,3.6004537 L279.501033,0.704250583 Z" id="Path-Copy-94" stroke="#ED1846"></path>
                                <path d="M286.760795,0.704250583 L289.680456,3.6004537 L286.760795,6.49594912 L283.840778,3.6004537 L286.760795,0.704250583 Z" id="Path-Copy-95" stroke="#ED1846"></path>
                                <path d="M294.020557,0.704250583 L296.940218,3.6004537 L294.020557,6.49594912 L291.10054,3.6004537 L294.020557,0.704250583 Z" id="Path-Copy-96" stroke="#ED1846"></path>
                                <path d="M301.280319,0.704250583 L304.19998,3.6004537 L301.280319,6.49594912 L298.360302,3.6004537 L301.280319,0.704250583 Z" id="Path-Copy-97" stroke="#ED1846"></path>
                                <path d="M308.540081,0.704250583 L311.459742,3.6004537 L308.540081,6.49594912 L305.620063,3.6004537 L308.540081,0.704250583 Z" id="Path-Copy-98" stroke="#ED1846"></path>
                                <path d="M315.799843,0.704250583 L318.719504,3.6004537 L315.799843,6.49594912 L312.879825,3.6004537 L315.799843,0.704250583 Z" id="Path-Copy-99" stroke="#ED1846"></path>
                                <path d="M323.059605,0.704250583 L325.979266,3.6004537 L323.059605,6.49594912 L320.139587,3.6004537 L323.059605,0.704250583 Z" id="Path-Copy-100" stroke="#ED1846"></path>
                                <path d="M330.319367,0.704250583 L333.239028,3.6004537 L330.319367,6.49594912 L327.399349,3.6004537 L330.319367,0.704250583 Z" id="Path-Copy-101" stroke="#ED1846"></path>
                                <path d="M337.579129,0.704250583 L340.498789,3.6004537 L337.579129,6.49594912 L334.659111,3.6004537 L337.579129,0.704250583 Z" id="Path-Copy-102" stroke="#ED1846"></path>
                                <path d="M344.838891,0.704250583 L347.758551,3.6004537 L344.838891,6.49594912 L341.918873,3.6004537 L344.838891,0.704250583 Z" id="Path-Copy-103" stroke="#ED1846"></path>
                                <path d="M352.098652,0.704250583 L355.018313,3.6004537 L352.098652,6.49594912 L349.178635,3.6004537 L352.098652,0.704250583 Z" id="Path-Copy-104" stroke="#ED1846"></path>
                                <path d="M359.358414,0.704250583 L362.278075,3.6004537 L359.358414,6.49594912 L356.438397,3.6004537 L359.358414,0.704250583 Z" id="Path-Copy-105" stroke="#ED1846"></path>
                                <path d="M366.618176,0.704250583 L369.537837,3.6004537 L366.618176,6.49594912 L363.698159,3.6004537 L366.618176,0.704250583 Z" id="Path-Copy-106" stroke="#ED1846"></path>
                                <path d="M373.877938,0.704250583 L376.797599,3.6004537 L373.877938,6.49594912 L370.957921,3.6004537 L373.877938,0.704250583 Z" id="Path-Copy-107" stroke="#ED1846"></path>
                                <path d="M381.1377,0.704250583 L384.057361,3.6004537 L381.1377,6.49594912 L378.217682,3.6004537 L381.1377,0.704250583 Z" id="Path-Copy-108" stroke="#ED1846"></path>
                                <path d="M388.397462,0.704250583 L391.317123,3.6004537 L388.397462,6.49594912 L385.477444,3.6004537 L388.397462,0.704250583 Z" id="Path-Copy-109" stroke="#ED1846"></path>
                                <path d="M395.657224,0.704250583 L398.576885,3.6004537 L395.657224,6.49594912 L392.737206,3.6004537 L395.657224,0.704250583 Z" id="Path-Copy-110" stroke="#ED1846"></path>
                                <path d="M402.916986,0.704250583 L405.836647,3.6004537 L402.916986,6.49594912 L399.996968,3.6004537 L402.916986,0.704250583 Z" id="Path-Copy-111" stroke="#ED1846"></path>
                                <path d="M410.176748,0.704250583 L413.096408,3.6004537 L410.176748,6.49594912 L407.25673,3.6004537 L410.176748,0.704250583 Z" id="Path-Copy-112" stroke="#ED1846"></path>
                            </g>
                        </g>
                    </g>
                </g>
            </g>
        </g>
    </g>
</svg>