<?xml version="1.0" encoding="UTF-8"?>
<svg width="604px" height="15px" viewBox="0 0 604 15" version="1.1" xmlns="http://www.w3.org/2000/svg" xmlns:xlink="http://www.w3.org/1999/xlink">
    <title>Group 31</title>
    <g id="Сайт" stroke="none" stroke-width="1" fill="none" fill-rule="evenodd">
        <g id="004-Проект" transform="translate(-316.000000, -1694.000000)" fill="#234BA0">
            <g id="Group-13" transform="translate(316.000000, 1582.000000)">
                <g id="Group-31" transform="translate(0.000000, 112.000000)">
                    <rect id="Rectangle" opacity="0.245778402" x="0" y="6" width="276" height="1"></rect>
                    <rect id="Rectangle" opacity="0.245778402" x="328" y="6" width="276" height="1"></rect>
                    <g id="bxs-quote-alt-right" transform="translate(292.000000, 0.000000)" fill-rule="nonzero">
                        <path d="M19.8920869,3.72820787 C19.8751363,3.61899673 19.8671595,3.55988244 19.8671595,3.55988244 L19.841235,3.56589406 C19.4084948,1.52895598 17.6107288,0 15.4550049,0 C12.9772186,0 10.968068,2.01890321 10.968068,4.50871685 C10.968068,6.99853049 12.9772186,9.01743371 15.4550049,9.01743371 C15.6773575,9.01743371 15.8907363,8.98336784 16.103118,8.9523078 C16.0343183,9.1847572 15.9635244,9.42121435 15.8498553,9.63362501 C15.7361863,9.94222163 15.558703,10.2097388 15.3822168,10.4792599 C15.2346464,10.7708236 14.9744041,10.9682052 14.7829614,11.2176875 C14.5825449,11.4601563 14.3093403,11.6214682 14.0929703,11.8228575 C13.8805886,12.0332643 13.6023985,12.1384677 13.3810429,12.2867544 C13.1497164,12.420012 12.9483028,12.5672968 12.7329298,12.6374324 C12.5255336,12.723599 12.344062,12.7977423 12.1954945,12.8598624 C11.8943712,12.9851045 11.7228705,13.057244 11.7228705,13.057244 L12.2054655,15 C12.2054655,15 12.4228326,14.9478993 12.8007324,14.8557211 C12.991178,14.8076281 13.2235016,14.7515196 13.4877323,14.6843898 C13.7579456,14.634293 14.0461067,14.4970276 14.367172,14.3717855 C14.6832517,14.2285084 15.0511806,14.1333244 15.3921878,13.9038808 C15.7351892,13.6854586 16.1310367,13.503106 16.4800207,13.2105404 C16.8180366,12.9089573 17.2258493,12.6474517 17.5269726,12.2647118 C17.8560147,11.9060183 18.1810683,11.52929 18.4333339,11.1004609 C18.7254833,10.6916706 18.9239056,10.2428028 19.133296,9.79894463 C19.3227445,9.3550865 19.4753003,8.901209 19.5999375,8.46035669 C19.8362495,7.57664819 19.9419418,6.73702491 19.9828228,6.01863603 C20.0167241,5.29924521 19.9967821,4.70108877 19.954904,4.26825195 C19.9399476,4.06385679 19.913026,3.86447131 19.8920869,3.72820787 Z M8.92401894,3.72820787 C8.90706829,3.61899673 8.89909152,3.55988244 8.89909152,3.55988244 L8.87316699,3.56589406 C8.44042686,1.52895598 6.64266081,0 4.4869369,0 C2.00915063,0 0,2.01890321 0,4.50871685 C0,6.99853049 2.00915063,9.01743371 4.4869369,9.01743371 C4.70928955,9.01743371 4.92266833,8.98336784 5.13505001,8.9523078 C5.06625031,9.1847572 4.99545641,9.42121435 4.88178735,9.63362501 C4.76811828,9.94222163 4.590635,10.2097388 4.41414881,10.4792599 C4.26657844,10.7708236 4.0063361,10.9682052 3.81489346,11.2176875 C3.61447695,11.4601563 3.34127234,11.6214682 3.12490228,11.8228575 C2.9125206,12.0332643 2.63433051,12.1384677 2.41297495,12.2867544 C2.18164843,12.420012 1.98023482,12.5672968 1.76486185,12.6374324 C1.55746565,12.723599 1.37599398,12.7977423 1.22742652,12.8598624 C0.927300293,12.9831007 0.755799593,13.0552401 0.755799593,13.0552401 L1.23839458,14.9979961 C1.23839458,14.9979961 1.45576175,14.9458954 1.83366155,14.8537172 C2.02410709,14.8056242 2.25643071,14.7495157 2.52066144,14.6823859 C2.79087475,14.6322891 3.07903581,14.4950237 3.40010107,14.3697816 C3.71618085,14.2265046 4.08410968,14.1313206 4.42511688,13.901877 C4.76811828,13.6834547 5.16396582,13.5011021 5.5129498,13.2085365 C5.85096572,12.9069534 6.25877843,12.6454479 6.55990175,12.2627079 C6.88894379,11.9040144 7.21399744,11.5272861 7.466263,11.098457 C7.75841245,10.6896667 7.95683477,10.2407989 8.16622516,9.79694075 C8.3556736,9.35308263 8.50822946,8.89920513 8.63286659,8.45835282 C8.8691786,7.57464431 8.9748709,6.73502104 9.01575188,6.01663216 C9.04965318,5.29724133 9.02971124,4.6990849 8.98783316,4.26624808 C8.97187961,4.06385679 8.94495798,3.86447131 8.92401894,3.72820787 Z" id="Shape"></path>
                    </g>
                </g>
            </g>
        </g>
    </g>
</svg>