<?xml version="1.0" encoding="UTF-8"?>
<svg width="9.33333333px" height="13.3333333px" viewBox="0 0 9.33333333 13.3333333" version="1.1" xmlns="http://www.w3.org/2000/svg" xmlns:xlink="http://www.w3.org/1999/xlink">
    <title>Shape</title>
    <g id="Сайт" stroke="none" stroke-width="1" fill="none" fill-rule="evenodd">
        <g id="001-Главная" transform="translate(-80.000000, -2111.333333)" fill="#ED1846" fill-rule="nonzero">
            <g id="Group-8" transform="translate(-360.000000, 1478.000000)">
                <g id="Group-99" transform="translate(360.000000, 534.000000)">
                    <g id="Group-58-Copy-2" transform="translate(80.000000, 64.000000)">
                        <g id="Group-29" transform="translate(0.000000, 30.000000)">
                            <path d="M4.66666667,5.33333333 C2.08666667,5.33333333 0,7.42 0,10 C0,13.5 4.66666667,18.6666667 4.66666667,18.6666667 C4.66666667,18.6666667 9.33333333,13.5 9.33333333,10 C9.33333333,7.42 7.24666667,5.33333333 4.66666667,5.33333333 Z M4.66666667,11.6666667 C3.74666667,11.6666667 3,10.92 3,10 C3,9.08 3.74666667,8.33333333 4.66666667,8.33333333 C5.58666667,8.33333333 6.33333333,9.08 6.33333333,10 C6.33333333,10.92 5.58666667,11.6666667 4.66666667,11.6666667 Z" id="Shape"></path>
                        </g>
                    </g>
                </g>
            </g>
        </g>
    </g>
</svg>