<?xml version="1.0" encoding="UTF-8"?>
<svg width="278.439828px" height="87px" viewBox="0 0 278.439828 87" version="1.1" xmlns="http://www.w3.org/2000/svg" xmlns:xlink="http://www.w3.org/1999/xlink">
    <title>Logo/Logo Horizontal</title>
    <g id="Сайт" stroke="none" stroke-width="1" fill="none" fill-rule="evenodd">
        <g id="001-Главная" transform="translate(-72.000000, -12.000000)" fill-rule="nonzero">
            <g id="Logo/Logo-Horizontal" transform="translate(72.000000, 12.000000)">
                <g id="Group" transform="translate(-0.000000, 0.000000)">
                    <polygon id="Rectangle" fill="#234BA0" transform="translate(5.440792, 43.472696) rotate(-45.000000) translate(-5.440792, -43.472696) " points="1.59357098 39.6254752 9.28801235 39.6254752 9.28801235 47.3199166 1.59357098 47.3199166"></polygon>
                    <polygon id="Path" fill="#234BA0" points="10.8841312 27.157113 5.44227482 32.5924871 16.3227465 43.4729588 5.44227482 54.3566716 10.8841312 59.7952868 27.2161826 43.4729588"></polygon>
                    <polygon id="Path" fill="#234BA0" points="70.7315869 43.4729588 81.6120585 32.5924871 76.1572376 27.157113 59.8349096 43.479441 76.1572376 59.7952868 81.599094 54.3566716"></polygon>
                    <polygon id="Rectangle" fill="#234BA0" transform="translate(81.612898, 43.473615) rotate(-45.000000) translate(-81.612898, -43.473615) " points="77.7656769 39.6263942 85.4601182 39.6263942 85.4601182 47.3208356 77.7656769 47.3208356"></polygon>
                    <polygon id="Path" fill="#ED1846" points="48.8021049 38.0343435 43.4185888 43.4211007 38.0318317 38.0343435 32.5899753 43.4729588 43.4185888 54.3566716 54.2439613 43.4729588"></polygon>
                    <polygon id="Rectangle" fill="#ED1846" transform="translate(43.643238, 5.440792) rotate(-45.000000) translate(-43.643238, -5.440792) " points="39.7960172 1.59357098 47.4904585 1.59357098 47.4904585 9.28801235 39.7960172 9.28801235"></polygon>
                    <polygon id="Path" fill="#ED1846" points="43.6422268 27.20573 59.9645548 10.8834019 54.5226984 5.44154556 43.6422268 16.3220172 32.7617551 5.44154556 27.3198988 10.8834019"></polygon>
                    <polygon id="Rectangle" fill="#ED1846" transform="translate(43.528677, 81.559208) rotate(-45.000000) translate(-43.528677, -81.559208) " points="39.6814563 77.7119876 47.3758976 77.7119876 47.3758976 85.406429 39.6814563 85.406429"></polygon>
                    <polygon id="Path" fill="#ED1846" points="43.5287872 59.7952868 27.2161826 76.1176148 32.6547979 81.5594712 43.5385106 70.6789996 54.4189823 81.5594712 59.8575975 76.1176148"></polygon>
                    <polygon id="Rectangle" fill="#FBB416" transform="translate(19.045285, 57.075716) rotate(-45.000000) translate(-19.045285, -57.075716) " points="11.3508432 53.2284956 26.7397259 53.2284956 26.7397259 60.922937 11.3508432 60.922937"></polygon>
                    <polygon id="Rectangle" fill="#FBB416" transform="translate(19.046104, 29.870495) rotate(-45.000000) translate(-19.046104, -29.870495) " points="15.1988832 22.1760535 22.8933246 22.1760535 22.8933246 37.5649362 15.1988832 37.5649362"></polygon>
                    <polygon id="Rectangle" fill="#FBB416" transform="translate(68.009877, 57.078108) rotate(-45.000000) translate(-68.009877, -57.078108) " points="64.1626565 49.3836664 71.8570978 49.3836664 71.8570978 64.7725492 64.1626565 64.7725492"></polygon>
                    <polygon id="Rectangle" fill="#FBB416" transform="translate(68.010696, 29.872886) rotate(-45.000000) translate(-68.010696, -29.872886) " points="60.3162551 26.0256656 75.7051378 26.0256656 75.7051378 33.720107 60.3162551 33.720107"></polygon>
                    <polygon id="Rectangle" fill="#FBB416" transform="translate(30.040217, 19.045285) rotate(-45.000000) translate(-30.040217, -19.045285) " points="26.1929968 11.3508432 33.8874381 11.3508432 33.8874381 26.7397259 26.1929968 26.7397259"></polygon>
                    <polygon id="Rectangle" fill="#FBB416" transform="translate(57.244490, 19.043812) rotate(-45.000000) translate(-57.244490, -19.043812) " points="49.5500483 15.1965914 64.938931 15.1965914 64.938931 22.8910327 49.5500483 22.8910327"></polygon>
                    <polygon id="Rectangle" fill="#FBB416" transform="translate(29.924184, 67.956188) rotate(-45.000000) translate(-29.924184, -67.956188) " points="22.2297427 64.1089673 37.6186254 64.1089673 37.6186254 71.8034086 22.2297427 71.8034086"></polygon>
                    <polygon id="Rectangle" fill="#FBB416" transform="translate(57.129406, 67.957007) rotate(-45.000000) translate(-57.129406, -67.957007) " points="53.2821848 60.2625659 60.9766262 60.2625659 60.9766262 75.6514486 53.2821848 75.6514486"></polygon>
                </g>
                <polygon id="Path" fill="#231F20" points="105.197758 25.3777329 103.577193 25.3777329 103.577193 28.5994156 102.85118 28.5994156 102.85118 21.5694058 103.577193 21.5694058 103.577193 24.7230248 105.197758 24.7230248 107.576747 21.5694058 108.380547 21.5694058 105.771438 24.9855563 108.53288 28.5994156 107.677222 28.5994156"></polygon>
                <path d="M117.458951,21.5694058 L114.266438,27.481226 C114.081164,27.8547833 113.807462,28.1774402 113.46912,28.4211535 C113.176074,28.6286489 112.826662,28.7417273 112.467611,28.7452665 C112.170541,28.7381089 111.877708,28.6731573 111.605471,28.5540398 L111.816144,27.9511897 C112.021873,28.036912 112.241588,28.0841507 112.46437,28.0905583 C112.955423,28.0757043 113.395895,27.7845661 113.602006,27.3386163 L113.799715,26.9950565 L110.950763,21.5823703 L111.741598,21.5823703 L114.191892,26.3435895 L116.703767,21.5823703 L117.458951,21.5694058 Z" id="Path" fill="#231F20"></path>
                <path d="M125.503434,21.5694058 L125.503434,28.5994156 L124.77418,28.5994156 L124.77418,22.2143906 L121.377476,22.2143906 L121.296448,24.5642094 C121.283842,25.3505984 121.204692,26.1345091 121.059845,26.9075461 C120.986044,27.3903097 120.790881,27.8464326 120.492648,28.233168 C120.239639,28.525197 119.86749,28.6862232 119.481415,28.6707205 C119.291216,28.6701855 119.101806,28.6462371 118.917459,28.5994156 L118.97904,27.9511897 C119.085315,27.9760561 119.194013,27.9890999 119.303153,27.9900833 C119.584645,27.9968828 119.851846,27.8663051 120.019443,27.6400413 C120.239719,27.3135041 120.382706,26.9410735 120.437548,26.5510218 C120.545678,25.9079305 120.609571,25.2581797 120.628775,24.6063441 L120.72925,21.5920937 L125.503434,21.5694058 Z" id="Path" fill="#231F20"></path>
                <path d="M134.098909,24.6452377 C134.553519,25.0673496 134.791961,25.6729915 134.747135,26.2917315 C134.790367,26.9418059 134.533624,27.5759003 134.050292,28.0127712 C133.469778,28.4400122 132.756708,28.6478473 132.037551,28.5994156 L129.243697,28.5994156 L129.243697,21.5694058 L129.976193,21.5694058 L129.976193,24.0812812 L132.186643,24.0812812 C132.871248,24.0322277 133.550481,24.2325439 134.098909,24.6452377 L134.098909,24.6452377 Z M133.505783,27.5622542 C133.861063,27.2376837 134.048492,26.7685159 134.01464,26.2884903 C134.01464,25.2081138 133.351289,24.6679256 132.024586,24.6679256 L129.985916,24.6679256 L129.985916,27.9900833 L132.024586,27.9900833 C132.55198,28.0327132 133.07726,27.8855888 133.505783,27.5752187 L133.505783,27.5622542 Z" id="Shape" fill="#231F20"></path>
                <polygon id="Path" fill="#231F20" points="141.728528 22.2143906 139.258787 22.2143906 139.258787 28.5994156 138.526292 28.5994156 138.526292 22.2143906 136.05331 22.2143906 136.05331 21.5661647 141.728528 21.5661647"></polygon>
                <path d="M150.664322,21.5694058 L147.462086,27.481226 C147.274807,27.8544246 147.000169,28.1768744 146.661527,28.4211535 C146.369669,28.6285821 146.021303,28.741688 145.663259,28.7452665 C145.366128,28.7386086 145.0732,28.6736359 144.801119,28.5540398 L145.011792,27.9511897 C145.217521,28.036912 145.437236,28.0841507 145.660018,28.0905583 C146.149888,28.0744954 146.588821,27.7835457 146.794413,27.3386163 L146.995363,26.9950565 L144.143169,21.5823703 L144.937246,21.5823703 L147.38754,26.3435895 L149.899415,21.5823703 L150.664322,21.5694058 Z" id="Path" fill="#231F20"></path>
                <path d="M158.313388,22.2143906 C158.801512,22.6715303 159.078498,23.3104241 159.078498,23.9791856 C159.078498,24.6479471 158.801512,25.2868409 158.313388,25.7439806 C157.710371,26.2033169 156.963586,26.433097 156.206653,26.3922065 L154.317075,26.3922065 L154.317075,28.609139 L153.574856,28.609139 L153.574856,21.5694058 L156.213136,21.5694058 C156.967654,21.5277224 157.712316,21.7564072 158.313388,22.2143906 L158.313388,22.2143906 Z M157.781842,25.2707757 C158.159697,24.9497108 158.363919,24.4691882 158.332834,23.9743239 C158.359353,23.4802521 158.155958,23.0016745 157.781842,22.6778721 C157.318719,22.3440448 156.753566,22.1824086 156.183965,22.2208728 L154.317075,22.2208728 L154.317075,25.7342572 L156.183965,25.7342572 C156.754345,25.7708511 157.319573,25.6069006 157.781842,25.2707757 Z" id="Shape" fill="#231F20"></path>
                <polygon id="Path" fill="#231F20" points="168.010847 21.5694058 168.010847 28.5994156 167.278352 28.5994156 167.278352 25.3582862 162.880139 25.3582862 162.880139 28.5994156 162.13792 28.5994156 162.13792 21.5694058 162.880139 21.5694058 162.880139 24.703578 167.278352 24.703578 167.278352 21.5694058"></polygon>
                <path d="M173.067009,28.1942745 C172.517178,27.895682 172.058941,27.4531299 171.741387,26.9140283 C171.105836,25.7782258 171.105836,24.3938368 171.741387,23.2580343 C172.058015,22.7165469 172.516335,22.2716734 173.067009,21.9713059 C173.648095,21.6575632 174.299498,21.4969433 174.959828,21.5045832 C175.616603,21.4940234 176.265062,21.6525107 176.842925,21.9648236 C177.392545,22.2625521 177.849942,22.7053748 178.165306,23.2450697 C178.805125,24.3832193 178.805125,25.7726377 178.165306,26.9107872 C177.853234,27.4571813 177.395391,27.9060476 176.842925,28.207239 C176.265312,28.5205421 175.616872,28.6801408 174.959828,28.6707205 C174.298647,28.6753784 173.647193,28.5113994 173.067009,28.1942745 Z M176.466954,27.6205945 C176.90808,27.3771494 177.272795,27.0158005 177.520321,26.5769508 C178.030021,25.6483487 178.030021,24.5237139 177.520321,23.5951117 C177.273763,23.1555247 176.908808,22.7939387 176.466954,22.551468 C175.524595,22.0461275 174.39182,22.0461275 173.449462,22.551468 C173.004858,22.7936067 172.636676,23.155053 172.386372,23.5951117 C171.868001,24.521472 171.868001,25.6505906 172.386372,26.5769508 C172.63763,27.0162747 173.005575,27.3774888 173.449462,27.6205945 C174.392831,28.1218948 175.523584,28.1218948 176.466954,27.6205945 L176.466954,27.6205945 Z" id="Shape" fill="#231F20"></path>
                <polygon id="Path" fill="#231F20" points="181.445329 24.7554361 184.086849 24.7554361 184.086849 25.3777329 181.455052 25.3777329"></polygon>
                <path d="M104.060121,40.2447938 C103.508911,39.9480868 103.050217,39.5050941 102.734499,38.9645477 C102.095141,37.829741 102.095141,36.4433603 102.734499,35.3085536 C103.04786,34.7620368 103.506768,34.3132263 104.060121,34.0121019 C105.24178,33.39421 106.651137,33.39421 107.832796,34.0121019 C108.382416,34.3098304 108.839813,34.752653 109.155177,35.292348 C109.798837,36.4294889 109.798837,37.8209245 109.155177,38.9580654 C108.840742,39.4984886 108.383114,39.9415353 107.832796,40.2383116 C106.651686,40.8584326 105.241232,40.8584326 104.060121,40.2383116 L104.060121,40.2447938 Z M107.456825,39.6711139 C107.898836,39.4277356 108.264617,39.0664431 108.513433,38.6274702 C109.018914,37.6977906 109.018914,36.5753107 108.513433,35.6456311 C108.26482,35.2056724 107.899063,34.8432815 107.456825,34.5987463 C106.996494,34.3454387 106.478319,34.2158948 105.952941,34.2227753 C105.424517,34.2162725 104.903297,34.3457406 104.439333,34.5987463 C103.995219,34.8430087 103.627298,35.2053212 103.376243,35.6456311 C102.862247,36.5731272 102.862247,37.6999742 103.376243,38.6274702 C103.627501,39.0667941 103.995446,39.4280081 104.439333,39.6711139 C104.903297,39.9241196 105.424517,40.0535877 105.952941,40.0470849 C106.478319,40.0539654 106.996494,39.9244215 107.456825,39.6711139 L107.456825,39.6711139 Z" id="Shape" fill="#231F20"></path>
                <path d="M112.571327,33.6199252 L117.711759,33.6199252 L117.711759,34.2681511 L113.303823,34.2681511 L113.303823,36.5563885 L115.601783,36.5563885 C116.272213,36.5108551 116.938582,36.6911398 117.494603,37.0684869 C117.93695,37.4315801 118.178078,37.9849696 118.142829,38.5561654 C118.175776,39.1569171 117.916165,39.7365142 117.445986,40.1119075 C116.855662,40.5069405 116.151913,40.697112 115.442968,40.6531761 L112.571327,40.6531761 L112.571327,33.6199252 Z M115.433245,40.0568083 C115.949449,40.0924007 116.463608,39.9630097 116.901476,39.6873196 C117.240525,39.4242296 117.427412,39.0104073 117.40061,38.5820944 C117.430366,38.1634636 117.247687,37.7579147 116.914441,37.5027983 C116.469197,37.2342783 115.951909,37.1097671 115.433245,37.1462741 L113.303823,37.1462741 L113.303823,40.0632906 L115.433245,40.0568083 Z" id="Shape" fill="#231F20"></path>
                <path d="M125.72059,34.26491 C126.208714,34.7220497 126.4857,35.3609435 126.4857,36.029705 C126.4857,36.6984664 126.208714,37.3373602 125.72059,37.7944999 C125.117837,38.2543489 124.370858,38.4841884 123.613855,38.4427258 L121.724277,38.4427258 L121.724277,40.6628995 L120.982058,40.6628995 L120.982058,33.6199252 L123.613855,33.6199252 C124.370806,33.5746403 125.118729,33.8036198 125.72059,34.26491 L125.72059,34.26491 Z M125.189044,37.321295 C125.56726,37.0002547 125.772535,36.5200784 125.743277,36.0248433 C125.769493,35.5301428 125.564771,35.0512614 125.189044,34.7283915 C124.72716,34.3945474 124.163008,34.2328696 123.594409,34.2713922 L121.724277,34.2713922 L121.724277,37.7847766 L123.594409,37.7847766 C124.163789,37.8214301 124.728017,37.6574372 125.189044,37.321295 L125.189044,37.321295 Z" id="Shape" fill="#231F20"></path>
                <path d="M133.379378,38.773321 L129.464094,38.773321 L128.6214,40.649935 L127.84677,40.649935 L131.061971,33.6199252 L131.794466,33.6199252 L135.006425,40.649935 L134.225313,40.649935 L133.379378,38.773321 Z M133.110365,38.170471 L131.421736,34.3945551 L129.736349,38.1769532 L133.110365,38.170471 Z" id="Shape" fill="#231F20"></path>
                <path d="M142.042918,37.5967911 C142.305284,37.8968784 142.44628,38.2840404 142.438335,38.6825694 C142.444853,39.0746693 142.30897,39.4558318 142.055882,39.7553833 C141.785861,40.0754557 141.437439,40.3200209 141.04465,40.4651906 C140.604546,40.6313147 140.137571,40.7148208 139.66717,40.7115165 C139.197776,40.709998 138.731647,40.633404 138.286448,40.4846374 C137.840855,40.3383696 137.427245,40.108464 137.067784,39.8072414 L137.336798,39.2756961 C137.649022,39.5382136 138.007305,39.7404346 138.393406,39.8720639 C138.776539,40.0076042 139.179744,40.0777268 139.586141,40.0794962 C139.946383,40.0829002 140.304295,40.0214184 140.64275,39.897993 C140.938964,39.7937283 141.203454,39.6151696 141.410897,39.3794123 C141.600823,39.1577795 141.702371,38.8739055 141.696117,38.5820944 C141.711815,38.2047399 141.528529,37.8467789 141.213188,37.6389257 C140.804886,37.3960541 140.332407,37.2830208 139.858396,37.3148128 L138.351271,37.3148128 L138.351271,36.7152038 L139.819503,36.7152038 C140.230323,36.7371488 140.636943,36.6232495 140.976586,36.3910909 C141.253131,36.1858767 141.409784,35.8567826 141.394692,35.5127448 C141.401863,35.1174543 141.199763,34.7477593 140.863146,34.540406 C140.464161,34.2896415 139.998682,34.1653632 139.527801,34.1838817 C139.184488,34.184838 138.843005,34.233933 138.513328,34.3297325 C138.170458,34.4282084 137.843141,34.5744103 137.540989,34.7640439 L137.291422,34.1514704 C137.975898,33.7389487 138.761056,33.5235912 139.560212,33.5291736 C140.003172,33.5249922 140.442966,33.6041552 140.856664,33.7625349 C141.221302,33.8908431 141.544795,34.1147138 141.793351,34.4107608 C142.24266,34.9912851 142.25716,35.7980362 141.829003,36.394332 C141.607657,36.6750381 141.30204,36.877268 140.957139,36.9712531 C141.37513,37.062245 141.754537,37.2808282 142.042918,37.5967911 L142.042918,37.5967911 Z" id="Path" fill="#231F20"></path>
                <path d="M146.732832,40.2447938 C146.181621,39.9480868 145.722928,39.5050941 145.40721,38.9645477 C144.771659,37.8287452 144.771659,36.4443562 145.40721,35.3085536 C145.72057,34.7620368 146.179479,34.3132263 146.732832,34.0121019 C147.915632,33.39419 149.325948,33.39419 150.508748,34.0121019 C151.056782,34.3108423 151.512884,34.7534971 151.827887,35.292348 C152.471548,36.4294889 152.471548,37.8209245 151.827887,38.9580654 C151.513804,39.4976362 151.057474,39.9405118 150.508748,40.2383116 C149.326495,40.8584486 147.915084,40.8584486 146.732832,40.2383116 L146.732832,40.2447938 Z M150.132777,39.6711139 C150.573903,39.4276688 150.938618,39.0663199 151.186144,38.6274702 C151.695844,37.6988681 151.695844,36.5742333 151.186144,35.6456311 C150.938685,35.2058999 150.574027,34.8434858 150.132777,34.5987463 C149.189408,34.097446 148.058654,34.097446 147.115285,34.5987463 C146.670282,34.8429397 146.301295,35.2051973 146.048954,35.6456311 C145.534957,36.5731272 145.534957,37.6999742 146.048954,38.6274702 C146.301364,39.0670217 146.670408,39.4282134 147.115285,39.6711139 C148.058654,40.1724142 149.189408,40.1724142 150.132777,39.6711139 Z" id="Shape" fill="#231F20"></path>
                <path d="M160.527079,37.6129967 C160.78998,37.933441 160.925051,38.3398098 160.906291,38.7538743 C160.935751,39.3001202 160.693053,39.8255628 160.258065,40.1572833 C159.693143,40.5240653 159.024182,40.696994 158.352281,40.649935 L155.240797,40.649935 L155.240797,33.6199252 L158.157813,33.6199252 C158.777786,33.583477 159.39321,33.7458491 159.914505,34.0834067 C160.337508,34.3929459 160.575311,34.8953811 160.546526,35.418752 C160.558778,35.7756292 160.452815,36.126561 160.245101,36.4170199 C160.029914,36.6982501 159.736901,36.9101209 159.402407,37.0263523 C159.832329,37.0907 160.228295,37.2972411 160.527079,37.6129967 Z M155.989498,36.8027143 L158.138367,36.8027143 C158.579462,36.8327442 159.018413,36.7190265 159.389442,36.4786014 C159.668504,36.232492 159.828372,35.878345 159.828372,35.5062625 C159.828372,35.1341801 159.668504,34.7800331 159.389442,34.5339237 C159.018413,34.2934985 158.579462,34.1797809 158.138367,34.2098108 L155.989498,34.2098108 L155.989498,36.8027143 Z M160.202966,38.7020162 C160.202966,37.8161075 159.596875,37.3742335 158.384692,37.3763864 L156.005703,37.3763864 L156.005703,40.0568083 L158.384692,40.0568083 C159.577428,40.0568083 160.173796,39.6052109 160.173796,38.7020162 L160.202966,38.7020162 Z" id="Shape" fill="#231F20"></path>
                <path d="M168.529428,38.773321 L164.60442,38.773321 L163.761726,40.649935 L162.987096,40.649935 L166.202297,33.6199252 L166.934792,33.6199252 L170.149992,40.649935 L169.36888,40.649935 L168.529428,38.773321 Z M168.257173,38.170471 L166.568544,34.3945551 L164.876675,38.1769532 L168.257173,38.170471 Z" id="Shape" fill="#231F20"></path>
                <polygon id="Path" fill="#231F20" points="176.654939 34.26491 174.185199 34.26491 174.185199 40.649935 173.452703 40.649935 173.452703 34.26491 170.982963 34.26491 170.982963 33.6166841 176.654939 33.6166841"></polygon>
                <polygon id="Path" fill="#231F20" points="184.235941 40.0081914 184.235941 40.6564173 179.264048 40.6564173 179.264048 33.6199252 184.086849 33.6199252 184.086849 34.2681511 180.006267 34.2681511 180.006267 36.7670619 183.642814 36.7670619 183.642814 37.4152878 180.006267 37.4152878 180.006267 40.0276382"></polygon>
                <path d="M193.077742,33.6199252 L193.077742,40.649935 L192.345247,40.649935 L192.345247,34.26491 L188.948543,34.26491 L188.870756,36.6147288 C188.854964,37.4009285 188.77584,38.184577 188.634154,38.9580654 C188.558996,39.4404409 188.363972,39.8962388 188.066956,40.2836874 C187.810977,40.5735357 187.438973,40.7339847 187.052483,40.7212399 C186.862283,40.7207049 186.672873,40.6967565 186.488526,40.649935 L186.550107,40.0017091 C186.656382,40.0265755 186.76508,40.0396192 186.87422,40.0406027 C187.156488,40.0468254 187.424418,39.9164811 187.593751,39.6905607 C187.81243,39.3623106 187.954239,38.9889556 188.008616,38.5983001 C188.118706,37.9554712 188.182612,37.3055825 188.199842,36.6536224 L188.300317,33.639372 L193.077742,33.6199252 Z" id="Path" fill="#231F20"></path>
                <path d="M201.371793,36.6925159 C201.826127,37.1161743 202.064418,37.722626 202.020018,38.3422508 C202.063906,38.9930925 201.805682,39.627894 201.319934,40.0632906 C200.855373,40.4543869 200.184459,40.649935 199.307193,40.649935 L196.516581,40.649935 L196.516581,33.6199252 L197.249076,33.6199252 L197.249076,36.1318005 L199.456285,36.1318005 C200.141323,36.0833755 200.821,36.2823334 201.371793,36.6925159 Z M200.778666,39.6257381 C201.131548,39.2997273 201.317509,38.8312497 201.284282,38.3519742 C201.284282,37.2715977 200.622011,36.7314095 199.29747,36.7314095 L197.258799,36.7314095 L197.258799,40.0568083 L199.29747,40.0568083 C199.826763,40.0939159 200.351943,39.9410735 200.778666,39.6257381 Z" id="Shape" fill="#231F20"></path>
                <polygon id="Path" fill="#231F20" points="210.664111 33.6199252 210.664111 40.649935 209.931615 40.649935 209.931615 37.4088055 205.530162 37.4088055 205.530162 40.649935 204.787943 40.649935 204.787943 33.6199252 205.530162 33.6199252 205.530162 36.7540974 209.928374 36.7540974 209.928374 33.6199252"></polygon>
                <path d="M218.948438,36.6925159 C219.404372,37.1150843 219.642977,37.7223354 219.596664,38.3422508 C219.639895,38.9923253 219.383152,39.6264197 218.899821,40.0632906 C218.319306,40.4905316 217.606236,40.6983667 216.887079,40.649935 L214.093226,40.649935 L214.093226,33.6199252 L214.828962,33.6199252 L214.828962,36.1318005 L217.036171,36.1318005 C217.720215,36.083291 218.398903,36.2822963 218.948438,36.6925159 L218.948438,36.6925159 Z M218.358552,39.6257381 C218.711434,39.2997273 218.897395,38.8312497 218.864168,38.3519742 C218.864168,37.2715977 218.201898,36.7314095 216.877356,36.7314095 L214.838685,36.7314095 L214.838685,40.0568083 L216.877356,40.0568083 C217.406649,40.0939159 217.93183,39.9410735 218.358552,39.6257381 L218.358552,39.6257381 Z M220.821811,33.6199252 L221.554306,33.6199252 L221.554306,40.649935 L220.821811,40.649935 L220.821811,33.6199252 Z" id="Shape" fill="#231F20"></path>
                <path d="M224.996385,33.6199252 L225.732122,33.6199252 L225.732122,39.4539582 L230.230809,33.6199252 L230.901723,33.6199252 L230.901723,40.649935 L230.169228,40.649935 L230.169228,34.8353487 L225.67054,40.649935 L224.996385,40.649935 L224.996385,33.6199252 Z M226.740113,32.7675081 C226.447655,32.5393305 226.281517,32.1853835 226.292837,31.8146161 L226.843829,31.8146161 C226.840979,32.0606069 226.952303,32.2940278 227.145254,32.4466363 C227.620915,32.7530704 228.231818,32.7530704 228.707479,32.4466363 C228.909368,32.299058 229.029559,32.0646851 229.031591,31.8146161 L229.582583,31.8146161 C229.5942,32.1861749 229.426589,32.5406885 229.132066,32.7675081 C228.405179,33.2213666 227.483206,33.2213666 226.756319,32.7675081 L226.740113,32.7675081 Z" id="Shape" fill="#231F20"></path>
                <polygon id="Path" fill="#231F20" points="245.742855 40.0081914 245.742855 42.2964288 245.049253 42.2964288 245.049253 40.649935 238.913795 40.649935 238.913795 33.6199252 239.649532 33.6199252 239.649532 40.0081914 243.895411 40.0081914 243.895411 33.6199252 244.627906 33.6199252 244.627906 40.0081914"></polygon>
                <polygon id="Path" fill="#231F20" points="253.408126 40.0081914 253.408126 40.6564173 248.436234 40.6564173 248.436234 33.6199252 253.255793 33.6199252 253.255793 34.2681511 249.178452 34.2681511 249.178452 36.7670619 252.815 36.7670619 252.815 37.4152878 249.178452 37.4152878 249.178452 40.0276382"></polygon>
                <polygon id="Path" fill="#231F20" points="262.05546 33.6199252 262.05546 40.649935 261.322964 40.649935 261.322964 37.4088055 256.924752 37.4088055 256.924752 40.649935 256.182533 40.649935 256.182533 33.6199252 256.924752 33.6199252 256.924752 36.7540974 261.322964 36.7540974 261.322964 33.6199252"></polygon>
                <polygon id="Path" fill="#231F20" points="270.326822 34.26491 267.857081 34.26491 267.857081 40.649935 267.124586 40.649935 267.124586 34.26491 264.654845 34.26491 264.654845 33.6166841 270.326822 33.6166841"></polygon>
                <path d="M277.677704,34.26491 C278.164079,34.7230214 278.439828,35.361553 278.439828,36.029705 C278.439828,36.6978569 278.164079,37.3363885 277.677704,37.7944999 C277.073692,38.2543194 276.32572,38.4841109 275.567728,38.4427258 L273.67815,38.4427258 L273.67815,40.6628995 L272.935931,40.6628995 L272.935931,33.6199252 L275.567728,33.6199252 C276.325667,33.5747279 277.074578,33.8036576 277.677704,34.26491 L277.677704,34.26491 Z M277.142917,37.321295 C277.521133,37.0002547 277.726408,36.5200784 277.69715,36.0248433 C277.723366,35.5301428 277.518644,35.0512614 277.142917,34.7283915 C276.681155,34.3942974 276.11691,34.2325931 275.548282,34.2713922 L273.67815,34.2713922 L273.67815,37.7847766 L275.548282,37.7847766 C276.117693,37.8217072 276.682013,37.6576874 277.142917,37.321295 L277.142917,37.321295 Z" id="Shape" fill="#231F20"></path>
                <polygon id="Path" fill="#231F20" points="116.233804 62.8095372 116.211116 54.3826006 112.072193 61.3153765 110.62665 61.3153765 106.487727 54.5414159 106.487727 62.8095372 103.431342 62.8095372 103.431342 48.7430353 106.124721 48.7430353 111.388315 57.4940849 116.574122 48.7430353 119.26426 48.7430353 119.283706 62.8095372"></polygon>
                <path d="M126.945736,62.1062121 C125.807832,61.5097552 124.85504,60.6130093 124.190776,59.5133085 C122.869746,57.2040177 122.869746,54.3680016 124.190776,52.0587108 C124.853866,50.9580624 125.806957,50.0610352 126.945736,49.4658072 C129.422843,48.2039127 132.354298,48.2039127 134.831404,49.4658072 C137.169892,50.7119824 138.630819,53.1459262 138.630819,55.795733 C138.630819,58.4455399 137.169892,60.8794837 134.831404,62.1256589 C132.353289,63.3833409 129.423852,63.3833409 126.945736,62.1256589 L126.945736,62.1062121 Z M133.146017,59.7045352 C133.809336,59.3285996 134.354794,58.7752855 134.721206,58.1066584 C135.486042,56.6460644 135.486042,54.903267 134.721206,53.442673 C134.353967,52.7746622 133.808708,52.2215504 133.146017,51.8447962 C131.741786,51.084059 130.048319,51.084059 128.644088,51.8447962 C127.980515,52.2214826 127.434191,52.7745373 127.065658,53.442673 C126.300822,54.903267 126.300822,56.6460644 127.065658,58.1066584 C127.433229,58.7755127 127.979785,59.3288026 128.644088,59.7045352 C130.048319,60.4652723 131.741786,60.4652723 133.146017,59.7045352 L133.146017,59.7045352 Z" id="Shape" fill="#231F20"></path>
                <path d="M154.884273,48.7430353 L154.884273,62.8095372 L151.675554,62.8095372 L151.675554,51.3942792 L146.846271,51.3942792 L146.745796,54.3275014 C146.716111,55.958433 146.554608,57.5842947 146.262868,59.1891956 C146.095994,60.2368288 145.655481,61.221834 144.985863,62.0446307 C144.338824,62.7282779 143.423534,63.0922599 142.483711,63.0396574 C141.937011,63.0266464 141.393465,62.9527242 140.863146,62.8192606 L141.064096,60.0643006 C141.253322,60.1207743 141.450046,60.148097 141.6475,60.1453288 C142.425371,60.1453288 142.965559,59.6861688 143.268064,58.7678488 C143.57057,57.8495287 143.765038,56.412628 143.851468,54.4571466 L144.052418,48.7527587 L154.884273,48.7430353 Z" id="Path" fill="#231F20"></path>
                <path d="M174.33429,60.1550522 L174.33429,65.7265537 L171.32004,65.7265537 L171.32004,62.8095372 L161.398943,62.8095372 L161.398943,65.7265537 L158.384692,65.7265537 L158.40738,60.1582933 L158.968096,60.1582933 C159.81295,60.1323643 160.409318,59.5165497 160.757199,58.3108495 C161.104,57.1051493 161.321156,55.393833 161.405425,53.1444891 L161.567481,48.7462764 L172.379889,48.7462764 L172.379889,60.1582933 L174.33429,60.1550522 Z M163.845996,57.6529002 C163.632081,58.7872955 163.301486,59.6202658 162.873657,60.1550522 L169.164689,60.1550522 L169.164689,51.4040026 L164.315959,51.4040026 L164.254378,53.4523964 C164.217979,54.8604738 164.081508,56.2641812 163.845996,57.6529002 L163.845996,57.6529002 Z" id="Shape" fill="#231F20"></path>
                <path d="M180.554018,62.1062121 C179.416114,61.5097552 178.463321,60.6130093 177.799058,59.5133085 C176.47341,57.2052472 176.47341,54.3667721 177.799058,52.0587108 C178.462147,50.9580624 179.415239,50.0610352 180.554018,49.4658072 C183.031124,48.2039127 185.96258,48.2039127 188.439686,49.4658072 C190.776249,50.713499 192.235456,53.1469099 192.235456,55.795733 C192.235456,58.4445561 190.776249,60.877967 188.439686,62.1256589 C185.96157,63.3833409 183.032134,63.3833409 180.554018,62.1256589 L180.554018,62.1062121 Z M186.751057,59.7045352 C187.415361,59.3288026 187.961917,58.7755127 188.329488,58.1066584 C189.094324,56.6460644 189.094324,54.903267 188.329488,53.442673 C187.960954,52.7745373 187.414631,52.2214826 186.751057,51.8447962 C185.346827,51.084059 183.653359,51.084059 182.249129,51.8447962 C181.587163,52.2224946 181.042134,52.7753741 180.67394,53.442673 C179.909104,54.903267 179.909104,56.6460644 180.67394,58.1066584 C181.041179,58.7746692 181.586437,59.327781 182.249129,59.7045352 C183.653359,60.4652723 185.346827,60.4652723 186.751057,59.7045352 L186.751057,59.7045352 Z" id="Shape" fill="#231F20"></path>
                <path d="M207.857293,56.7194549 C208.323074,57.3296404 208.564568,58.0815886 208.541171,58.848877 C208.59002,59.9976133 208.057729,61.0938664 207.124797,61.7658935 C206.178388,62.461656 204.827917,62.8095372 203.073386,62.8095372 L196.14061,62.8095372 L196.14061,48.7430353 L202.694173,48.7430353 C204.327703,48.7430353 205.600386,49.0574249 206.512224,49.686204 C207.406732,50.2836357 207.924152,51.304956 207.876739,52.3795826 C207.889386,53.0304137 207.707708,53.6702378 207.354918,54.217303 C206.988663,54.7619315 206.481125,55.1966442 205.886686,55.4748612 C206.658453,55.671337 207.34825,56.1069988 207.857293,56.7194549 L207.857293,56.7194549 Z M199.378498,54.5705861 L202.412195,54.5705861 C202.985975,54.6134668 203.557323,54.4603458 204.03276,54.1362747 C204.381619,53.8057512 204.579223,53.3463227 204.579223,52.865752 C204.579223,52.3851813 204.381619,51.9257527 204.03276,51.5952292 C203.565463,51.2714952 203.002068,51.1160757 202.434883,51.1544356 L199.401186,51.1544356 L199.378498,54.5705861 Z M205.244942,58.5895866 C205.244942,57.42278 204.481116,56.8393767 202.953464,56.8393767 L199.388221,56.8393767 L199.388221,60.4046191 L202.953464,60.4046191 C204.478955,60.4002976 205.242782,59.7974476 205.244942,58.5960689 L205.244942,58.5895866 Z" id="Shape" fill="#231F20"></path>
                <path d="M223.327204,54.5090046 C224.243363,55.2739112 224.701442,56.4061458 224.701442,57.9057083 C224.701442,59.500344 224.195826,60.7157676 223.184594,61.551979 C222.173361,62.3881904 220.750506,62.8073765 218.916026,62.8095372 L212.566654,62.8095372 L212.566654,48.7430353 L215.807783,48.7430353 L215.807783,53.3648859 L219.373026,53.3648859 C221.090824,53.3648859 222.408884,53.7462588 223.327204,54.5090046 Z M220.711612,59.7725989 C221.208618,59.3072751 221.47038,58.6433503 221.424661,57.9640487 C221.424661,56.5055404 220.526868,55.7762863 218.731282,55.7762863 L215.814265,55.7762863 L215.814265,60.3981369 L218.731282,60.3981369 C219.445779,60.4396252 220.150593,60.2169914 220.711612,59.7725989 L220.711612,59.7725989 Z M226.487305,48.7527587 L229.728434,48.7527587 L229.728434,62.8095372 L226.487305,62.8095372 L226.487305,48.7527587 Z" id="Shape" fill="#231F20"></path>
            </g>
        </g>
    </g>
</svg>