<?xml version="1.0" encoding="UTF-8"?>
<svg width="306.009625px" height="96px" viewBox="0 0 306.009625 96" version="1.1" xmlns="http://www.w3.org/2000/svg" xmlns:xlink="http://www.w3.org/1999/xlink">
    <title>bw-logo</title>
    <g id="Сайт" stroke="none" stroke-width="1" fill="none" fill-rule="evenodd">
        <g id="001-Главная" transform="translate(-79.990375, -4791.000000)" fill="#FFFFFF" fill-rule="nonzero">
            <g id="Group-8" transform="translate(-360.000000, 1478.000000)">
                <g id="Footer" transform="translate(360.000000, 3249.000000)">
                    <g id="bw-logo" transform="translate(79.990375, 64.000000)">
                        <polygon id="Rectangle" transform="translate(6.522921, 47.972601) rotate(-45.000000) translate(-6.522921, -47.972601) " points="1.91732531 43.3670053 11.1353221 43.3601993 11.1285161 52.5781961 1.91051923 52.5850022"></polygon>
                        <polygon id="Path" points="53.7165298 42.0444239 47.8571297 47.9160502 41.9941676 42.0444239 36.0742143 47.9731255 47.8571297 59.834096 59.640045 47.9731255"></polygon>
                        <path d="M78.1728468,47.9731255 L90.0163151,36.1157223 L77.5815638,23.6625951 L65.1468125,36.1157223 L71.0667657,42.0444239 L71.0667657,42.0444239 L65.1468125,47.9731255 L71.0667657,53.916096 L71.0667657,53.916096 L65.1468125,59.834096 L77.5815638,72.2872232 L90.0163151,59.834096 L78.1728468,47.9731255 Z M66.3329403,36.1157223 L77.5815638,24.8469085 L82.9244819,30.1977223 L71.6758584,41.466536 L66.3329403,36.1157223 Z M77.5815638,71.1029098 L66.3329403,59.834096 L71.6758584,54.4832823 L82.9244819,65.752096 L77.5815638,71.1029098 Z" id="Shape"></path>
                        <polygon id="Rectangle" transform="translate(89.424361, 47.971876) rotate(-45.000000) translate(-89.424361, -47.971876) " points="84.8187659 43.3662804 94.0367627 43.3594743 94.0299567 52.5774711 84.8119598 52.5842772"></polygon>
                        <polygon id="Rectangle" transform="translate(48.101732, 6.522921) rotate(-45.000000) translate(-48.101732, -6.522921) " points="43.4961361 1.91732531 52.714133 1.91051923 52.7073269 11.1285161 43.4893301 11.1353221"></polygon>
                        <polygon id="Rectangle" transform="translate(47.974003, 89.477079) rotate(-45.000000) translate(-47.974003, -89.477079) " points="43.3684075 84.8714839 52.5864044 84.8646779 52.5795983 94.0826747 43.3616015 94.0894808"></polygon>
                        <path d="M30.8025352,59.834096 L24.882582,53.916096 L30.8025352,47.9838272 L24.882582,42.0551255 L30.8025352,36.1264239 L18.3677839,23.6732967 L5.93303255,36.1157223 L17.7765009,47.9731255 L17.7765009,47.9731255 L5.93303255,59.834096 L18.3677839,72.2872232 L30.8025352,59.834096 Z M18.3677839,24.8469085 L29.6199693,36.1157223 L24.2770513,41.466536 L13.0284277,30.1977223 L18.3677839,24.8469085 Z M13.0248658,65.7663648 L24.2734893,54.4975511 L29.6164074,59.8483648 L18.3642219,71.1171786 L13.0248658,65.7663648 Z" id="Shape"></path>
                        <path d="M36.2558736,30.8326855 L42.1793887,24.9039839 L48.0850942,30.8362527 L54.0086093,24.9039839 L54.0086093,24.9039839 L59.9285625,30.8326855 L72.3633139,18.3795583 L66.4433606,12.4508567 L66.4433606,12.4508567 L59.9428103,5.92643115 L48.0850942,17.7874016 L36.2558736,5.92643115 C33.0109413,9.17972591 27.0696164,15.1298308 23.8211222,18.3795583 L36.2558736,30.8326855 Z M59.9428103,29.6483721 L54.5998923,24.2975583 L65.8520777,13.0287446 L71.1949958,18.3795583 L59.9428103,29.6483721 Z M30.3359203,13.0430134 L41.5881058,24.30826 L36.2451877,29.6590737 L24.9965642,18.39026 L30.3359203,13.0430134 Z" id="Shape"></path>
                        <path d="M59.8181422,65.1706409 L53.8946271,71.1029098 L53.8946271,71.1029098 L47.9746738,65.1706409 L42.0547206,71.1029098 L36.1312055,65.1706409 L23.6964542,77.6273353 L36.1312055,90.0804625 L47.9746738,78.219492 L47.9746738,78.219492 C50.9204027,81.169574 56.8795373,87.1375149 59.8181422,90.0804625 L66.3329403,83.5560369 L66.3329403,83.5560369 L72.2528935,77.6273353 L59.8181422,65.1706409 Z M24.882582,77.6273353 L36.1312055,66.3585216 L41.4741235,71.7093353 L30.2219381,82.9781491 L24.882582,77.6273353 Z M65.7380954,82.9781491 L54.4965958,71.6950665 L59.8395139,66.3442527 L71.0881374,77.6130665 L65.7380954,82.9781491 Z" id="Shape"></path>
                        <polygon id="Path" points="115.619579 28.0573968 113.838606 28.0573968 113.838606 31.6032027 113.04073 31.6032027 113.04073 23.865926 113.838606 23.865926 113.838606 27.3368205 115.619579 27.3368205 118.234046 23.865926 119.117409 23.865926 116.250043 27.6257645 119.28482 31.6032027 118.344467 31.6032027"></polygon>
                        <path d="M129.094418,23.865926 L125.585902,30.3725155 C125.382289,30.7836553 125.081495,31.1387737 124.709663,31.4070062 C124.387611,31.635377 124.003613,31.7598318 123.609022,31.7637271 C123.282547,31.7558494 122.960729,31.6843633 122.661545,31.5532618 L122.893071,30.8897609 C123.119164,30.9841074 123.360626,31.0360986 123.60546,31.0431509 C124.143819,31.0254719 124.626198,30.7052506 124.852141,30.2155583 L125.072982,29.8374342 L121.942032,23.8801949 L122.811146,23.8801949 L125.503977,29.1204251 L128.264485,23.8801949 L129.094418,23.865926 Z" id="Path"></path>
                        <path d="M137.935166,23.865926 L137.935166,31.6032027 L137.133729,31.6032027 L137.133729,24.5758007 L133.40081,24.5758007 L133.311761,27.1620273 C133.297907,28.0275324 133.210923,28.8903098 133.051739,29.7411195 C132.970632,30.2724525 132.756152,30.7744644 132.428399,31.2001081 C132.14924,31.5220849 131.738931,31.6993169 131.31351,31.6816813 C131.105674,31.6808365 130.898725,31.6544804 130.697293,31.6032027 L130.761408,30.8897609 C130.87828,30.9166847 130.997688,30.9310349 131.117603,30.9325674 C131.426826,30.9394481 131.720213,30.7958616 131.904793,30.5473088 C132.146872,30.1879197 132.304012,29.7780201 132.364284,29.3487265 C132.483117,28.6409358 132.553333,27.9258157 132.574439,27.208401 L132.684859,23.8908965 L137.935166,23.865926 Z" id="Path"></path>
                        <path d="M147.381445,27.2512075 C147.881054,27.7157868 148.143097,28.3823603 148.093835,29.0633498 C148.141345,29.7788261 147.859189,30.4767148 147.328016,30.9575378 C146.688946,31.4282952 145.903991,31.6570521 145.112486,31.6032027 L142.045651,31.6032027 L142.045651,23.865926 L142.850651,23.865926 L142.850651,26.6305131 L145.279898,26.6305131 C146.032266,26.5765245 146.778732,26.796994 147.381445,27.2512075 Z M146.729609,30.4616958 C147.118734,30.103556 147.324449,29.5878525 147.288835,29.0597826 C147.288835,27.8707128 146.559823,27.276178 145.1018,27.276178 L142.861337,27.276178 L142.861337,30.9325674 L145.1018,30.9325674 C145.681397,30.9794861 146.25867,30.8175601 146.729609,30.4759646 L146.729609,30.4616958 Z" id="Shape"></path>
                        <polygon id="Path" points="155.766265 24.5758007 153.052062 24.5758007 153.052062 31.6032027 152.243501 31.6032027 152.243501 24.5758007 149.529299 24.5758007 149.529299 23.8623588 155.766265 23.8623588"></polygon>
                        <path d="M165.586548,23.865926 L162.067346,30.3725155 C161.86153,30.7832605 161.559707,31.1381509 161.187546,31.4070062 C160.866798,31.6353035 160.48395,31.7597886 160.090467,31.7637271 C159.763924,31.7563995 159.442001,31.68489 159.142989,31.5532618 L159.374516,30.8897609 C159.600609,30.9841074 159.842071,31.0360986 160.086905,31.0431509 C160.625263,31.0254719 161.107643,30.7052506 161.333585,30.2155583 L161.554426,29.8374342 L158.419914,23.8801949 L159.292591,23.8801949 L161.985422,29.1204251 L164.745929,23.8801949 L165.586548,23.865926 Z" id="Path"></path>
                        <path d="M173.992739,24.5758007 C174.527257,25.0800012 174.830301,25.7827735 174.830301,26.518146 C174.830301,27.2535186 174.527257,27.9562909 173.992739,28.4604914 C173.328941,28.9665719 172.506933,29.219482 171.673913,29.1739333 L169.600861,29.1739333 L169.600861,31.6139043 L168.785175,31.6139043 L168.785175,23.865926 L171.684599,23.865926 C172.513763,23.820364 173.332027,24.0720233 173.992739,24.5758007 L173.992739,24.5758007 Z M173.40858,27.9396789 C173.822448,27.5852914 174.046575,27.0571538 174.014111,26.5127952 C174.040032,25.969589 173.817078,25.4442169 173.40858,25.0859116 C172.899616,24.7184989 172.278522,24.5406011 171.652541,24.5829351 L169.600861,24.5829351 L169.600861,28.4497898 L171.652541,28.4497898 C172.279379,28.4900653 172.900555,28.3096202 173.40858,27.9396789 Z" id="Shape"></path>
                        <polygon id="Path" points="184.65008 23.865926 184.65008 31.6032027 183.84508 31.6032027 183.84508 28.0359935 179.01152 28.0359935 179.01152 31.6032027 178.195835 31.6032027 178.195835 23.865926 179.01152 23.865926 179.01152 27.3154173 183.84508 27.3154173 183.84508 23.865926"></polygon>
                        <path d="M190.206715,31.1573016 C189.601707,30.8296985 189.097864,30.3423828 188.749879,29.7482539 C188.05142,28.498182 188.05142,26.974514 188.749879,25.724442 C189.096839,25.1276862 189.600775,24.6378128 190.206715,24.30826 C191.506591,23.6281819 193.056505,23.6281819 194.356381,24.30826 C194.959648,24.6369746 195.462069,25.1241068 195.809655,25.7173076 C196.512806,26.9699627 196.512806,28.499166 195.809655,29.7518211 C195.465654,30.3523816 194.962749,30.8461539 194.356381,31.1787048 C193.057106,31.8612319 191.50599,31.8612319 190.206715,31.1787048 L190.206715,31.1573016 Z M193.943195,30.5259055 C194.427985,30.2579682 194.828802,29.8602651 195.100828,29.3772642 C195.66098,28.3552383 195.66098,27.1174576 195.100828,26.0954318 C194.829865,25.6116192 194.428786,25.2136553 193.943195,24.9467904 C192.90756,24.3906092 191.66266,24.3906092 190.627024,24.9467904 C190.137726,25.2123615 189.732873,25.6103964 189.458706,26.0954318 C188.889026,27.1149902 188.889026,28.3577058 189.458706,29.3772642 C189.733787,29.8615958 190.138412,30.259406 190.627024,30.5259055 C191.663771,31.07764 192.906449,31.07764 193.943195,30.5259055 L193.943195,30.5259055 Z" id="Shape"></path>
                        <polygon id="Path" points="199.414344 27.3724926 202.317329 27.3724926 202.317329 28.0573968 199.425029 28.0573968"></polygon>
                        <path d="M114.369336,44.4201852 C113.763565,44.0936275 113.259468,43.6060667 112.9125,43.0111376 C112.209856,41.7621616 112.209856,40.2363016 112.9125,38.9873257 C113.256878,38.3858255 113.76121,37.8918617 114.369336,37.560442 C115.667959,36.880386 117.216817,36.880386 118.51544,37.560442 C119.119464,37.888124 119.622134,38.3754977 119.968714,38.9694896 C120.676086,40.2210347 120.676086,41.7524581 119.968714,43.0040032 C119.623156,43.5987966 119.12023,44.0864168 118.51544,44.4130508 C117.21742,45.0955602 115.667356,45.0955602 114.369336,44.4130508 L114.369336,44.4201852 Z M118.102254,43.7887892 C118.588017,43.5209253 118.990004,43.1232844 119.263449,42.6401478 C119.818963,41.6169361 119.818963,40.3815271 119.263449,39.3583154 C118.990227,38.8740939 118.588267,38.4752439 118.102254,38.2061069 C117.596359,37.9273148 117.026893,37.7847379 116.449512,37.7923106 C115.868783,37.7851536 115.295971,37.9276471 114.786083,38.2061069 C114.298009,38.4749437 113.893671,38.8737074 113.617765,39.3583154 C113.052892,40.3791239 113.052892,41.6193394 113.617765,42.6401478 C113.893894,43.1236707 114.298259,43.5212253 114.786083,43.7887892 C115.295971,44.067249 115.868783,44.2097424 116.449512,44.2025855 C117.026893,44.2101581 117.596359,44.0675813 118.102254,43.7887892 L118.102254,43.7887892 Z" id="Shape"></path>
                        <path d="M123.723004,37.1288097 L129.37225,37.1288097 L129.37225,37.8422515 L124.528004,37.8422515 L124.528004,40.3607012 L127.053423,40.3607012 C127.790214,40.3105868 128.522542,40.5090094 129.133599,40.9243202 C129.621178,41.3228455 129.886515,41.9326925 129.845988,42.5616692 C129.882197,43.2228607 129.596888,43.8607692 129.08017,44.2739296 C128.431414,44.7087056 127.658007,44.9180096 126.878888,44.8696536 L123.723004,44.8696536 L123.723004,37.1288097 Z M126.868202,44.2132871 C127.436583,44.2519874 128.002623,44.109644 128.485325,43.8066252 C128.856598,43.5163022 129.060595,43.0609705 129.030303,42.5902069 C129.063004,42.129459 128.862243,41.6831091 128.496011,41.4023263 C128.006695,41.1067914 127.438205,40.9697534 126.868202,41.0099333 L124.528004,41.0099333 L124.528004,44.2204215 L126.868202,44.2132871 Z" id="Shape"></path>
                        <path d="M138.173817,37.8386843 C138.710257,38.3418154 139.01466,39.0449863 139.01466,39.7810297 C139.01466,40.5170731 138.710257,41.220244 138.173817,41.7233751 C137.511402,42.2294879 136.690485,42.4824509 135.858552,42.4368169 L133.781938,42.4368169 L133.781938,44.8803552 L132.966253,44.8803552 L132.966253,37.1288097 L135.858552,37.1288097 C136.690428,37.0789688 137.512382,37.3309852 138.173817,37.8386843 L138.173817,37.8386843 Z M137.589658,41.2025626 C138.00531,40.8492233 138.230904,40.3207381 138.19875,39.7756789 C138.227561,39.2312082 138.002575,38.704148 137.589658,38.3487952 C137.082055,37.9813642 136.462061,37.8034205 135.83718,37.8458187 L133.781938,37.8458187 L133.781938,41.7126735 L135.83718,41.7126735 C136.46292,41.7530146 137.082996,41.5725229 137.589658,41.2025626 L137.589658,41.2025626 Z" id="Shape"></path>
                        <path d="M146.590694,42.8006723 L142.287864,42.8006723 L141.361758,44.8660864 L140.510453,44.8660864 L144.043903,37.1288097 L144.848902,37.1288097 L148.37879,44.8660864 L147.520361,44.8660864 L146.590694,42.8006723 Z M146.295052,42.1371714 L144.439279,37.9813727 L142.587067,42.1443058 L146.295052,42.1371714 Z" id="Shape"></path>
                        <path d="M156.111774,41.5057753 C156.40011,41.8360535 156.555062,42.2621666 156.546331,42.7007904 C156.553494,43.1323382 156.404161,43.5518482 156.126021,43.8815366 C155.829273,44.2338105 155.446363,44.5029807 155.014694,44.6627554 C154.531028,44.8455928 154.017831,44.9375001 153.500868,44.9338633 C152.985012,44.932192 152.472744,44.8478922 151.983479,44.6841587 C151.49378,44.5231754 151.039229,44.2701397 150.644187,43.938612 L150.939829,43.3535897 C151.282959,43.6425182 151.676705,43.865084 152.101023,44.0099562 C152.52208,44.1591327 152.965195,44.2363101 153.411819,44.2382576 C153.807718,44.242004 154.201057,44.1743367 154.573013,44.0384938 C154.898548,43.9237394 155.189218,43.7272165 155.417194,43.4677404 C155.625919,43.2238098 155.737519,42.9113762 155.730645,42.5902069 C155.747898,42.1748879 155.54647,41.7809136 155.199916,41.5521491 C154.751199,41.2848428 154.231952,41.1604377 153.711022,41.1954281 L152.054718,41.1954281 L152.054718,40.5319272 L153.668279,40.5319272 C154.119763,40.55608 154.566632,40.4307217 154.939894,40.1752063 C155.243811,39.9493462 155.415971,39.587143 155.399384,39.2084926 C155.407265,38.7734332 155.185161,38.3665444 154.815225,38.1383299 C154.376747,37.8623368 153.865194,37.7255552 153.347704,37.7459369 C152.970409,37.7469894 152.595125,37.8010237 152.232815,37.9064613 C151.856008,38.0148445 151.496291,38.1757553 151.164231,38.3844673 L150.889962,37.7102648 C151.64219,37.2562405 152.505064,37.0192167 153.383323,37.0253606 C153.870128,37.0207586 154.353454,37.1078859 154.808102,37.2821997 C155.208832,37.4234166 155.564345,37.6698102 155.837504,37.9956415 C156.331287,38.6345705 156.347222,39.5224863 155.876685,40.1787735 C155.63343,40.4877206 155.297562,40.7102962 154.918522,40.8137368 C155.378327,40.9148602 155.79534,41.1567112 156.111774,41.5057753 L156.111774,41.5057753 Z" id="Path"></path>
                        <path d="M161.265909,44.4201852 C160.660138,44.0936275 160.156041,43.6060667 159.809073,43.0111376 C159.110614,41.7610656 159.110614,40.2373976 159.809073,38.9873257 C160.153451,38.3858255 160.657783,37.8918617 161.265909,37.560442 C162.565785,36.880364 164.115698,36.880364 165.415575,37.560442 C166.017855,37.8892377 166.519104,38.3764267 166.865287,38.9694896 C167.572658,40.2210347 167.572658,41.7524581 166.865287,43.0040032 C166.520114,43.5978584 166.018615,44.0852904 165.415575,44.4130508 C164.1163,45.0955779 162.565184,45.0955779 161.265909,44.4130508 L161.265909,44.4201852 Z M165.002389,43.7887892 C165.487179,43.5208518 165.887995,43.1231488 166.160021,42.6401478 C166.720174,41.618122 166.720174,40.3803413 166.160021,39.3583154 C165.888069,38.8743443 165.487316,38.4754689 165.002389,38.2061069 C163.965643,37.6543724 162.722965,37.6543724 161.686218,38.2061069 C161.197167,38.4748678 160.791657,38.873571 160.514338,39.3583154 C159.949465,40.3791239 159.949465,41.6193394 160.514338,42.6401478 C160.791733,43.1239212 161.197305,43.5214512 161.686218,43.7887892 C162.722965,44.3405237 163.965643,44.3405237 165.002389,43.7887892 Z" id="Shape"></path>
                        <path d="M176.425548,41.5236114 C176.714471,41.8762946 176.862913,42.3235468 176.842296,42.779269 C176.874672,43.380471 176.60795,43.9587767 176.129907,44.3238706 C175.510167,44.7270397 174.776284,44.9173551 174.039045,44.8660864 L170.616015,44.8660864 L170.616015,37.1288097 L173.821766,37.1288097 C174.503105,37.0886946 175.179446,37.2674024 175.75234,37.6389206 C176.217213,37.9796015 176.478554,38.5325852 176.44692,39.1086108 C176.460384,39.5013922 176.343933,39.8876301 176.115659,40.2073112 C175.879172,40.516835 175.557156,40.7500215 175.189553,40.8779465 C175.66203,40.9487681 176.097189,41.1760886 176.425548,41.5236114 Z M171.438825,40.6318091 L173.800394,40.6318091 C174.285199,40.6653801 174.76776,40.5401797 175.175305,40.2750882 C175.481989,40.0042185 175.657681,39.6144419 175.657681,39.2049254 C175.657681,38.795409 175.481989,38.4056323 175.175305,38.1347627 C174.76776,37.8696712 174.285199,37.7444707 173.800394,37.7780418 L171.438825,37.7780418 L171.438825,40.6318091 Z M176.069354,42.7221937 C176.069354,41.7471565 175.404457,41.260827 174.074664,41.2631964 L171.456634,41.2631964 L171.456634,44.2132871 L174.074664,44.2132871 C175.383085,44.2132871 176.037296,43.7162559 176.037296,42.7221937 L176.069354,42.7221937 Z" id="Shape"></path>
                        <path d="M185.219991,42.8006723 L180.906475,42.8006723 L179.98037,44.8660864 L179.129065,44.8660864 L182.662514,37.1288097 L183.467514,37.1288097 L187.000964,44.8660864 L186.142535,44.8660864 L185.219991,42.8006723 Z M184.920788,42.1371714 L183.065014,37.9813727 L181.205679,42.1443058 L184.920788,42.1371714 Z" id="Shape"></path>
                        <polygon id="Path" points="194.149788 37.8386843 191.435586 37.8386843 191.435586 44.8660864 190.630586 44.8660864 190.630586 37.8386843 187.916384 37.8386843 187.916384 37.1252425 194.149788 37.1252425"></polygon>
                        <polygon id="Path" points="202.481179 44.159779 202.481179 44.8732208 197.017154 44.8732208 197.017154 37.1288097 202.317329 37.1288097 202.317329 37.8422515 197.83284 37.8422515 197.83284 40.5925698 201.829342 40.5925698 201.829342 41.3060116 197.83284 41.3060116 197.83284 44.1811822"></polygon>
                        <path d="M212.198165,37.1288097 L212.198165,44.8660864 L211.393166,44.8660864 L211.393166,37.8386843 L207.660247,37.8386843 L207.571198,40.424911 C207.553843,41.2902077 207.466887,42.1526966 207.311176,43.0040032 C207.228579,43.5349089 207.014251,44.0365632 206.687836,44.4629917 C206.406519,44.7820008 205.997693,44.958592 205.572947,44.944565 C205.363921,44.9439762 205.155763,44.9176184 204.953169,44.8660864 L205.020846,44.1526445 C205.13764,44.1800127 205.257096,44.1943687 205.37704,44.195451 C205.687247,44.2022998 205.981698,44.058842 206.167792,43.8101925 C206.409114,43.4494331 206.565049,43.0382792 206.623721,42.608043 C206.744709,41.9005411 206.81494,41.1852692 206.833876,40.4677175 L206.944296,37.1502129 L212.198165,37.1288097 Z" id="Path"></path>
                        <path d="M221.313184,40.510524 C221.81249,40.9768053 222.074368,41.6442701 222.025573,42.3262334 C222.073805,43.0425542 221.790021,43.7412211 221.256193,44.2204215 C220.745647,44.6508647 220.008324,44.8660864 219.044225,44.8660864 L215.97739,44.8660864 L215.97739,37.1288097 L216.782389,37.1288097 L216.782389,39.8933968 L219.208074,39.8933968 C219.960919,39.8400998 220.707872,40.0590743 221.313184,40.510524 Z M220.661348,43.7388483 C221.049159,43.3800386 221.253527,42.8644289 221.217011,42.3369351 C221.217011,41.1478653 220.489187,40.5533305 219.033539,40.5533305 L216.793075,40.5533305 L216.793075,44.2132871 L219.033539,44.2132871 C219.615223,44.254128 220.192387,44.0859086 220.661348,43.7388483 Z" id="Shape"></path>
                        <polygon id="Path" points="231.525281 37.1288097 231.525281 44.8660864 230.720281 44.8660864 230.720281 41.2988772 225.88316 41.2988772 225.88316 44.8660864 225.067474 44.8660864 225.067474 37.1288097 225.88316 37.1288097 225.88316 40.578301 230.71672 40.578301 230.71672 37.1288097"></polygon>
                        <path d="M240.629613,40.510524 C241.130677,40.9756056 241.392901,41.6439503 241.342003,42.3262334 C241.389513,43.0417098 241.107358,43.7395984 240.576184,44.2204215 C239.938209,44.6906458 239.154557,44.9193906 238.364216,44.8660864 L235.293819,44.8660864 L235.293819,37.1288097 L236.102381,37.1288097 L236.102381,39.8933968 L238.528066,39.8933968 C239.279818,39.8400069 240.025684,40.0590334 240.629613,40.510524 L240.629613,40.510524 Z M239.981339,43.7388483 C240.369151,43.3800386 240.573519,42.8644289 240.537003,42.3369351 C240.537003,41.1478653 239.809179,40.5533305 238.35353,40.5533305 L236.113067,40.5533305 L236.113067,44.2132871 L238.35353,44.2132871 C238.935215,44.254128 239.512379,44.0859086 239.981339,43.7388483 L239.981339,43.7388483 Z M242.688418,37.1288097 L243.493418,37.1288097 L243.493418,44.8660864 L242.688418,44.8660864 L242.688418,37.1288097 Z" id="Shape"></path>
                        <path d="M247.276204,37.1288097 L248.084765,37.1288097 L248.084765,43.5497862 L253.028745,37.1288097 L253.766068,37.1288097 L253.766068,44.8660864 L252.961068,44.8660864 L252.961068,38.4665131 L248.017088,44.8660864 L247.276204,44.8660864 L247.276204,37.1288097 Z M249.19253,36.1906337 C248.871124,35.9394998 248.688541,35.5499434 248.700982,35.1418742 L249.306512,35.1418742 C249.30338,35.4126134 249.425723,35.6695181 249.637773,35.83748 C250.160516,36.1747434 250.831888,36.1747434 251.354631,35.83748 C251.576504,35.6750542 251.708592,35.4171019 251.710826,35.1418742 L252.316356,35.1418742 C252.329122,35.5508144 252.144922,35.9409945 251.821246,36.1906337 C251.022409,36.6901534 250.009177,36.6901534 249.21034,36.1906337 L249.19253,36.1906337 Z" id="Shape"></path>
                        <polygon id="Path" points="270.076216 44.159779 270.076216 46.6782286 269.317522 46.6782286 269.317522 44.8660864 262.574759 44.8660864 262.574759 37.1288097 263.379759 37.1288097 263.379759 44.159779 268.045907 44.159779 268.045907 37.1288097 268.850907 37.1288097 268.850907 44.159779"></polygon>
                        <polygon id="Path" points="278.500217 44.159779 278.500217 44.8732208 273.036193 44.8732208 273.036193 37.1288097 278.332805 37.1288097 278.332805 37.8422515 273.851878 37.8422515 273.851878 40.5925698 277.848381 40.5925698 277.848381 41.3060116 273.851878 41.3060116 273.851878 44.1811822"></polygon>
                        <polygon id="Path" points="288.003487 37.1288097 288.003487 44.8660864 287.198487 44.8660864 287.198487 41.2988772 282.364927 41.2988772 282.364927 44.8660864 281.549242 44.8660864 281.549242 37.1288097 282.364927 37.1288097 282.364927 40.578301 287.198487 40.578301 287.198487 37.1288097"></polygon>
                        <polygon id="Path" points="297.093572 37.8386843 294.379369 37.8386843 294.379369 44.8660864 293.57437 44.8660864 293.57437 37.8386843 290.860167 37.8386843 290.860167 37.1252425 297.093572 37.1252425"></polygon>
                        <path d="M305.172064,37.8386843 C305.706582,38.3428849 306.009625,39.0456571 306.009625,39.7810297 C306.009625,40.5164023 305.706582,41.2191746 305.172064,41.7233751 C304.508265,42.2294556 303.686257,42.4823656 302.853237,42.4368169 L300.780185,42.4368169 L300.780185,44.8803552 L299.960938,44.8803552 L299.960938,37.1288097 L302.853237,37.1288097 C303.686199,37.0790653 304.509239,37.3310268 305.172064,37.8386843 L305.172064,37.8386843 Z M304.584343,41.2025626 C304.999995,40.8492233 305.225589,40.3207381 305.193435,39.7756789 C305.222246,39.2312082 304.99726,38.704148 304.584343,38.3487952 C304.076874,37.981089 303.456778,37.8031162 302.831866,37.8458187 L300.780185,37.8458187 L300.780185,41.7126735 L302.831866,41.7126735 C303.457639,41.7533196 304.077817,41.5727982 304.584343,41.2025626 L304.584343,41.2025626 Z" id="Shape"></path>
                        <polygon id="Path" points="127.748003 69.2550954 127.723069 59.9803516 123.174465 67.610612 121.585837 67.610612 117.037233 60.1551448 117.037233 69.2550954 113.678318 69.2550954 113.678318 53.7734076 116.638295 53.7734076 122.422894 63.4048724 128.122007 53.7734076 131.078421 53.7734076 131.099793 69.2550954"></polygon>
                        <path d="M139.520232,68.481011 C138.269695,67.8245465 137.222592,66.8375818 136.492578,65.6272437 C135.040788,63.0856225 135.040788,59.9642838 136.492578,57.4226626 C137.221302,56.2112815 138.268733,55.2240073 139.520232,54.5688953 C142.242529,53.1800457 145.464148,53.1800457 148.186445,54.5688953 C150.756403,55.9404442 152.361937,58.6192593 152.361937,61.5356548 C152.361937,64.4520503 150.756403,67.1308653 148.186445,68.5024143 C145.463039,69.8866276 142.243638,69.8866276 139.520232,68.5024143 L139.520232,68.481011 Z M146.334234,65.837709 C147.06321,65.4239518 147.662659,64.8149705 148.065339,64.0790749 C148.905881,62.4715352 148.905881,60.5534006 148.065339,58.9458609 C147.661749,58.2106436 147.06252,57.601885 146.334234,57.1872268 C144.791008,56.3499543 142.929917,56.3499543 141.386691,57.1872268 C140.657436,57.6018104 140.057035,58.2105062 139.652024,58.9458609 C138.811482,60.5534006 138.811482,62.4715352 139.652024,64.0790749 C140.055978,64.8152206 140.656633,65.4241752 141.386691,65.837709 C142.929917,66.6749815 144.791008,66.6749815 146.334234,65.837709 L146.334234,65.837709 Z" id="Shape"></path>
                        <path d="M170.224201,53.7734076 L170.224201,69.2550954 L166.697875,69.2550954 L166.697875,56.6913847 L161.390577,56.6913847 L161.280156,59.919709 C161.247532,61.7147235 161.070044,63.5041579 160.749426,65.2705228 C160.566035,66.423555 160.081918,67.5076584 159.34602,68.413234 C158.634935,69.1656609 157.629047,69.5662619 156.596198,69.5083673 C155.995384,69.4940473 155.398037,69.412688 154.815225,69.265797 L155.036066,66.2336692 C155.244022,66.2958246 155.460218,66.3258962 155.677216,66.3228495 C156.532083,66.3228495 157.125741,65.8174948 157.458189,64.8067856 C157.790637,63.7960763 158.004354,62.2146136 158.099339,60.0623974 L158.32018,53.7841093 L170.224201,53.7734076 Z" id="Path"></path>
                        <path d="M191.599435,66.3335511 L191.599435,72.4655837 L188.286826,72.4655837 L188.286826,69.2550954 L177.383711,69.2550954 L177.383711,72.4655837 L174.071102,72.4655837 L174.092474,66.3371183 L174.70869,66.3371183 C175.637171,66.3085806 176.292569,65.6308109 176.674884,64.3038091 C177.0572,62.9768073 177.294663,61.0814301 177.387273,58.6176777 L177.561809,53.7769749 L189.444458,53.7769749 L189.444458,66.3371183 L191.599435,66.3335511 Z M180.07298,63.5796656 C179.835517,64.8281888 179.479323,65.7461507 179.004397,66.3335511 L185.918132,66.3335511 L185.918132,56.7020864 L180.589462,56.7020864 L180.521785,58.9565626 C180.481784,60.5063021 180.331804,62.051232 180.07298,63.5796656 L180.07298,63.5796656 Z" id="Shape"></path>
                        <path d="M198.434809,68.481011 C197.184271,67.8245465 196.137169,66.8375818 195.407155,65.6272437 C193.950291,63.0869756 193.950291,59.9629307 195.407155,57.4226626 C196.135879,56.2112815 197.18331,55.2240073 198.434809,54.5688953 C201.157105,53.1800457 204.378725,53.1800457 207.101022,54.5688953 C209.668865,55.9421134 211.272507,58.620342 211.272507,61.5356548 C211.272507,64.4509675 209.668865,67.1291961 207.101022,68.5024143 C204.377615,69.8866276 201.158215,69.8866276 198.434809,68.5024143 L198.434809,68.481011 Z M205.245248,65.837709 C205.975306,65.4241752 206.575962,64.8152206 206.979916,64.0790749 C207.820457,62.4715352 207.820457,60.5534006 206.979916,58.9458609 C206.574904,58.2105062 205.974504,57.6018104 205.245248,57.1872268 C203.702023,56.3499543 201.840931,56.3499543 200.297706,57.1872268 C199.570217,57.6029242 198.971239,58.2114271 198.566601,58.9458609 C197.726059,60.5534006 197.726059,62.4715352 198.566601,64.0790749 C198.97019,64.8142922 199.56942,65.4230508 200.297706,65.837709 C201.840931,66.6749815 203.702023,66.6749815 205.245248,65.837709 L205.245248,65.837709 Z" id="Shape"></path>
                        <path d="M228.440636,62.5523094 C228.9541,63.2230572 229.219683,64.0512348 229.192207,64.8959658 C229.245892,66.1602727 228.660912,67.3668164 227.635637,68.1064541 C226.595549,68.872215 225.112592,69.2550954 223.186767,69.2550954 L215.564204,69.2550954 L215.564204,53.7734076 L222.766457,53.7734076 C224.561678,53.7734076 225.960335,54.1194269 226.962429,54.8114655 C227.945479,55.4690029 228.514114,56.593075 228.462008,57.7758163 C228.478097,58.4924075 228.278256,59.1972331 227.888535,59.7984239 C227.486464,60.3968733 226.930119,60.8751498 226.278536,61.1825011 C227.125207,61.3998836 227.881817,61.8792371 228.440636,62.5523094 Z M219.122587,60.1872497 L222.456568,60.1872497 C223.087143,60.2344446 223.715044,60.0659185 224.237541,59.7092437 C224.620931,59.3454673 224.838094,58.8398171 224.838094,58.3108977 C224.838094,57.7819783 224.620931,57.2763281 224.237541,56.9125517 C223.72399,56.5562478 223.104828,56.385192 222.481502,56.4274113 L219.147521,56.4274113 L219.122587,60.1872497 Z M225.569713,64.6105891 C225.569713,63.3263938 224.730277,62.6842961 223.051413,62.6842961 L219.133273,62.6842961 L219.133273,66.6082262 L223.051413,66.6082262 C224.732651,66.6034699 225.572083,65.939969 225.569713,64.6177235 L225.569713,64.6105891 Z" id="Shape"></path>
                        <path d="M245.441802,60.1194727 C246.448645,60.9613341 246.952067,62.2074792 246.952067,63.8579079 C246.952067,65.6129749 246.396403,66.9506783 245.285076,67.8710182 C244.173749,68.7913582 242.610055,69.2527173 240.593994,69.2550954 L233.616143,69.2550954 L233.616143,53.7734076 L237.178088,53.7734076 L237.178088,58.8602479 L241.096228,58.8602479 C242.986434,58.8602479 244.434958,59.2799895 245.441802,60.1194727 Z M242.567312,65.9126204 C243.113513,65.4004818 243.401185,64.6697617 243.35094,63.9221177 C243.35094,62.3168736 242.364281,61.5142515 240.390963,61.5142515 L237.185212,61.5142515 L237.185212,66.6010918 L240.390963,66.6010918 C241.176183,66.6467541 241.950762,66.4017219 242.567312,65.9126204 L242.567312,65.9126204 Z M248.914698,53.7841093 L252.476644,53.7841093 L252.476644,69.2550954 L248.914698,69.2550954 L248.914698,53.7841093 Z" id="Shape"></path>
                    </g>
                </g>
            </g>
        </g>
    </g>
</svg>