<?xml version="1.0" encoding="UTF-8"?>
<svg width="352.485806px" height="393.549836px" viewBox="0 0 352.485806 393.549836" version="1.1" xmlns="http://www.w3.org/2000/svg" xmlns:xlink="http://www.w3.org/1999/xlink">
    <title>Logo/Logo Vertical</title>
    <g id="Сайт" stroke="none" stroke-width="1" fill="none" fill-rule="evenodd">
        <g id="100-Вход-в-личный-кабинет" transform="translate(-224.000000, -80.000000)" fill-rule="nonzero">
            <g id="Group-4" transform="translate(144.000000, 80.000000)">
                <g id="Logo/Logo-Vertical" transform="translate(80.000000, 0.000000)">
                    <rect id="Rectangle" fill="#234BA0" transform="translate(58.173067, 134.631195) rotate(-45.000000) translate(-58.173067, -134.631195) " x="46.2580674" y="122.716195" width="23.83" height="23.83"></rect>
                    <polygon id="Path" fill="#234BA0" points="75.0297769 84.0898364 58.1797769 100.939836 91.8797769 134.639836 58.1797769 168.339836 75.0297769 185.189836 125.589777 134.639836"></polygon>
                    <polygon id="Path" fill="#234BA0" points="260.379777 134.639836 294.069777 100.939836 277.219777 84.0898364 226.679777 134.639836 277.219777 185.189836 294.069777 168.339836"></polygon>
                    <rect id="Rectangle" fill="#234BA0" transform="translate(294.069557, 134.644705) rotate(-45.000000) translate(-294.069557, -134.644705) " x="282.154557" y="122.729705" width="23.83" height="23.83"></rect>
                    <polygon id="Path" fill="#ED1846" points="192.469777 117.789836 175.789777 134.469836 159.109777 117.789836 142.259777 134.639836 175.789777 168.339836 209.319777 134.639836"></polygon>
                    <rect id="Rectangle" fill="#ED1846" transform="translate(176.487834, 16.850355) rotate(-45.000000) translate(-176.487834, -16.850355) " x="164.572834" y="4.9353546" width="23.83" height="23.83"></rect>
                    <polygon id="Path" fill="#ED1846" points="176.479777 84.2498364 227.029777 33.6998364 210.179777 16.8498364 176.479777 50.5498364 142.779777 16.8498364 125.929777 33.6998364"></polygon>
                    <rect id="Rectangle" fill="#ED1846" transform="translate(176.119557, 252.581195) rotate(-45.000000) translate(-176.119557, -252.581195) " x="164.204557" y="240.666195" width="23.83" height="23.83"></rect>
                    <polygon id="Path" fill="#ED1846" points="176.129777 185.189836 125.589777 235.739836 142.439777 252.589836 176.139777 218.889836 209.839777 252.589836 226.689777 235.739836"></polygon>
                    <rect id="Rectangle" fill="#FBB416" transform="translate(100.300349, 176.764730) rotate(-45.000000) translate(-100.300349, -176.764730) " x="76.4703492" y="164.84973" width="47.66" height="23.83"></rect>
                    <rect id="Rectangle" fill="#FBB416" transform="translate(100.296603, 92.503913) rotate(-45.000000) translate(-100.296603, -92.503913) " x="88.3816029" y="68.6739127" width="23.83" height="47.66"></rect>
                    <rect id="Rectangle" fill="#FBB416" transform="translate(251.953093, 176.764916) rotate(-45.000000) translate(-251.953093, -176.764916) " x="240.038093" y="152.934916" width="23.83" height="47.66"></rect>
                    <rect id="Rectangle" fill="#FBB416" transform="translate(251.949346, 92.518240) rotate(-45.000000) translate(-251.949346, -92.518240) " x="228.119346" y="80.6032404" width="47.66" height="23.83"></rect>
                    <rect id="Rectangle" fill="#FBB416" transform="translate(134.354298, 58.977636) rotate(-45.000000) translate(-134.354298, -58.977636) " x="122.439298" y="35.1476364" width="23.83" height="47.66"></rect>
                    <rect id="Rectangle" fill="#FBB416" transform="translate(218.608045, 58.976819) rotate(-45.000000) translate(-218.608045, -58.976819) " x="194.778045" y="47.0618191" width="47.66" height="23.83"></rect>
                    <rect id="Rectangle" fill="#FBB416" transform="translate(133.999346, 210.464730) rotate(-45.000000) translate(-133.999346, -210.464730) " x="110.169346" y="198.54973" width="47.66" height="23.83"></rect>
                    <rect id="Rectangle" fill="#FBB416" transform="translate(218.253093, 210.453913) rotate(-45.000000) translate(-218.253093, -210.453913) " x="206.338093" y="186.623913" width="23.83" height="47.66"></rect>
                    <g id="Group" transform="translate(0.000000, 303.894263)" fill="#231F20">
                        <polygon id="Path" points="100.059777 7.69557319 96.8597769 7.69557319 96.8597769 14.1155732 95.4197769 14.1155732 95.4197769 0.115573194 96.8597769 0.115573194 96.8597769 6.39557319 100.059777 6.39557319 104.799777 0.115573194 106.399777 0.115573194 101.199777 6.91557319 106.699777 14.1155732 104.999777 14.1155732"></polygon>
                        <path d="M124.479777,0.115573194 L118.119777,11.9055732 C117.750945,12.6497309 117.204944,13.2918827 116.529777,13.7755732 C115.939739,14.1756481 115.242657,14.3882581 114.529777,14.3855983 C113.937409,14.3701404 113.353511,14.2411396 112.809777,14.0055732 L113.229777,12.8055732 C113.649676,12.9764952 114.096648,13.0713074 114.549777,13.0855732 C115.526375,13.0538737 116.401268,12.4731926 116.809777,11.5855732 L117.209777,10.9055732 L111.589777,0.115573194 L113.169777,0.115573194 L118.049777,9.59557319 L123.049777,0.115573194 L124.479777,0.115573194 Z" id="Path"></path>
                        <path d="M140.589777,0.115573194 L140.589777,14.1155732 L139.129777,14.1155732 L139.129777,1.39557319 L132.369777,1.39557319 L132.209777,6.07557319 C132.18658,7.64279504 132.02934,9.20515903 131.739777,10.7455732 C131.59502,11.7077124 131.205963,12.6166596 130.609777,13.3855732 C130.107883,13.9616057 129.37336,14.2811233 128.609777,14.2555732 C128.232356,14.2513299 127.856629,14.2043641 127.489777,14.1155732 L127.609777,12.7955732 C127.826313,12.8455952 128.047561,12.8724131 128.269777,12.8755732 C128.831502,12.8867939 129.364078,12.626092 129.699777,12.1755732 C130.14299,11.5274436 130.427332,10.7840429 130.529777,10.0055732 C130.75246,8.72008696 130.879475,7.41985244 130.909777,6.11557319 L131.109777,0.115573194 L140.589777,0.115573194 Z" id="Path"></path>
                        <path d="M157.809777,6.23557319 C158.731633,7.06648084 159.215589,8.278219 159.119777,9.51557319 C159.207729,10.8116924 158.695232,12.076345 157.729777,12.9455732 C156.57709,13.7969982 155.159598,14.2116146 153.729777,14.1155732 L148.169777,14.1155732 L148.169777,0.115573194 L149.589777,0.115573194 L149.589777,5.11557319 L153.989777,5.11557319 C155.356916,5.01218984 156.714902,5.41034267 157.809777,6.23557319 L157.809777,6.23557319 Z M156.589777,12.0755732 C157.29295,11.4256632 157.661154,10.4904244 157.589777,9.53557319 C157.589777,7.38890653 156.256444,6.31557319 153.589777,6.31557319 L149.589777,6.31557319 L149.589777,12.9055732 L153.649777,12.9055732 C154.697102,12.9853706 155.738803,12.691285 156.589777,12.0755732 Z" id="Shape"></path>
                        <polygon id="Path" points="173.119777 1.39557319 168.199777 1.39557319 168.199777 14.1155732 166.739777 14.1155732 166.739777 1.39557319 161.819777 1.39557319 161.819777 0.115573194 173.119777 0.115573194"></polygon>
                        <path d="M190.979777,0.115573194 L184.589777,11.9055732 C184.220945,12.6497309 183.674944,13.2918827 182.999777,13.7755732 C182.4092,14.1745188 181.712474,14.3870201 180.999777,14.3855805 C180.407287,14.3711385 179.8232,14.242096 179.279777,14.0055732 L179.699777,12.8055732 C180.119676,12.9764952 180.566648,13.0713074 181.019777,13.0855732 C181.995637,13.0515684 182.86943,12.4716173 183.279777,11.5855732 L183.679777,10.9055732 L177.999777,0.125573194 L179.589777,0.125573194 L184.469777,9.60557319 L189.469777,0.125573194 L190.979777,0.115573194 Z" id="Path"></path>
                        <path d="M206.299777,1.39557319 C207.261184,2.30587981 207.805806,3.57157891 207.805806,4.89557319 C207.805806,6.21956748 207.261184,7.48526658 206.299777,8.39557319 C205.093959,9.3021549 203.605897,9.75211659 202.099777,9.66557319 L198.339777,9.66557319 L198.339777,14.0855732 L196.859777,14.0855732 L196.859777,0.0855731936 L202.099777,0.0855731936 C203.611938,0.00151508132 205.103538,0.466752331 206.299777,1.39557319 Z M205.239777,7.48557319 C205.942501,6.80716503 206.339397,5.8723325 206.339397,4.89557319 C206.339397,3.91881389 205.942501,2.98398136 205.239777,2.30557319 C204.319532,1.63821273 203.193751,1.31605511 202.059777,1.39557319 L198.339777,1.39557319 L198.339777,8.39557319 L202.059777,8.39557319 C203.193211,8.46998812 204.317291,8.14831726 205.239777,7.48557319 Z" id="Shape"></path>
                        <polygon id="Path" points="225.709777 0.115573194 225.709777 14.1155732 224.249777 14.1155732 224.249777 7.65557319 215.489777 7.65557319 215.489777 14.1155732 214.009777 14.1155732 214.009777 0.115573194 215.489777 0.115573194 215.489777 6.35557319 224.249777 6.35557319 224.249777 0.115573194"></polygon>
                        <path d="M235.839777,13.3055732 C234.741132,12.7157413 233.827346,11.8331071 233.199777,10.7555732 C231.933408,8.49412195 231.933408,5.73702444 233.199777,3.47557319 C233.827346,2.3980393 234.741132,1.51540513 235.839777,0.925573194 C238.194549,-0.308524398 241.005005,-0.308524398 243.359777,0.925573194 C244.453815,1.51815256 245.363696,2.40035603 245.989777,3.47557319 C247.26954,5.74064018 247.26954,8.51050621 245.989777,10.7755732 C245.357705,11.8460871 244.449299,12.7268606 243.359777,13.3255732 C241.005005,14.5596708 238.194549,14.5596708 235.839777,13.3255732 L235.839777,13.3055732 Z M242.609777,12.1655732 C243.48584,11.6760261 244.211869,10.9569113 244.709777,10.0855732 C245.723713,8.23537955 245.723713,5.99576684 244.709777,4.14557319 C244.214741,3.27203468 243.488013,2.55222743 242.609777,2.06557319 C240.733674,1.06999667 238.48588,1.06999667 236.609777,2.06557319 C235.723545,2.54842022 234.989415,3.26869845 234.489777,4.14557319 C233.462561,5.99234432 233.462561,8.23880207 234.489777,10.0855732 C234.992332,10.960197 235.72574,11.6797674 236.609777,12.1655732 C238.48588,13.1611497 240.733674,13.1611497 242.609777,12.1655732 L242.609777,12.1655732 Z" id="Shape"></path>
                        <polygon id="Path" points="252.589777 6.45557319 257.829777 6.45557319 257.829777 7.69557319 252.589777 7.69557319"></polygon>
                        <path d="M3.58977693,37.3055732 C2.49113203,36.7157413 1.57734606,35.8331071 0.949776927,34.7555732 C-0.316592309,32.494122 -0.316592309,29.7370244 0.949776927,27.4755732 C1.57442932,26.3906691 2.48848222,25.5008525 3.58977693,24.9055732 C4.74619831,24.2781807 6.04424587,23.9579727 7.35977693,23.9755732 C8.66838979,23.9520167 9.96065001,24.2690512 11.1097769,24.8955732 C12.2038151,25.4881526 13.1136955,26.370356 13.7397769,27.4455732 C15.0195396,29.7106402 15.0195396,32.4805062 13.7397769,34.7455732 C13.1077048,35.8160871 12.199299,36.6968606 11.1097769,37.2955732 C8.75500489,38.5296708 5.94454896,38.5296708 3.58977693,37.2955732 L3.58977693,37.3055732 Z M10.3597769,36.1655732 C11.2358397,35.6760261 11.961869,34.9569113 12.4597769,34.0855732 C13.473713,32.2353796 13.473713,29.9957668 12.4597769,28.1455732 C11.964741,27.2720347 11.2380125,26.5522274 10.3597769,26.0655732 C9.44248382,25.5577469 8.40813026,25.2991585 7.35977693,25.3155732 C6.31185104,25.3028416 5.2784261,25.5611979 4.35977693,26.0655732 C3.47354517,26.5484202 2.73941545,27.2686984 2.23977693,28.1455732 C1.21256093,29.9923443 1.21256093,32.2388021 2.23977693,34.0855732 C2.74233184,34.960197 3.47574016,35.6797674 4.35977693,36.1655732 C5.2784261,36.6699485 6.31185104,36.9283047 7.35977693,36.9155732 C8.41150704,36.9337437 9.4495327,36.6750994 10.3697769,36.1655732 L10.3597769,36.1655732 Z" id="Shape"></path>
                        <path d="M20.6397769,24.1155732 L30.8797769,24.1155732 L30.8797769,25.3755732 L22.0997769,25.3755732 L22.0997769,29.9555732 L26.6797769,29.9555732 C28.0127423,29.8597506 29.3395458,30.2116879 30.4497769,30.9555732 C31.342885,31.6856634 31.8242522,32.8051221 31.7397769,33.9555732 C31.8079789,35.1534344 31.289538,36.3096697 30.3497769,37.0555732 C29.1730798,37.8491405 27.7659782,38.229058 26.3497769,38.1355732 L20.6397769,38.1355732 L20.6397769,24.1155732 Z M26.3397769,36.9355732 C27.3700778,37.0044514 28.3957388,36.7454107 29.2697769,36.1955732 C29.9471812,35.6733408 30.3217307,34.8493319 30.2697769,33.9955732 C30.3228397,33.1556543 29.9463214,32.3461399 29.2697769,31.8455732 C28.3695207,31.2988316 27.3195982,31.0503499 26.2697769,31.1355732 L22.0997769,31.1355732 L22.0997769,36.9055732 L26.3397769,36.9355732 Z" id="Shape"></path>
                        <path d="M46.9197769,25.3955732 C47.8811836,26.3058798 48.4258065,27.5715789 48.4258065,28.8955732 C48.4258065,30.2195675 47.8811836,31.4852666 46.9197769,32.3955732 C45.7139591,33.3021549 44.2258968,33.7521166 42.7197769,33.6655732 L38.9597769,33.6655732 L38.9597769,38.0855732 L37.4797769,38.0855732 L37.4797769,24.0855732 L42.7197769,24.0855732 C44.2319376,24.0015151 45.723538,24.4667523 46.9197769,25.3955732 L46.9197769,25.3955732 Z M45.8597769,31.4855732 C46.562501,30.807165 46.959397,29.8723325 46.959397,28.8955732 C46.959397,27.9188139 46.562501,26.9839814 45.8597769,26.3055732 C44.9395324,25.6382127 43.8137508,25.3160551 42.6797769,25.3955732 L38.9597769,25.3955732 L38.9597769,32.3955732 L42.6797769,32.3955732 C43.8132106,32.4699881 44.9372912,32.1483173 45.8597769,31.4855732 L45.8597769,31.4855732 Z" id="Shape"></path>
                        <path d="M62.2797769,34.3755732 L54.4797769,34.3755732 L52.7997769,38.1155732 L51.2597769,38.1155732 L57.6597769,24.1155732 L59.1197769,24.1155732 L65.5197769,38.1155732 L63.9597769,38.1155732 L62.2797769,34.3755732 Z M61.7397769,33.1755732 L58.3797769,25.6555732 L55.0197769,33.1755732 L61.7397769,33.1755732 Z" id="Shape"></path>
                        <path d="M79.5897769,32.0355732 C80.1159427,32.630267 80.3981008,33.4017373 80.3797769,34.1955732 C80.3911195,34.9769398 80.12141,35.7363848 79.6197769,36.3355732 C79.084891,36.9691267 78.3962134,37.4546445 77.6197769,37.7455732 C76.7442747,38.0757494 75.8154483,38.2418534 74.8797769,38.2355732 C73.9448289,38.235004 73.0161422,38.0830371 72.1297769,37.7855732 C71.2420601,37.4924543 70.4176339,37.0344398 69.6997769,36.4355732 L70.2397769,35.3755732 C70.8632122,35.8942962 71.5744141,36.2973106 72.3397769,36.5655732 C73.1048912,36.8332506 73.9091988,36.9718078 74.7197769,36.9755732 C75.4357531,36.9831225 76.1471957,36.8611609 76.8197769,36.6155732 C77.405381,36.4154385 77.931432,36.0716143 78.3497769,35.6155732 C78.7269696,35.1726165 78.9296359,34.6072842 78.9197769,34.0255732 C78.9440171,33.2657736 78.5633639,32.5501456 77.9197769,32.1455732 C77.1061854,31.6601363 76.1655648,31.4302069 75.2197769,31.4855732 L72.2197769,31.4855732 L72.2197769,30.2855732 L75.1397769,30.2855732 C75.9580873,30.3351348 76.7699331,30.1137223 77.4497769,29.6555732 C78.0005225,29.2467883 78.3116929,28.5907061 78.2797769,27.9055732 C78.3205789,27.0948236 77.9136135,26.3269643 77.2197769,25.9055732 C76.4261277,25.4034888 75.4980646,25.1557727 74.5597769,25.1955732 C73.8827425,25.197062 73.2093511,25.2947037 72.5597769,25.4855732 C71.8742157,25.6796127 71.2206566,25.9727037 70.6197769,26.3555732 L70.1197769,25.1355732 C71.4694934,24.3250606 73.0154102,23.8996741 74.5897769,23.9055732 C75.477777,23.8925863 76.3601374,24.0486962 77.1897769,24.3655732 C77.9223352,24.6258187 78.5692431,25.0824596 79.0597769,25.6855732 C79.5164383,26.2511174 79.7605737,26.958756 79.7497769,27.6855732 C79.7683949,28.3806637 79.5497229,29.0613685 79.1297769,29.6155732 C78.6878852,30.1753394 78.0779574,30.5784526 77.3897769,30.7655732 C78.2416229,30.938619 79.0139162,31.3844428 79.5897769,32.0355732 L79.5897769,32.0355732 Z" id="Path"></path>
                        <path d="M89.0297769,37.3055732 C87.9350955,36.7103248 87.0226218,35.8289582 86.3897769,34.7555732 C85.1234077,32.494122 85.1234077,29.7370244 86.3897769,27.4755732 C87.0226218,26.4021882 87.9350955,25.5208216 89.0297769,24.9255732 C90.1866836,24.2994347 91.4843995,23.9793085 92.7997769,23.9955732 C94.1209828,23.9619568 95.4278672,24.275747 96.5897769,24.9055732 C97.6856764,25.4956134 98.5961761,26.3784172 99.2197769,27.4555732 C100.49954,29.7206402 100.49954,32.4905062 99.2197769,34.7555732 C98.5904639,35.8282569 97.6813826,36.7096855 96.5897769,37.3055732 C94.2350049,38.5396708 91.424549,38.5396708 89.0697769,37.3055732 L89.0297769,37.3055732 Z M95.7997769,36.1655732 C96.6802405,35.6818964 97.407697,34.961368 97.8997769,34.0855732 C98.913713,32.2353796 98.913713,29.9957668 97.8997769,28.1455732 C97.4103005,27.2677982 96.6821956,26.5466276 95.7997769,26.0655732 C94.8824838,25.5577469 93.8481303,25.2991585 92.7997769,25.3155732 C91.7520099,25.3041963 90.7189234,25.5624679 89.7997769,26.0655732 C88.9157402,26.551379 88.1823318,27.2709494 87.6797769,28.1455732 C86.6525609,29.9923443 86.6525609,32.2388021 87.6797769,34.0855732 C88.1851661,34.9580014 88.9178814,35.6768919 89.7997769,36.1655732 C90.7189234,36.6686785 91.7520099,36.9269501 92.7997769,36.9155732 C93.8481303,36.9319878 94.8824838,36.6733995 95.7997769,36.1655732 L95.7997769,36.1655732 Z" id="Shape"></path>
                        <path d="M116.589777,32.0655732 C117.780767,33.6300616 117.548575,35.8512205 116.059777,37.1355732 C114.93753,37.8693241 113.607939,38.2201397 112.269777,38.1355732 L106.069777,38.1355732 L106.069777,24.1355732 L111.889777,24.1355732 C113.124845,24.0596896 114.351665,24.3821681 115.389777,25.0555732 C116.232214,25.6724136 116.706164,26.6729739 116.649777,27.7155732 C116.674464,28.4299922 116.463645,29.1327209 116.049777,29.7155732 C115.620755,30.2751371 115.036452,30.6959743 114.369777,30.9255732 C115.216298,31.0470658 115.997805,31.44838 116.589777,32.0655732 L116.589777,32.0655732 Z M107.529777,30.4555732 L111.809777,30.4555732 C112.689415,30.5116955 113.563425,30.2800302 114.299777,29.7955732 C114.853804,29.3113408 115.171653,28.6113904 115.171653,27.8755732 C115.171653,27.139756 114.853804,26.4398056 114.299777,25.9555732 C113.563425,25.4711162 112.689415,25.2394509 111.809777,25.2955732 L107.529777,25.2955732 L107.529777,30.4555732 Z M115.889777,34.2355732 C115.889777,32.4755732 114.689777,31.5955732 112.269777,31.5955732 L107.529777,31.5955732 L107.529777,36.9055732 L112.269777,36.9055732 C114.689777,36.9055732 115.889777,36.0355732 115.889777,34.2355732 Z" id="Shape"></path>
                        <path d="M132.589777,34.3755732 L124.789777,34.3755732 L123.109777,38.1155732 L121.589777,38.1155732 L127.989777,24.1155732 L129.449777,24.1155732 L135.849777,38.1155732 L134.289777,38.1155732 L132.589777,34.3755732 Z M132.049777,33.1755732 L128.689777,25.6555732 L125.329777,33.1755732 L132.049777,33.1755732 Z" id="Shape"></path>
                        <polygon id="Path" points="148.909777 25.3955732 143.989777 25.3955732 143.989777 38.1155732 142.529777 38.1155732 142.529777 25.3955732 137.589777 25.3955732 137.589777 24.1155732 148.889777 24.1155732"></polygon>
                        <polygon id="Path" points="164.089777 36.8355732 164.089777 38.1155732 154.189777 38.1155732 154.189777 24.1155732 163.789777 24.1155732 163.789777 25.3955732 155.669777 25.3955732 155.669777 30.3955732 162.909777 30.3955732 162.909777 31.6555732 155.669777 31.6555732 155.669777 36.8555732"></polygon>
                        <path d="M181.769777,24.1155732 L181.769777,38.1155732 L180.309777,38.1155732 L180.309777,25.3955732 L173.589777,25.3955732 L173.429777,30.0755732 C173.40658,31.642795 173.24934,33.205159 172.959777,34.7455732 C172.81036,35.7063818 172.421784,36.6142066 171.829777,37.3855732 C171.327883,37.9616057 170.59336,38.2811233 169.829777,38.2555732 C169.452356,38.2513299 169.076629,38.2043641 168.709777,38.1155732 L168.829777,36.7955732 C169.046313,36.8455952 169.267561,36.8724131 169.489777,36.8755732 C170.051502,36.8867939 170.584078,36.626092 170.919777,36.1755732 C171.359391,35.5255638 171.643397,34.7830407 171.749777,34.0055732 C171.967486,32.719419 172.094466,31.4195452 172.129777,30.1155732 L172.329777,24.1155732 L181.769777,24.1155732 Z" id="Path"></path>
                        <path d="M198.379777,30.2355732 C199.29157,31.073457 199.773489,32.2800942 199.689777,33.5155732 C199.777729,34.8116924 199.265232,36.076345 198.299777,36.9455732 C197.146309,37.7954223 195.729406,38.2098663 194.299777,38.1155732 L188.739777,38.1155732 L188.739777,24.1155732 L190.199777,24.1155732 L190.199777,29.1155732 L194.589777,29.1155732 C195.946645,29.0213996 197.292051,29.4189867 198.379777,30.2355732 L198.379777,30.2355732 Z M197.199777,36.0755732 C197.899251,35.4231392 198.266727,34.4897491 198.199777,33.5355732 C198.199777,31.3889065 196.866444,30.3155732 194.199777,30.3155732 L190.189777,30.3155732 L190.189777,36.9055732 L194.249777,36.9055732 C195.300279,36.9860276 196.345345,36.6919921 197.199777,36.0755732 L197.199777,36.0755732 Z" id="Shape"></path>
                        <polygon id="Path" points="216.979777 24.1155732 216.979777 38.1155732 215.519777 38.1155732 215.519777 31.6555732 206.759777 31.6555732 206.759777 38.1155732 205.279777 38.1155732 205.279777 24.1155732 206.759777 24.1155732 206.759777 30.3555732 215.519777 30.3555732 215.519777 24.1155732"></polygon>
                        <path d="M233.589777,30.2355732 C234.50157,31.073457 234.983489,32.2800942 234.899777,33.5155732 C234.983227,34.8109681 234.471495,36.0737302 233.509777,36.9455732 C232.355535,37.7938575 230.939215,38.2081309 229.509777,38.1155732 L223.949777,38.1155732 L223.949777,24.1155732 L225.409777,24.1155732 L225.409777,29.1155732 L229.809777,29.1155732 C231.163085,29.025631 232.503907,29.4229118 233.589777,30.2355732 Z M232.409777,36.0755732 C233.109251,35.4231392 233.476727,34.4897491 233.409777,33.5355732 C233.409777,31.3889065 232.076444,30.3155732 229.409777,30.3155732 L225.389777,30.3155732 L225.389777,36.9055732 L229.449777,36.9055732 C230.500192,36.9851565 231.544964,36.6912035 232.399777,36.0755732 L232.409777,36.0755732 Z M237.319777,24.0755732 L238.779777,24.0755732 L238.779777,38.0755732 L237.319777,38.0755732 L237.319777,24.0755732 Z" id="Shape"></path>
                        <path d="M245.719777,24.1155732 L247.179777,24.1155732 L247.179777,35.7155732 L256.179777,24.1155732 L257.519777,24.1155732 L257.519777,38.1155732 L256.059777,38.1155732 L256.059777,26.5355732 L247.059777,38.1155732 L245.719777,38.1155732 L245.719777,24.1155732 Z M249.189777,22.4155732 C248.60861,21.9591991 248.278375,21.2542034 248.299777,20.5155732 L249.399777,20.5155732 C249.390289,21.0066044 249.612589,21.4734354 249.999777,21.7755732 C250.452584,22.1013401 251.002663,22.263543 251.559777,22.2355732 C252.113133,22.2581555 252.658323,22.0963569 253.109777,21.7755732 C253.495806,21.4715275 253.720716,21.0069607 253.719777,20.5155732 L254.819777,20.5155732 C254.832468,21.2545983 254.499641,21.9572319 253.919777,22.4155732 C252.47364,23.3228809 250.635914,23.3228809 249.189777,22.4155732 L249.189777,22.4155732 Z" id="Shape"></path>
                        <polygon id="Path" points="287.039777 36.8355732 287.039777 41.3955732 285.659777 41.3955732 285.659777 38.1155732 273.439777 38.1155732 273.439777 24.1155732 274.899777 24.1155732 274.899777 36.8355732 283.359777 36.8355732 283.359777 24.1155732 284.819777 24.1155732 284.819777 36.8355732"></polygon>
                        <polygon id="Path" points="302.389777 36.8355732 302.389777 38.1155732 292.489777 38.1155732 292.489777 24.1155732 302.089777 24.1155732 302.089777 25.3955732 293.969777 25.3955732 293.969777 30.3955732 301.209777 30.3955732 301.209777 31.6555732 293.969777 31.6555732 293.969777 36.8555732"></polygon>
                        <polygon id="Path" points="319.699777 24.1155732 319.699777 38.1155732 318.239777 38.1155732 318.239777 31.6555732 309.479777 31.6555732 309.479777 38.1155732 307.999777 38.1155732 307.999777 24.1155732 309.479777 24.1155732 309.479777 30.3555732 318.239777 30.3555732 318.239777 24.1155732"></polygon>
                        <polygon id="Path" points="336.259777 25.3955732 331.339777 25.3955732 331.339777 38.1155732 329.879777 38.1155732 329.879777 25.3955732 324.959777 25.3955732 324.959777 24.1155732 336.259777 24.1155732"></polygon>
                        <path d="M350.979777,25.3955732 C351.941184,26.3058798 352.485806,27.5715789 352.485806,28.8955732 C352.485806,30.2195675 351.941184,31.4852666 350.979777,32.3955732 C349.773959,33.3021549 348.285897,33.7521166 346.779777,33.6655732 L343.019777,33.6655732 L343.019777,38.0855732 L341.589777,38.0855732 L341.589777,24.0855732 L346.829777,24.0855732 C348.32503,24.0136594 349.796792,24.4782396 350.979777,25.3955732 Z M349.919777,31.4855732 C350.622501,30.807165 351.019397,29.8723325 351.019397,28.8955732 C351.019397,27.9188139 350.622501,26.9839814 349.919777,26.3055732 C348.999532,25.6382127 347.873751,25.3160551 346.739777,25.3955732 L343.019777,25.3955732 L343.019777,32.3955732 L346.739777,32.3955732 C347.873211,32.4699881 348.997291,32.1483173 349.919777,31.4855732 L349.919777,31.4855732 Z" id="Shape"></path>
                        <polygon id="Path" points="72.5897769 83.7055732 72.5897769 66.5255732 64.1397769 80.6755732 61.1897769 80.6755732 52.6997769 66.9055732 52.6997769 83.7055732 46.4597769 83.7055732 46.4597769 55.0055732 51.9597769 55.0055732 62.6997769 72.8455732 73.2797769 55.0055732 78.7697769 55.0055732 78.7697769 83.7055732"></polygon>
                        <path d="M94.7097769,82.2755732 C89.9418933,79.7303493 86.9641496,74.7652821 86.9641496,69.3605732 C86.9641496,63.9558643 89.9418933,58.9907971 94.7097769,56.4455732 C99.7643458,53.8718548 105.745208,53.8718548 110.799777,56.4455732 C114.308212,58.381504 116.884638,61.6539766 117.943122,65.5187604 C119.001605,69.3835443 118.452173,73.5121244 116.419777,76.9655732 C115.058449,79.2090857 113.116842,81.0435936 110.799777,82.2755732 C105.745208,84.8492916 99.7643458,84.8492916 94.7097769,82.2755732 L94.7097769,82.2755732 Z M107.359777,77.3755732 C108.711925,76.6049752 109.82593,75.4771316 110.579777,74.1155732 C112.139331,71.1373878 112.139331,67.5837586 110.579777,64.6055732 C109.828871,63.2418168 108.714159,62.1132578 107.359777,61.3455732 C104.494961,59.7859267 101.034593,59.7859267 98.1697769,61.3455732 C96.816155,62.1109142 95.7041062,63.2402845 94.9597769,64.6055732 C93.400223,67.5837586 93.400223,71.1373878 94.9597769,74.1155732 C95.7066857,75.4789456 96.8181108,76.6076826 98.1697769,77.3755732 C101.034593,78.9352197 104.494961,78.9352197 107.359777,77.3755732 L107.359777,77.3755732 Z" id="Shape"></path>
                        <path d="M151.989777,55.0055732 L151.989777,83.7055732 L145.429777,83.7055732 L145.429777,60.4255732 L135.589777,60.4255732 L135.389777,66.4255732 C135.319025,69.746841 134.984641,73.057246 134.389777,76.3255732 C134.051282,78.4626991 133.150495,80.4713515 131.779777,82.1455732 C130.459016,83.5333755 128.591843,84.2656001 126.679777,84.1455732 C125.573048,84.1188023 124.472823,83.9678568 123.399777,83.6955732 L123.809777,78.0855732 C124.196134,78.198477 124.597319,78.2524179 124.999777,78.2455732 C126.579777,78.2455732 127.686444,77.3089065 128.319777,75.4355732 C129.092803,72.5689407 129.492771,69.6145565 129.509777,66.6455732 L129.919777,54.9955732 L151.989777,55.0055732 Z" id="Path"></path>
                        <path d="M191.949777,78.2955732 L191.949777,89.6555732 L185.799777,89.6555732 L185.799777,83.7055732 L165.589777,83.7055732 L165.589777,89.6555732 L159.439777,89.6555732 L159.439777,78.2955732 L160.589777,78.2955732 C162.309777,78.2422399 163.526444,76.9855732 164.239777,74.5255732 C165.096754,71.0764357 165.549795,67.5393542 165.589777,63.9855732 L165.919777,54.9855732 L187.979777,54.9855732 L187.979777,78.2755732 L191.949777,78.2955732 Z M170.549777,73.1955732 C170.307157,75.0327627 169.620707,76.7832111 168.549777,78.2955732 L181.389777,78.2955732 L181.389777,60.4255732 L171.589777,60.4255732 L171.459777,64.6055732 C171.379955,67.4863114 171.089176,70.35733 170.589777,73.1955732 L170.549777,73.1955732 Z" id="Shape"></path>
                        <path d="M204.919777,82.2755732 C202.596807,81.0518328 200.653214,79.2154489 199.299777,76.9655732 C196.593043,72.2568358 196.593043,66.4643106 199.299777,61.7555732 C200.647132,59.5008099 202.592272,57.6629642 204.919777,56.4455732 C209.974346,53.8718548 215.955208,53.8718548 221.009777,56.4455732 C224.511414,58.3883777 227.079264,61.663874 228.130047,65.5280437 C229.18083,69.3922135 228.625348,73.5170366 226.589777,76.9655732 C225.228449,79.2090857 223.286842,81.0435936 220.969777,82.2755732 C215.915208,84.8492916 209.934346,84.8492916 204.879777,82.2755732 L204.919777,82.2755732 Z M217.569777,77.3755732 C218.921443,76.6076826 220.032868,75.4789456 220.779777,74.1155732 C222.339331,71.1373878 222.339331,67.5837586 220.779777,64.6055732 C220.035448,63.2402845 218.923399,62.1109142 217.569777,61.3455732 C214.704961,59.7859267 211.244593,59.7859267 208.379777,61.3455732 C207.025395,62.1132578 205.910683,63.2418168 205.159777,64.6055732 C203.613835,67.5870925 203.613835,71.1340539 205.159777,74.1155732 C205.913624,75.4771316 207.027629,76.6049752 208.379777,77.3755732 C211.244593,78.9352197 214.704961,78.9352197 217.569777,77.3755732 L217.569777,77.3755732 Z" id="Shape"></path>
                        <path d="M260.899777,71.2855732 C261.851444,72.5316014 262.342571,74.0685792 262.289777,75.6355732 C262.379997,77.974194 261.29552,80.2031869 259.399777,81.5755732 C257.479777,82.9955732 254.719777,83.7055732 251.139777,83.7055732 L236.999777,83.7055732 L236.999777,55.0055732 L250.359777,55.0055732 C253.699777,55.0055732 256.289777,55.6555732 258.149777,56.9355732 C259.973277,58.1540387 261.03047,60.2343211 260.939777,62.4255732 C260.966035,63.7575643 260.593408,65.0669814 259.869777,66.1855732 C259.120521,67.2952494 258.08349,68.1801824 256.869777,68.7455732 C258.44511,69.1512844 259.854176,70.0393807 260.899777,71.2855732 L260.899777,71.2855732 Z M243.589777,66.9055732 L249.779777,66.9055732 C250.941009,66.9899386 252.096723,66.6798691 253.059777,66.0255732 C253.767721,65.3500202 254.168279,64.4141215 254.168279,63.4355732 C254.168279,62.4570249 253.767721,61.5211262 253.059777,60.8455732 C252.109079,60.1785109 250.958517,59.8573418 249.799777,59.9355732 L243.589777,59.9355732 L243.589777,66.9055732 Z M255.589777,75.1055732 C255.589777,72.7322399 254.029777,71.5455732 250.909777,71.5455732 L243.589777,71.5455732 L243.589777,78.7955732 L250.879777,78.7955732 C254.019777,78.7889065 255.589777,77.5555732 255.589777,75.0955732 L255.589777,75.1055732 Z" id="Shape"></path>
                        <path d="M292.729777,66.7755732 C294.60311,68.3355732 295.539777,70.6455732 295.539777,73.7055732 C295.539777,76.9555732 294.539777,79.4355732 292.439777,81.1455732 C290.339777,82.8555732 287.439777,83.7055732 283.729777,83.7055732 L270.729777,83.7055732 L270.729777,55.0055732 L277.329777,55.0055732 L277.329777,64.4355732 L284.629777,64.4355732 C288.169777,64.4355732 290.849777,65.2155732 292.729777,66.7755732 Z M287.399777,77.5155732 C288.414347,76.5668385 288.947047,75.2112097 288.849777,73.8255732 C288.849777,70.8455732 287.019777,69.3555732 283.359777,69.3555732 L277.359777,69.3555732 L277.359777,78.7855732 L283.359777,78.7855732 C284.816856,78.8739216 286.255327,78.421729 287.399777,77.5155732 L287.399777,77.5155732 Z M299.189777,55.0055732 L305.789777,55.0055732 L305.789777,83.7055732 L299.189777,83.7055732 L299.189777,55.0055732 Z" id="Shape"></path>
                    </g>
                </g>
            </g>
        </g>
    </g>
</svg>