<?xml version="1.0" encoding="UTF-8"?>
<svg width="47.1880442px" height="14.4003167px" viewBox="0 0 47.1880442 14.4003167" version="1.1" xmlns="http://www.w3.org/2000/svg" xmlns:xlink="http://www.w3.org/1999/xlink">
    <title>Group 90</title>
    <g id="Сайт" stroke="none" stroke-width="1" fill="none" fill-rule="evenodd">
        <g id="001-Главная" transform="translate(-1228.000000, -4276.000000)" stroke="#FFFFFF">
            <g id="Group-8" transform="translate(-360.000000, 1478.000000)">
                <g id="FAQ-Section" transform="translate(360.000000, 2227.000000)">
                    <g id="Group-88" transform="translate(960.000000, 148.000000)">
                        <g id="Group-91" transform="translate(0.000000, 408.000000)">
                            <g id="Group-92" transform="translate(85.000000, 12.000000)">
                                <g id="Group-90" transform="translate(183.000000, 3.000000)">
                                    <path d="M39.9288984,0.704240205 L46.4780355,7.20036746 L39.9288877,13.6961085 L37.0088728,10.8002595 L40.63899,7.200185 L37.0088684,3.60045803 L39.9288984,0.704240205 Z" id="Path"></path>
                                    <path d="M3.63008119,4.50429017 L6.54974202,7.40049329 L3.6300812,10.2959887 L0.710063615,7.40049329 L3.63008119,4.50429017 Z" id="Path-Copy-60"></path>
                                    <path d="M10.8898431,4.50429017 L13.8095039,7.40049329 L10.8898431,10.2959887 L7.96982552,7.40049329 L10.8898431,4.50429017 Z" id="Path-Copy-61"></path>
                                    <path d="M18.149605,4.50429017 L21.0692658,7.40049329 L18.149605,10.2959887 L15.2295874,7.40049329 L18.149605,4.50429017 Z" id="Path-Copy-62"></path>
                                    <path d="M25.4093669,4.50429017 L28.3290277,7.40049329 L25.4093669,10.2959887 L22.4893493,7.40049329 L25.4093669,4.50429017 Z" id="Path-Copy-63"></path>
                                    <path d="M32.6691288,4.50429017 L35.5887896,7.40049329 L32.6691288,10.2959887 L29.7491112,7.40049329 L32.6691288,4.50429017 Z" id="Path-Copy-64"></path>
                                </g>
                            </g>
                        </g>
                    </g>
                </g>
            </g>
        </g>
    </g>
</svg>