<?xml version="1.0" encoding="UTF-8"?>
<svg width="9.59998053px" height="16px" viewBox="0 0 9.59998053 16" version="1.1" xmlns="http://www.w3.org/2000/svg" xmlns:xlink="http://www.w3.org/1999/xlink">
    <title>Shape</title>
    <g id="Сайт" stroke="none" stroke-width="1" fill="none" fill-rule="evenodd">
        <g id="001-Главная" transform="translate(-757.000000, -5071.000000)" fill="#FFFFFF" fill-rule="nonzero">
            <g id="Group-8" transform="translate(-360.000000, 1478.000000)">
                <g id="Footer" transform="translate(360.000000, 3249.000000)">
                    <g id="Group-116" transform="translate(480.000000, 336.000000)">
                        <g id="Group-115" transform="translate(265.000000, 0.000000)">
                            <g id="Group-112" transform="translate(12.000000, 8.000000)">
                                <path d="M4.78911379,0 C7.14849065,0 9.06639609,1.85207157 9.06639609,4.12905488 C9.06639609,6.40529707 7.14849065,8.25687456 4.78911379,8.25687456 C2.43024873,8.25687456 0.511831447,6.40529707 0.511831447,4.12905488 C0.511831447,1.85207157 2.43024873,0 4.78911379,0 Z M4.78911379,2.41977339 C3.81326995,2.41977339 3.01810953,3.18634379 3.01810953,4.12905488 C3.01810953,5.07102485 3.81326995,5.83808933 4.78911379,5.83808933 C5.76572537,5.83808933 6.56011801,5.07102485 6.56011801,4.12905488 C6.56011801,3.18634379 5.76572537,2.41977339 4.78911379,2.41977339 Z M6.53062206,11.6268679 C7.40128046,11.4354106 8.24097193,11.1028925 9.0143787,10.6340074 C9.59968025,10.2777732 9.77601289,9.53096619 9.4072243,8.96598181 C9.03869161,8.39976224 8.26554078,8.22930347 7.67921555,8.5855376 C5.92714979,9.64905211 3.6714227,9.64880507 1.92038067,8.5855376 C1.33405545,8.22930347 0.560648673,8.39976224 0.192883767,8.96598181 C-0.17590482,9.53146027 -3.80992924e-06,10.2777732 0.585217527,10.6340074 C1.3586243,11.1023984 2.19831571,11.4354106 3.06897417,11.6268679 L0.677606593,13.9352255 C0.188788993,14.4075692 0.188788993,15.1733985 0.678118487,15.6457422 C0.923039127,15.881667 1.24345779,15.999753 1.56387651,15.999753 C1.88480702,15.999753 2.20573758,15.881667 2.45065822,15.6457422 L4.79954217,13.3774054 L7.15047353,15.6457422 C7.63929118,16.1180859 8.43240419,16.1180859 8.92173369,15.6457422 C9.41157502,15.1733985 9.41157502,14.4070751 8.92173369,13.9352255 L6.53062206,11.6268679 Z" id="Shape"></path>
                            </g>
                        </g>
                    </g>
                </g>
            </g>
        </g>
    </g>
</svg>