<?xml version="1.0" encoding="UTF-8"?>
<svg width="15px" height="15px" viewBox="0 0 15 15" version="1.1" xmlns="http://www.w3.org/2000/svg" xmlns:xlink="http://www.w3.org/1999/xlink">
    <title>Path</title>
    <g id="Сайт" stroke="none" stroke-width="1" fill="none" fill-rule="evenodd">
        <g id="004-Проект" transform="translate(-241.500000, -1794.500000)" fill="#ED1846" fill-rule="nonzero" stroke="#ED1846">
            <g id="Group-25" transform="translate(80.000000, 1582.000000)">
                <g id="Group-12" transform="translate(0.000000, 204.000000)">
                    <g id="Group-111" transform="translate(12.000000, 8.000000)">
                        <path d="M164,12.0568182 C164,12.2357955 163.966856,12.4694602 163.900568,12.7578125 C163.83428,13.0461648 163.764678,13.2732008 163.691761,13.4389205 C163.552557,13.7703598 163.148201,14.1216856 162.478693,14.4928977 C161.855587,14.8309659 161.23911,15 160.629261,15 C160.450284,15 160.276278,14.9883996 160.107244,14.9651989 C159.93821,14.9419981 159.747633,14.9005682 159.535511,14.8409091 C159.32339,14.78125 159.165956,14.7331913 159.06321,14.696733 C158.960464,14.6602746 158.776515,14.5923295 158.511364,14.4928977 C158.246212,14.3934659 158.083807,14.3338068 158.024148,14.3139205 C157.374527,14.0819129 156.794508,13.8068182 156.284091,13.4886364 C155.435606,12.9649621 154.558949,12.2507102 153.654119,11.3458807 C152.74929,10.4410511 152.035038,9.56439394 151.511364,8.71590909 C151.193182,8.20549242 150.918087,7.62547348 150.68608,6.97585227 C150.666193,6.91619318 150.606534,6.75378788 150.507102,6.48863636 C150.40767,6.22348485 150.339725,6.03953598 150.303267,5.93678977 C150.266809,5.83404356 150.21875,5.67660985 150.159091,5.46448864 C150.099432,5.25236742 150.058002,5.06178977 150.034801,4.89275568 C150.0116,4.72372159 150,4.54971591 150,4.37073864 C150,3.76089015 150.169034,3.14441288 150.507102,2.52130682 C150.878314,1.85179924 151.22964,1.44744318 151.56108,1.30823864 C151.726799,1.23532197 151.953835,1.1657197 152.242188,1.09943182 C152.53054,1.03314394 152.764205,1 152.943182,1 C153.035985,1 153.105587,1.00994318 153.151989,1.02982955 C153.271307,1.06960227 153.44697,1.32149621 153.678977,1.78551136 C153.751894,1.91145833 153.851326,2.09043561 153.977273,2.32244318 C154.10322,2.55445076 154.219223,2.76491477 154.325284,2.95383523 C154.431345,3.14275568 154.534091,3.32007576 154.633523,3.48579545 C154.653409,3.51231061 154.711411,3.59517045 154.807528,3.734375 C154.903646,3.87357955 154.974905,3.99124053 155.021307,4.08735795 C155.067708,4.18347538 155.090909,4.27793561 155.090909,4.37073864 C155.090909,4.50331439 154.996449,4.66903409 154.807528,4.86789773 C154.618608,5.06676136 154.413116,5.24905303 154.191051,5.41477273 C153.968987,5.58049242 153.763494,5.7561553 153.574574,5.94176136 C153.385653,6.12736742 153.291193,6.27982955 153.291193,6.39914773 C153.291193,6.45880682 153.307765,6.53338068 153.340909,6.62286932 C153.374053,6.71235795 153.402225,6.78030303 153.425426,6.82670455 C153.448627,6.87310606 153.495028,6.95265152 153.564631,7.06534091 C153.634233,7.1780303 153.672348,7.24100379 153.678977,7.25426136 C154.182765,8.1624053 154.75947,8.94128788 155.409091,9.59090909 C156.058712,10.2405303 156.837595,10.8172348 157.745739,11.3210227 C157.758996,11.3276515 157.82197,11.365767 157.934659,11.4353693 C158.047348,11.5049716 158.126894,11.5513731 158.173295,11.5745739 C158.219697,11.5977746 158.287642,11.625947 158.377131,11.6590909 C158.466619,11.6922348 158.541193,11.7088068 158.600852,11.7088068 C158.72017,11.7088068 158.872633,11.6143466 159.058239,11.4254261 C159.243845,11.2365057 159.419508,11.0310133 159.585227,10.8089489 C159.750947,10.5868845 159.933239,10.381392 160.132102,10.1924716 C160.330966,10.0035511 160.496686,9.90909091 160.629261,9.90909091 C160.722064,9.90909091 160.816525,9.93229167 160.912642,9.97869318 C161.008759,10.0250947 161.12642,10.0963542 161.265625,10.1924716 C161.40483,10.288589 161.487689,10.3465909 161.514205,10.3664773 C161.679924,10.4659091 161.857244,10.5686553 162.046165,10.6747159 C162.235085,10.7807765 162.445549,10.8967803 162.677557,11.0227273 C162.909564,11.1486742 163.088542,11.2481061 163.214489,11.3210227 C163.678504,11.5530303 163.930398,11.7286932 163.97017,11.8480114 C163.990057,11.8944129 164,11.9640152 164,12.0568182 Z" id="Path"></path>
                    </g>
                </g>
            </g>
        </g>
    </g>
</svg>