<?xml version="1.0" encoding="UTF-8"?>
<svg width="15.2500586px" height="15.2492655px" viewBox="0 0 15.2500586 15.2492655" version="1.1" xmlns="http://www.w3.org/2000/svg" xmlns:xlink="http://www.w3.org/1999/xlink">
    <title>phone-call</title>
    <g id="Сайт" stroke="none" stroke-width="1" fill="none" fill-rule="evenodd" stroke-linecap="round" stroke-linejoin="round">
        <g id="009-Сделано-молдованами-в-России" transform="translate(-79.374998, -809.374945)" stroke="#000000" stroke-width="1.25">
            <g id="Group-15" transform="translate(80.000000, 303.000000)">
                <g id="Group-13" transform="translate(0.000000, 316.000000)">
                    <g id="Group-14" transform="translate(0.000000, 28.000000)">
                        <g id="Group-11" transform="translate(0.000000, 112.000000)">
                            <g id="Group-7" transform="translate(0.000000, 48.000000)">
                                <g id="phone-call" transform="translate(0.000000, 3.000000)">
                                    <path d="M8.67161335,2.67582496 C10.0107405,2.93659524 11.0577811,3.98163457 11.3190507,5.3182021 M8.67161335,0 C11.4729026,0.310605908 13.6852737,2.51597079 14,5.31151254 M13.3297627,10.6497833 L13.3297627,12.656652 C13.3312947,13.0333715 13.1736295,13.3932788 12.8955011,13.6479548 C12.6173726,13.9026308 12.2445573,14.0284727 11.8686453,13.9945645 C9.80621378,13.7708928 7.82510306,13.0674879 6.08449732,11.9408689 C4.46508876,10.9137962 3.092113,9.54344469 2.06307343,7.92713143 C0.93035766,6.18196106 0.22544558,4.19502094 0.00544487236,2.12728084 C-0.0284200675,1.7532489 0.0967794571,1.38223245 0.350460106,1.10486221 C0.604140755,0.827491969 0.96294204,0.66930991 1.33921713,0.668890468 L3.34992907,0.668890468 C4.02275622,0.662346846 4.59623592,1.15459672 4.6904037,1.81956097 C4.77527117,2.46180341 4.93266061,3.09240199 5.15956982,3.699328 C5.34370747,4.18825141 5.22593342,4.73942535 4.85796303,5.11082567 L4.00676164,5.96040009 C4.96088164,7.63516269 6.35021569,9.02184121 8.02818553,9.97413752 L8.87938692,9.1245631 C9.25149848,8.75729604 9.80372793,8.6397471 10.2935877,8.82353279 C10.9016759,9.05000829 11.5334821,9.20709691 12.1769545,9.29180216 C12.8509201,9.3867005 13.346646,9.97065399 13.3297627,10.6497833 L13.3297627,10.6497833 Z" id="Shape"></path>
                                </g>
                            </g>
                        </g>
                    </g>
                </g>
            </g>
        </g>
    </g>
</svg>