<?xml version="1.0" encoding="UTF-8"?>
<svg width="23px" height="62px" viewBox="0 0 23 62" version="1.1" xmlns="http://www.w3.org/2000/svg" xmlns:xlink="http://www.w3.org/1999/xlink">
    <title>Group 35 Copy 2</title>
    <g id="Сайт" stroke="none" stroke-width="1" fill="none" fill-rule="evenodd">
        <g id="001-Главная" transform="translate(-520.000000, -576.000000)">
            <g id="Group-32" transform="translate(80.000000, 127.000000)">
                <g id="Group-31" transform="translate(32.000000, 437.000000)">
                    <g id="Group-35-Copy-2" transform="translate(408.000000, 12.000000)">
                        <path d="M11.5000176,0 L14.3750395,2.81854496 L11.5000176,5.6364012 L8.62499561,2.81854496 L11.5000176,0 Z M5.74990339,5.63647007 L8.62527665,8.45467067 L5.74990339,11.2728713 L2.87488144,8.45467067 L5.74990339,5.63647007 Z M17.2500966,5.63647007 L20.1251186,8.45467067 L17.2500966,11.2728713 L14.3747234,8.45467067 L17.2500966,5.63647007 Z" id="Shape" fill="#FBB416"></path>
                        <polygon id="Fill-212" fill="#234BA0" points="11.5000176 5.63647007 14.3750395 8.45467067 11.5000176 11.2728713 8.62499561 8.45467067"></polygon>
                        <polygon id="Path" fill="#ED1846" points="14.374899 8.45453293 17.2502723 11.2730779 11.5000176 16.908997 5.74976287 11.2730779 8.62513613 8.45453293 11.4998068 11.2727335"></polygon>
                        <path d="M17.2500966,16.9090659 L20.1251186,19.7276108 L14.374899,25.3634955 L11.4999431,22.5456836 L5.74990339,28.1819027 L2.87502196,30.9999656 L0,28.1821093 L2.87502196,25.3635644 L5.74990339,22.5454671 L2.87488144,19.7276108 L5.74990339,16.9090659 L11.4999431,22.5454765 L17.2500966,16.9090659 Z M14.3747234,25.3637021 L17.2500966,22.5455015 L23,28.1821093 L20.124978,30.9999656 L17.2499561,28.1821093 L14.3747234,25.3637021 Z M20.124978,31.0000344 L23,33.818235 L17.2500966,39.4544985 L20.1251186,42.2727335 L17.2500966,45.0909341 L14.3747234,42.2727335 L11.4999431,39.4547086 L5.74990339,45.0909341 L2.87488144,42.2727335 L5.74990339,39.4544985 L2.87488144,36.6366423 L0,33.818235 L2.87502196,31.0000344 L11.4999431,39.4545016 L20.124978,31.0000344 Z" id="Shape" fill="#FBB416"></path>
                        <polygon id="Fill-227" fill="#234BA0" points="11.5000176 16.9090659 14.3750395 19.7276108 11.5000176 22.5454671 8.62499561 19.7276108"></polygon>
                        <polygon id="Path" fill="#ED1846" points="11.4999473 28.181765 14.374899 25.3635644 20.1251186 31.0001722 11.5000176 39.4544985 2.87488144 31.0001722 8.62513613 25.3635644"></polygon>
                        <polygon id="Fill-266" fill="#234BA0" points="11.5000176 39.4545329 14.3750395 42.2727335 11.5000176 45.0909341 8.62499561 42.2727335"></polygon>
                        <polygon id="Path" fill="#ED1846" points="5.74976287 50.7272665 11.5000176 45.091003 17.2502723 50.7272665 14.374899 53.5454671 11.499877 50.7272665 8.62513613 53.5454671"></polygon>
                        <path d="M5.74990339,50.7271287 L8.62527665,53.5456737 L5.74990339,56.3635299 L2.87488144,53.5456737 L5.74990339,50.7271287 Z M17.2500966,50.7271287 L20.1251186,53.5456737 L17.2500966,56.3635299 L14.3747234,53.5456737 L17.2500966,50.7271287 Z M11.5000176,56.3635988 L14.3750395,59.1817994 L11.5000176,62 L8.62499561,59.1817994 L11.5000176,56.3635988 Z" id="Shape" fill="#FBB416"></path>
                        <polygon id="Fill-281" fill="#234BA0" points="11.5000176 50.7271287 14.3750395 53.5456737 11.5000176 56.3635299 8.62499561 53.5456737"></polygon>
                    </g>
                </g>
            </g>
        </g>
    </g>
</svg>