<?xml version="1.0" encoding="UTF-8"?>
<svg width="134px" height="32px" viewBox="0 0 134 32" version="1.1" xmlns="http://www.w3.org/2000/svg" xmlns:xlink="http://www.w3.org/1999/xlink">
    <title>Group 3</title>
    <g id="Сайт" stroke="none" stroke-width="1" fill="none" fill-rule="evenodd" opacity="0.900000036">
        <g id="001-Главная" transform="translate(-653.000000, -934.000000)">
            <g id="Group-12" transform="translate(80.000000, 682.000000)">
                <g id="Group-12-Copy-2" transform="translate(440.000000, 0.000000)">
                    <g id="Group-3" transform="translate(133.000000, 252.000000)">
                        <polygon id="Path" fill="#FBB416" points="73.0908324 0 75.1211554 2.00002749 69.030385 7.99991447 67.0000124 6.00013136 64.9696895 7.99991447 62.9393665 6.00013136 64.9696895 3.99985948 66.9999876 5.9998381"></polygon>
                        <polygon id="Path" fill="#FBB416" points="58.8786958 2.00002749 60.9090187 0 64.9697887 3.99995723 62.9394657 5.99998473"></polygon>
                        <polygon id="Path" fill="#FBB416" points="56.8485713 12.0000428 58.8788943 14.0000703 56.8485713 15.9998534 54.8180003 14.0000703"></polygon>
                        <polygon id="Path" fill="#FBB416" points="50.7575528 9.99999084 52.7878758 7.99996334 56.8486705 12.000165 54.8180995 13.9999481"></polygon>
                        <polygon id="Path" fill="#FBB416" points="56.8485713 15.9999022 58.8788943 18.0001741 52.7878758 24.0000611 50.7575528 22.0000336"></polygon>
                        <polygon id="Path" fill="#FBB416" points="66.9999132 9.99989308 69.0304842 12.000165 66.9999132 13.9999481 64.9695902 12.000165"></polygon>
                        <polygon id="Path" fill="#FBB416" points="62.9394657 13.9999725 64.9697887 16 62.9394657 18.0000275 60.9088947 16"></polygon>
                        <polygon id="Path" fill="#FBB416" points="71.0606087 13.9999725 73.0909316 16 71.0606087 18.0000275 69.0302857 16"></polygon>
                        <polygon id="Path" fill="#FBB416" points="66.9999132 18.0000764 69.0304842 20.0001039 66.9999132 21.999887 64.9695902 20.0001039"></polygon>
                        <polygon id="Path" fill="#FBB416" points="81.2120498 12.000165 77.1515031 15.9998534 75.1209321 14.0000703 79.1817268 9.99989308"></polygon>
                        <polygon id="Path" fill="#FBB416" points="81.2119506 7.99996334 83.2425216 9.99999084 81.2119506 12.0000183 79.1816276 9.99999084"></polygon>
                        <polygon id="Path" fill="#FBB416" points="81.2119506 20.0000061 83.2425216 22.0000336 81.2119506 24.0000611 79.1816276 22.0000336"></polygon>
                        <polygon id="Path" fill="#FBB416" points="77.1515031 15.9999022 81.2120498 20.0001039 79.1817268 21.999887 75.1209321 18.0001741"></polygon>
                        <polygon id="Path" fill="#FBB416" points="64.9696895 24.0000855 67.0000124 26.000113 60.9090187 32 58.8786958 30.0002169"></polygon>
                        <polygon id="Path" fill="#FBB416" points="73.0908324 27.999945 75.1211554 30.0002169 73.0908324 32 71.0605095 30.0002169"></polygon>
                        <polygon id="Path" fill="#FBB416" points="67.0000124 26.000113 69.030385 24.0000855 73.0909316 28.0000428 71.0606087 30.0000703"></polygon>
                        <polygon id="Path" fill="#FBB416" points="8.12129181 15.9999022 10.1516148 13.9998748 12.1816896 15.9999022 10.1516148 18.0001741"></polygon>
                        <polygon id="Path" fill="#FBB416" points="26.394124 9.99977089 32.4848943 15.9999022 26.394124 22.0000336 24.3635529 20.0000061 28.4243477 16 24.3635529 12.0000428"></polygon>
                        <polygon id="Path" fill="#FBB416" points="32.4849192 15.9999022 34.5152421 13.9998748 36.545317 15.9999022 34.5152421 18.0001741"></polygon>
                        <polygon id="Path" fill="#FBB416" points="36.5453666 20.0000061 38.5759376 17.9999786 42.6362362 21.9999358 40.6061613 24.0002077"></polygon>
                        <polygon id="Path" fill="#FBB416" points="40.6061613 7.99986559 42.6362362 9.99989308 38.5759376 14.0000703 36.5453666 12.0000428"></polygon>
                        <polygon id="Path" fill="#FBB416" points="42.6362858 13.9999725 44.6668569 11.999945 48.7271555 15.9999022 44.6668569 20.0001039 42.6362858 18.0000764 44.6664103 15.9999756"></polygon>
                        <polygon id="Path" fill="#FBB416" points="89.3334408 11.999945 91.3635157 13.9999725 89.3334408 16 91.3635157 18.0000764 89.3334408 20.0001039 85.2726461 15.9999022"></polygon>
                        <polygon id="Path" fill="#FBB416" points="93.3938883 19.9999084 95.4242112 21.9999358 93.3938883 24.0002077 91.3635653 21.9999358"></polygon>
                        <polygon id="Path" fill="#FBB416" points="95.4243353 17.9999786 97.4544101 20.0000061 95.4243353 22.0000336 93.3937642 20.0000061"></polygon>
                        <polygon id="Path" fill="#FBB416" points="91.3635653 9.99989308 93.3938883 7.99986559 97.4544101 12.0000428 95.4243353 14.0000703"></polygon>
                        <polygon id="Path" fill="#FBB416" points="97.4544598 15.9999022 99.4847827 13.9998748 101.515106 15.9999022 99.4847827 18.0001741"></polygon>
                        <polygon id="Path" fill="#FBB416" points="107.606149 17.9999786 109.636224 20.0000061 107.606149 22.0000336 105.575826 20.0000061"></polygon>
                        <polygon id="Path" fill="#FBB416" points="107.606149 9.99977089 109.636224 12.0000428 105.57595 16 107.606025 18.0000764 105.57595 20.0001039 101.515155 15.9999022"></polygon>
                        <path d="M66.9999132,26.0000153 L69.0304842,28.0000428 L66.9999132,30.0000703 L64.9695902,28.0000428 L66.9999132,26.0000153 Z M42.6363851,13.9998748 L44.666708,15.9999022 L42.6363851,18.0001741 L40.6060621,15.9999022 L42.6363851,13.9998748 Z M91.3636646,13.9998748 L93.3937394,15.9999022 L91.3636646,18.0001741 L89.3333416,15.9999022 L91.3636646,13.9998748 Z M54.8180995,13.9999725 L56.8486705,16 L54.8180995,18.0000275 L52.7877765,16 L54.8180995,13.9999725 Z M79.1817268,13.9999725 L81.2120498,16 L79.1817268,18.0000275 L77.1514039,16 L79.1817268,13.9999725 Z M66.9999132,13.9999725 L69.0304842,16 L66.9999132,18.0000275 L64.9695902,16 L66.9999132,13.9999725 Z M66.9999132,1.99992974 L69.0304842,3.99995723 L66.9999132,5.99998473 L64.9695902,3.99995723 L66.9999132,1.99992974 Z" id="Shape" fill="#ED1846"></path>
                        <polygon id="Path" fill="#234BA0" points="62.9393665 9.99999084 66.9999132 6.0000336 71.0607079 9.99999084 69.030385 12.0000183 67.0000124 9.99984421 64.9696895 12.0000183"></polygon>
                        <polygon id="Path" fill="#234BA0" points="60.9090187 12.0000428 62.9395898 14.0000703 60.909118 16.0000978 62.9395898 18.0001741 60.9090187 19.9999572 56.8484721 16"></polygon>
                        <polygon id="Path" fill="#234BA0" points="71.0605095 14.0000703 73.0908324 12.0000428 77.1516272 16 73.0908324 19.9999572 71.0605095 18.0001741 73.0908324 16.0000978"></polygon>
                        <polygon id="Path" fill="#234BA0" points="69.030385 20.0000061 71.0607079 22.0000336 66.9999132 25.9999908 62.9393665 22.0000336 64.9696895 20.0000061 67.0000124 22.0000336"></polygon>
                        <polygon id="Path" fill="#234BA0" points="16.242534 11.999945 18.2726089 13.9999725 16.242534 16 18.2726089 18.0000764 16.242534 20.0001039 12.1817392 15.9999022"></polygon>
                        <polygon id="Path" fill="#234BA0" points="18.2727577 13.9998748 20.3030807 15.9999022 18.2727577 18.0001741 16.2424348 15.9999022"></polygon>
                        <polygon id="Path" fill="#234BA0" points="24.3636522 11.999945 26.3939751 13.9999725 24.3636522 15.9998045 26.3939751 18.0000764 24.3636522 20.0001039 20.3031055 15.9999022"></polygon>
                        <polygon id="Path" fill="#234BA0" points="28.4243477 24.0002077 26.3940247 21.9999358 30.4545714 17.9999786 32.4848943 20.0000061"></polygon>
                        <polygon id="Path" fill="#234BA0" points="26.3940247 9.99989308 28.4243477 7.99986559 32.4848943 12.0000428 30.4545714 14.0000703"></polygon>
                        <polygon id="Path" fill="#234BA0" points="42.6363851 17.9999786 44.666708 20.0000061 42.6363851 22.0000336 40.6060621 20.0000061"></polygon>
                        <polygon id="Path" fill="#234BA0" points="42.6363851 9.99977089 44.666708 12.0000428 40.6061613 16 42.6362362 18.0000764 40.6061613 20.0001039 36.5453666 15.9999022"></polygon>
                        <polygon id="Path" fill="#234BA0" points="91.3636646 9.99977089 97.4544101 15.9999022 91.3636646 22.0000336 89.3333416 20.0000061 93.3938883 16 89.3333416 12.0000428"></polygon>
                        <polygon id="Path" fill="#234BA0" points="101.515155 20.0000061 103.545478 17.9999786 107.606025 21.9999358 105.57595 24.0002077"></polygon>
                        <polygon id="Path" fill="#234BA0" points="103.545478 14.0000703 101.515155 12.0000428 105.57595 7.99986559 107.606025 9.99989308"></polygon>
                        <polygon id="Path" fill="#234BA0" points="107.60605 13.9999725 109.636373 11.999945 113.696919 15.9999022 109.636373 20.0001039 107.60605 18.0000764 109.636373 16"></polygon>
                        <polygon id="Path" fill="#234BA0" points="121.818062 15.9999022 117.757516 20.0001039 113.696969 15.9999022 117.757516 11.999945"></polygon>
                        <polygon id="Path" fill="#FBB416" points="121.818062 16.0001222 123.848385 14.0000947 125.878708 16.0001222 123.848385 18.0003941"></polygon>
                        <polygon id="Path" fill="#FBB416" points="4.0606459 16 6.09096886 13.9999725 8.12129181 16 6.09096886 18.0002719"></polygon>
                        <polygon id="Path-Copy-16" fill="#FBB416" points="0 16 2.03032295 13.9999725 4.0606459 16 2.03032295 18.0002719"></polygon>
                        <polygon id="Path-Copy" fill="#FBB416" points="125.878708 16.0001222 127.909031 14.0000947 129.939354 16.0001222 127.909031 18.0003941"></polygon>
                        <polygon id="Path-Copy-2" fill="#FBB416" points="129.939354 16.0001222 131.969677 14.0000947 134 16.0001222 131.969677 18.0003941"></polygon>
                    </g>
                </g>
            </g>
        </g>
    </g>
</svg>