<?xml version="1.0" encoding="UTF-8"?>
<svg width="82px" height="81px" viewBox="0 0 82 81" version="1.1" xmlns="http://www.w3.org/2000/svg" xmlns:xlink="http://www.w3.org/1999/xlink">
    <title>Group 46</title>
    <g id="Сайт" stroke="none" stroke-width="1" fill="none" fill-rule="evenodd">
        <g id="001-Главная" transform="translate(-1119.000000, -1249.000000)">
            <g id="Group-12" transform="translate(80.000000, 682.000000)">
                <g id="Group-6" transform="translate(0.000000, 340.000000)">
                    <g id="Group" transform="translate(880.000000, 0.000000)">
                        <g id="Path" transform="translate(159.000000, 227.000000)">
                            <polygon fill="#FBB416" points="56.3746556 0 61.4996869 5.12507045 46.1250939 20.4997808 40.9999374 15.3753366 35.8749061 20.4997808 30.7498748 15.3753366 35.8749061 10.2496399 40.9998748 15.3745851"></polygon>
                            <polygon fill="#FBB416" points="20.4997495 5.12507045 25.6247808 0 35.8751566 10.2498904 30.7501252 15.3749609"></polygon>
                            <polygon fill="#FBB416" points="15.3752192 30.7501096 20.5002505 35.87518 15.3752192 40.9996243 10.2495616 35.87518"></polygon>
                            <polygon fill="#FBB416" points="0 25.6249765 5.12503131 20.4999061 15.3754697 30.7504227 10.2498121 35.8748669"></polygon>
                            <polygon fill="#FBB416" points="15.3752192 40.9997495 20.5002505 46.1254462 5.12503131 61.5001566 1.42387244e-13 56.3750861"></polygon>
                            <polygon fill="#FBB416" points="40.9996869 25.624726 46.1253444 30.7504227 40.9996869 35.8748669 35.8746556 30.7504227"></polygon>
                            <polygon fill="#FBB416" points="30.7501252 35.8749295 35.8751566 41 30.7501252 46.1250705 25.6244677 41"></polygon>
                            <polygon fill="#FBB416" points="51.2498748 35.8749295 56.3749061 41 51.2498748 46.1250705 46.1248434 41"></polygon>
                            <polygon fill="#FBB416" points="40.9996869 46.1251957 46.1253444 51.2502661 40.9996869 56.3747104 35.8746556 51.2502661"></polygon>
                            <polygon fill="#FBB416" points="76.874593 30.7504227 66.6247808 40.9996243 61.4991233 35.87518 71.7495616 25.624726"></polygon>
                            <polygon fill="#FBB416" points="76.8743425 20.4999061 82 25.6249765 76.8743425 30.750047 71.7493112 25.6249765"></polygon>
                            <polygon fill="#FBB416" points="76.8743425 51.2500157 82 56.3750861 76.8743425 61.5001566 71.7493112 56.3750861"></polygon>
                            <polygon fill="#FBB416" points="66.6247808 40.9997495 76.874593 51.2502661 71.7495616 56.3747104 61.4991233 46.1254462"></polygon>
                            <polygon fill="#FBB416" points="35.8749061 61.5002192 40.9999374 66.6252896 25.6247808 82 20.4997495 76.8755558"></polygon>
                            <polygon fill="#FBB416" points="56.3746556 71.7498591 61.4996869 76.8755558 56.3746556 82 51.2496243 76.8755558"></polygon>
                            <polygon fill="#FBB416" points="40.9999374 66.6252896 46.1250939 61.5002192 56.3749061 71.7501096 51.2498748 76.87518"></polygon>
                            <polygon fill="#ED1846" points="40.9996869 66.6250391 46.1253444 71.7501096 40.9996869 76.87518 35.8746556 71.7501096"></polygon>
                            <polygon fill="#ED1846" points="10.2498121 35.8749295 15.3754697 41 10.2498121 46.1250705 5.12478082 41"></polygon>
                            <polygon fill="#ED1846" points="71.7495616 35.8749295 76.874593 41 71.7495616 46.1250705 66.6245303 41"></polygon>
                            <polygon fill="#ED1846" points="40.9996869 35.8749295 46.1253444 41 40.9996869 46.1250705 35.8746556 41"></polygon>
                            <polygon fill="#ED1846" points="40.9996869 5.12481996 46.1253444 10.2498904 40.9996869 15.3749609 35.8746556 10.2498904"></polygon>
                            <polygon fill="#234BA0" points="30.7498748 25.6249765 40.9996869 15.3750861 51.2501252 25.6249765 46.1250939 30.750047 40.9999374 25.6246008 35.8749061 30.750047"></polygon>
                            <polygon fill="#234BA0" points="25.6247808 30.7501096 30.7504384 35.87518 25.6250313 41.0002505 30.7504384 46.1254462 25.6247808 51.2498904 15.3749687 41"></polygon>
                            <polygon fill="#234BA0" points="51.2496243 35.87518 56.3746556 30.7501096 66.6250939 41 56.3746556 51.2498904 51.2496243 46.1254462 56.3746556 41.0002505"></polygon>
                            <polygon fill="#234BA0" points="46.1250939 51.2500157 51.2501252 56.3750861 40.9996869 66.6249765 30.7498748 56.3750861 35.8749061 51.2500157 40.9999374 56.3750861"></polygon>
                        </g>
                    </g>
                </g>
            </g>
        </g>
    </g>
</svg>