<?xml version="1.0" encoding="UTF-8"?>
<svg width="96px" height="36px" viewBox="0 0 96 36" version="1.1" xmlns="http://www.w3.org/2000/svg" xmlns:xlink="http://www.w3.org/1999/xlink">
    <title>Group 35 Copy 2</title>
    <g id="Сайт" stroke="none" stroke-width="1" fill="none" fill-rule="evenodd">
        <g id="mob-004-Проект" transform="translate(-140.000000, -1188.000000)">
            <g id="Group-4-Copy" transform="translate(16.000000, 1156.000000)">
                <g id="Group-35-Copy-2" transform="translate(172.000000, 50.000000) rotate(90.000000) translate(-172.000000, -50.000000) translate(154.000000, 2.000000)">
                    <path d="M18.0000275,0 L22.5000619,4.36419864 L18.0000275,8.72733089 L13.4999931,4.36419864 L18.0000275,0 Z M8.99984879,8.72743753 L13.500433,13.091103 L8.99984879,17.4547684 L4.49981442,13.091103 L8.99984879,8.72743753 Z M27.0001512,8.72743753 L31.5001856,13.091103 L27.0001512,17.4547684 L22.499567,13.091103 L27.0001512,8.72743753 Z" id="Shape" fill="#FBB416"></path>
                    <polygon id="Fill-212" fill="#234BA0" points="18.0000275 8.72743753 22.5000619 13.091103 18.0000275 17.4547684 13.4999931 13.091103"></polygon>
                    <polygon id="Path" fill="#ED1846" points="22.4998419 13.0908897 27.0004261 17.4550883 18.0000275 26.1816728 8.99962885 17.4550883 13.5002131 13.0908897 17.9996976 17.4545551"></polygon>
                    <path d="M27.0001512,26.1817794 L31.5001856,30.545978 L22.4998419,39.2725091 L17.999911,34.9094455 L8.99984879,43.6364945 L4.50003437,47.9999467 L0,43.6368144 L4.50003437,39.2726158 L8.99984879,34.9091103 L4.49981442,30.545978 L8.99984879,26.1817794 L17.999911,34.909125 L27.0001512,26.1817794 Z M22.499567,39.2728291 L27.0001512,34.9091636 L36,43.6368144 L31.4999656,47.9999467 L26.9999313,43.6368144 L22.499567,39.2728291 Z M31.4999656,48.0000533 L36,52.3637188 L27.0001512,61.0908364 L31.5001856,65.4545551 L27.0001512,69.8182206 L22.499567,65.4545551 L17.999911,61.0911617 L8.99984879,69.8182206 L4.49981442,65.4545551 L8.99984879,61.0908364 L4.49981442,56.7277041 L0,52.3637188 L4.50003437,48.0000533 L17.999911,61.0908412 L31.4999656,48.0000533 Z" id="Shape" fill="#FBB416"></path>
                    <polygon id="Fill-227" fill="#234BA0" points="18.0000275 26.1817794 22.5000619 30.545978 18.0000275 34.9091103 13.4999931 30.545978"></polygon>
                    <polygon id="Path" fill="#ED1846" points="13.500433 48.000136 8.99962885 43.6364945 18 34.9091103 31.5001856 48.000136 18 61.0911617 9.00012372 52.3826635"></polygon>
                    <polygon id="Fill-266" fill="#234BA0" points="18.0000275 61.0908897 22.5000619 65.4545551 18.0000275 69.8182206 13.4999931 65.4545551"></polygon>
                    <polygon id="Path" fill="#ED1846" points="8.99962885 78.5454449 18.0000275 69.8183272 27.0004261 78.5454449 22.4998419 82.9091103 17.9998075 78.5454449 13.5002131 82.9091103"></polygon>
                    <path d="M8.99984879,78.5452316 L13.500433,82.9094302 L8.99984879,87.2725625 L4.49981442,82.9094302 L8.99984879,78.5452316 Z M27.0001512,78.5452316 L31.5001856,82.9094302 L27.0001512,87.2725625 L22.499567,82.9094302 L27.0001512,78.5452316 Z M18.0000275,87.2726691 L22.5000619,91.6363346 L18.0000275,96 L13.4999931,91.6363346 L18.0000275,87.2726691 Z" id="Shape" fill="#FBB416"></path>
                    <polygon id="Fill-281" fill="#234BA0" points="18.0000275 78.5452316 22.5000619 82.9094302 18.0000275 87.2725625 13.4999931 82.9094302"></polygon>
                </g>
            </g>
        </g>
    </g>
</svg>