<?xml version="1.0" encoding="UTF-8"?>
<svg width="64.0006152px" height="64px" viewBox="0 0 64.0006152 64" version="1.1" xmlns="http://www.w3.org/2000/svg" xmlns:xlink="http://www.w3.org/1999/xlink">
    <title>Group 101</title>
    <g id="Сайт" stroke="none" stroke-width="1" fill="none" fill-rule="evenodd">
        <g id="001-Главная" transform="translate(-678.999692, -3342.000000)" fill-rule="nonzero">
            <g id="Group-8" transform="translate(-360.000000, 1478.000000)">
                <g id="Map-Section" transform="translate(360.000000, 1564.000000)">
                    <g id="Group-101" transform="translate(678.999692, 300.000000)">
                        <polygon id="Rectangle" fill="#234BA0" transform="translate(4.002585, 31.979909) rotate(-45.000000) translate(-4.002585, -31.979909) " points="1.17428639 29.1516104 6.8328401 29.1496541 6.83088373 34.8082078 1.17233002 34.8101641"></polygon>
                        <polygon id="Path" fill="#234BA0" points="8.00391189 19.9744594 4.00417773 23.9769602 12.0036461 31.9819619 4.00417773 39.9869635 8.00391189 43.9894644 20.0054881 31.9819619"></polygon>
                        <polygon id="Path" fill="#234BA0" points="52.0009877 31.9819619 59.9980823 23.9769602 55.9983481 19.9744594 44.0015194 31.9819619 55.9983481 43.9894644 59.9980823 39.9869635"></polygon>
                        <polygon id="Rectangle" fill="#234BA0" transform="translate(59.998030, 31.983118) rotate(-45.000000) translate(-59.998030, -31.983118) " points="57.1697314 29.1548196 62.8282852 29.1528633 62.8263288 34.811417 57.1677751 34.8133733"></polygon>
                        <polygon id="Path" fill="#ED1846" points="35.8809908 27.979461 31.9216101 31.9415805 27.9622293 27.979461 23.9624952 31.9819619 31.9216101 39.9869635 39.880725 31.9819619"></polygon>
                        <polygon id="Rectangle" fill="#ED1846" transform="translate(32.087310, 4.002585) rotate(-45.000000) translate(-32.087310, -4.002585) " points="29.2590113 1.17428639 34.917565 1.17233002 34.9156086 6.83088373 29.2570549 6.8328401"></polygon>
                        <polygon id="Path" fill="#ED1846" points="32.0853974 20.0124653 44.0845999 8.00496281 40.0848657 4.00246197 32.0853974 12.0074636 24.0859291 4.00246197 20.0861949 8.00496281"></polygon>
                        <polygon id="Rectangle" fill="#ED1846" transform="translate(31.999891, 59.997415) rotate(-45.000000) translate(-31.999891, -59.997415) " points="29.1715923 57.1691163 34.830146 57.1671599 34.8281896 62.8257136 29.1696359 62.82767"></polygon>
                        <polygon id="Path" fill="#ED1846" points="32.0023169 43.9894644 20.0054881 55.9969669 24.0052223 59.9994677 32.0046906 51.994466 40.0041589 59.9994677 44.0038931 55.9969669"></polygon>
                        <polygon id="Rectangle" fill="#FBB416" transform="translate(14.002462, 41.988189) rotate(-45.000000) translate(-14.002462, -41.988189) " points="8.3448866 39.1608682 19.661994 39.1569555 19.6600376 44.8155092 8.34293023 44.8194219"></polygon>
                        <polygon id="Rectangle" fill="#FBB416" transform="translate(14.001573, 21.973115) rotate(-45.000000) translate(-14.001573, -21.973115) " points="11.1742524 16.3155395 16.8328061 16.3135831 16.8288933 27.6306905 11.1703396 27.6326469"></polygon>
                        <polygon id="Rectangle" fill="#FBB416" transform="translate(50.000721, 41.988233) rotate(-45.000000) translate(-50.000721, -41.988233) " points="47.1734003 36.3306572 52.831954 36.3287009 52.8280413 47.6458083 47.1694876 47.6477647"></polygon>
                        <polygon id="Rectangle" fill="#FBB416" transform="translate(49.999832, 21.976518) rotate(-45.000000) translate(-49.999832, -21.976518) " points="44.342256 19.1491979 55.6593634 19.1452851 55.6574071 24.8038388 44.3402996 24.8077516"></polygon>
                        <polygon id="Rectangle" fill="#FBB416" transform="translate(22.085948, 14.009379) rotate(-45.000000) translate(-22.085948, -14.009379) " points="19.2586279 8.35180365 24.9171816 8.34984727 24.9132689 19.6669547 19.2547152 19.6689111"></polygon>
                        <polygon id="Rectangle" fill="#FBB416" transform="translate(42.085509, 14.009185) rotate(-45.000000) translate(-42.085509, -14.009185) " points="36.427933 11.1818645 47.7450404 11.1779518 47.743084 16.8365055 36.4259766 16.8404182"></polygon>
                        <polygon id="Rectangle" fill="#FBB416" transform="translate(22.001692, 49.993190) rotate(-45.000000) translate(-22.001692, -49.993190) " points="16.3441169 47.1658699 27.6612243 47.1619571 27.6592679 52.8205108 16.3421605 52.8244236"></polygon>
                        <polygon id="Rectangle" fill="#FBB416" transform="translate(42.001252, 49.990621) rotate(-45.000000) translate(-42.001252, -49.990621) " points="39.173932 44.3330453 44.8324857 44.3310889 44.828573 55.6481964 39.1700193 55.6501527"></polygon>
                    </g>
                </g>
            </g>
        </g>
    </g>
</svg>