<?xml version="1.0" encoding="UTF-8"?>
<svg xmlns="http://www.w3.org/2000/svg" xmlns:xlink="http://www.w3.org/1999/xlink" version="1.1">
    <defs>
        <!-- acc -->
        <symbol id="acc" viewBox="0 0 24 24">
            <path d="M12 2C6.48 2 2 6.48 2 12s4.48 10 10 10 10-4.48 10-10S17.52 2 12 2zm0 3c1.66 0 3 1.34 3 3s-1.34 3-3 3-3-1.34-3-3 1.34-3 3-3zm0 14.2c-2.5 0-4.71-1.28-6-3.22.03-1.99 4-3.08 6-3.08 1.99 0 5.97 1.09 6 3.08-1.29 1.94-3.5 3.22-6 3.22z"/>
        </symbol>

        <symbol id="telegram" viewBox="0 0 16 14">
            <path d="m6.268 9.239 6.823-6.423c.3-.277-.066-.412-.463-.161l-8.42 5.542L.57 7.013c-.786-.251-.791-.814.176-1.22L14.92.094c.647-.307 1.272.162 1.025 1.195L13.53 13.154c-.168.843-.657 1.045-1.333.655l-5.93-4.57Z" fill="currentColor" />
        </symbol>


        <!-- burger -->
        <symbol id="burger" viewBox="0 0 24 24">
            <path d="M3 18h18v-2H3v2zm0-5h18v-2H3v2zm0-7v2h18V6H3z"/>
        </symbol>

        <!-- calendar -->
        <symbol id="calendar" viewBox="0 0 24 24">
            <path d="M19 4h-1V2h-2v2H8V2H6v2H5c-1.11 0-1.99.9-1.99 2L3 20c0 1.1.89 2 2 2h14c1.1 0 2-.9 2-2V6c0-1.1-.9-2-2-2zm0 16H5V10h14v10zm0-12H5V6h14v2zM9 14H7v-2h2v2zm4 0h-2v-2h2v2zm4 0h-2v-2h2v2zm-8 4H7v-2h2v2zm4 0h-2v-2h2v2zm4 0h-2v-2h2v2z"/>
        </symbol>

        <!-- check -->
        <symbol id="check" viewBox="0 0 24 24">
            <path d="M9 16.17L4.83 12l-1.42 1.41L9 19 21 7l-1.41-1.41L9 16.17z"/>
        </symbol>

        <!-- close -->
        <symbol id="close" viewBox="0 0 24 24">
            <path d="M19 6.41L17.59 5 12 10.59 6.41 5 5 6.41 10.59 12 5 17.59 6.41 19 12 13.41 17.59 19 19 17.59 13.41 12 19 6.41z"/>
        </symbol>

        <!-- dots -->
        <symbol id="dots" viewBox="0 0 24 24">
            <path d="M12 8c1.1 0 2-.9 2-2s-.9-2-2-2-2 .9-2 2 .9 2 2 2zm0 2c-1.1 0-2 .9-2 2s.9 2 2 2 2-.9 2-2-.9-2-2-2zm0 6c-1.1 0-2 .9-2 2s.9 2 2 2 2-.9 2-2-.9-2-2-2z"/>
        </symbol>

        <!-- left -->
        <symbol id="left" viewBox="0 0 24 24">
            <path d="M15.41 7.41L14 6l-6 6 6 6 1.41-1.41L10.83 12z"/>
        </symbol>

        <!-- loc -->
        <symbol id="loc" viewBox="0 0 24 24">
            <path d="M12 2C8.13 2 5 5.13 5 9c0 5.25 7 13 7 13s7-7.75 7-13c0-3.87-3.13-7-7-7zm0 9.5c-1.38 0-2.5-1.12-2.5-2.5s1.12-2.5 2.5-2.5 2.5 1.12 2.5 2.5-1.12 2.5-2.5 2.5z"/>
        </symbol>

        <!-- marker -->
        <symbol id="marker" viewBox="0 0 24 24">
            <path d="M12 2C8.13 2 5 5.13 5 9c0 5.25 7 13 7 13s7-7.75 7-13c0-3.87-3.13-7-7-7zm0 9.5c-1.38 0-2.5-1.12-2.5-2.5s1.12-2.5 2.5-2.5 2.5 1.12 2.5 2.5-1.12 2.5-2.5 2.5z"/>
        </symbol>

        <!-- more -->
        <symbol id="more" viewBox="0 0 24 24">
            <path d="M12 8c1.1 0 2-.9 2-2s-.9-2-2-2-2 .9-2 2 .9 2 2 2zm0 2c-1.1 0-2 .9-2 2s.9 2 2 2 2-.9 2-2-.9-2-2-2zm0 6c-1.1 0-2 .9-2 2s.9 2 2 2 2-.9 2-2-.9-2-2-2z"/>
        </symbol>

        <!-- next -->
        <symbol id="next" viewBox="0 0 24 24">
            <path d="M8.59 16.59L10 18l6-6-6-6L8.59 7.41 13.17 12z"/>
        </symbol>

        <!-- plus-circle -->
        <symbol id="plus-circle" viewBox="0 0 24 24">
            <path d="M12 2C6.48 2 2 6.48 2 12s4.48 10 10 10 10-4.48 10-10S17.52 2 12 2zm5 11h-4v4h-2v-4H7v-2h4V7h2v4h4v2z"/>
        </symbol>

        <!-- prev -->
        <symbol id="prev" viewBox="0 0 24 24">
            <path d="M15.41 7.41L14 6l-6 6 6 6 1.41-1.41L10.83 12z"/>
        </symbol>

        <!-- right -->
        <symbol id="right" viewBox="0 0 24 24">
            <path d="M8.59 16.59L10 18l6-6-6-6L8.59 7.41 13.17 12z"/>
        </symbol>

        <!-- search -->
        <symbol id="search" viewBox="0 0 24 24">
            <path d="M15.5 14h-.79l-.28-.27C15.41 12.59 16 11.11 16 9.5 16 5.91 13.09 3 9.5 3S3 5.91 3 9.5 5.91 16 9.5 16c1.61 0 3.09-.59 4.23-1.57l.27.28v.79l5 4.99L20.49 19l-4.99-5zm-6 0C7.01 14 5 11.99 5 9.5S7.01 5 9.5 5 14 7.01 14 9.5 11.99 14 9.5 14z"/>
        </symbol>

        <!-- search-w -->
        <symbol id="search-w" viewBox="0 0 24 24">
            <path d="M15.5 14h-.79l-.28-.27C15.41 12.59 16 11.11 16 9.5 16 5.91 13.09 3 9.5 3S3 5.91 3 9.5 5.91 16 9.5 16c1.61 0 3.09-.59 4.23-1.57l.27.28v.79l5 4.99L20.49 19l-4.99-5zm-6 0C7.01 14 5 11.99 5 9.5S7.01 5 9.5 5 14 7.01 14 9.5 11.99 14 9.5 14z" fill="#fff"/>
        </symbol>

        <!-- v -->
        <symbol id="v" viewBox="0 0 24 24">
            <path d="M9 16.17L4.83 12l-1.42 1.41L9 19 21 7l-1.41-1.41L9 16.17z"/>
        </symbol>

        <!-- vk -->
        <symbol id="vk" viewBox="0 0 24 24">
            <path d="M15.07 2H8.93C3.33 2 2 3.33 2 8.93v6.14C2 20.67 3.33 22 8.93 22h6.14c5.6 0 6.93-1.33 6.93-6.93V8.93C22 3.33 20.67 2 15.07 2zm3.08 14.27h-1.46c-.55 0-.72-.44-1.71-1.42-1 1.11-1.25 1.25-1.45 1.25-.37 0-.47-.1-.47-.47v-1.15c0-.37.1-.47.47-.47h1.47c.37 0 .47.1.47.47v2.19zm0-3.32h-1.46c-.55 0-.72-.44-1.71-1.42-1 1.11-1.25 1.25-1.45 1.25-.37 0-.47-.1-.47-.47V9.89c0-.37.1-.47.47-.47h1.47c.37 0 .47.1.47.47v2.19z"/>
        </symbol>
    </defs>
</svg> 