<svg width="14" height="14" xmlns="http://www.w3.org/2000/svg">
    <g fill="none" fill-rule="evenodd">
        <path d="M13.116 5.426c-.235-.246-.48-.5-.571-.723-.085-.204-.09-.543-.095-.871-.01-.61-.02-1.301-.5-1.782-.48-.48-1.172-.49-1.782-.5-.328-.005-.667-.01-.871-.095-.223-.092-.477-.336-.723-.571C8.142.469 7.653 0 7 0S5.858.47 5.426.884c-.246.235-.5.48-.723.571-.204.085-.543.09-.871.095-.61.01-1.301.02-1.782.5-.48.48-.49 1.172-.5 1.782-.005.328-.01.667-.095.871-.092.223-.336.477-.571.723C.469 5.858 0 6.347 0 7s.47 1.142.884 1.574c.235.246.48.5.571.723.085.204.09.543.095.871.01.61.02 1.301.5 1.782.48.48 1.172.49 1.782.5.328.005.667.01.871.095.223.092.477.336.723.571.432.415.921.884 1.574.884s1.142-.47 1.574-.884c.246-.235.5-.48.723-.571.204-.085.543-.09.871-.095.61-.01 1.301-.02 1.782-.5.48-.48.49-1.172.5-1.782.005-.328.01-.667.095-.871.092-.223.336-.477.571-.723C13.531 8.142 14 7.653 14 7s-.47-1.142-.884-1.574Z" fill="#ED1846" fill-rule="nonzero"/>
        <path stroke="#FFF" stroke-width="1.497" stroke-linecap="round" stroke-linejoin="round" d="m4.224 7.25 1.843 1.722L9.8 5.45"/>
    </g>
</svg>
