<?xml version="1.0" encoding="UTF-8"?>
<svg width="19px" height="11px" viewBox="0 0 19 11" version="1.1" xmlns="http://www.w3.org/2000/svg" xmlns:xlink="http://www.w3.org/1999/xlink">
    <title>Shape</title>
    <g id="Сайт" stroke="none" stroke-width="1" fill="none" fill-rule="evenodd">
        <g id="001-Главная" transform="translate(-492.000000, -5074.000000)" fill="#FFFFFF" fill-rule="nonzero">
            <g id="Group-8" transform="translate(-360.000000, 1478.000000)">
                <g id="Footer" transform="translate(360.000000, 3249.000000)">
                    <g id="Group-116" transform="translate(480.000000, 336.000000)">
                        <g id="Group-107" transform="translate(12.000000, 8.000000)">
                            <path d="M10.4317885,13.9540235 C10.4317885,13.9540235 10.7746968,13.9153584 10.9503328,13.7239188 C11.1111,13.5485111 11.1055243,13.2174998 11.1055243,13.2174998 C11.1055243,13.2174998 11.0841506,11.6718374 11.7913408,11.4436188 C12.4883088,11.2191724 13.3832158,12.9383564 14.3329509,13.5994359 C15.0503634,14.0992535 15.5949277,13.9898595 15.5949277,13.9898595 L18.1328206,13.9540235 C18.1328206,13.9540235 19.4598478,13.8710349 18.8307179,12.8119874 C18.7786777,12.7252266 18.4636481,12.0283111 16.9442578,10.5967581 C15.3523828,9.09824826 15.5661197,9.3406127 17.4823171,6.74816247 C18.6495063,5.16949324 19.1160102,4.20569405 18.9701116,3.79358028 C18.8316472,3.39938448 17.9729826,3.50406329 17.9729826,3.50406329 L15.116343,3.52198126 C15.116343,3.52198126 14.9044647,3.49274667 14.7474146,3.58799488 C14.5940816,3.68135708 14.4946475,3.89920213 14.4946475,3.89920213 C14.4946475,3.89920213 14.0430122,5.12045454 13.4399025,6.15969796 C12.1677036,8.35135103 11.6593815,8.46734646 11.4512204,8.33154691 C10.9670599,8.01373838 11.0878678,7.05654054 11.0878678,6.37659997 C11.0878678,4.25190357 11.4056852,3.36637766 10.4698894,3.13721599 C10.1595063,3.06082878 9.93090083,3.01084704 9.13635728,3.00235955 C8.11692535,2.99198597 7.25454355,3.00613178 6.76573667,3.24849615 C6.44048493,3.40975805 6.18957645,3.77000394 6.34290942,3.79075109 C6.53155543,3.81621352 6.95902913,3.90768956 7.18577608,4.22078283 C7.47850267,4.62535221 7.46828043,5.53256831 7.46828043,5.53256831 C7.46828043,5.53256831 7.63648209,8.03354249 7.0751905,8.34380664 C6.69046413,8.55693636 6.16262697,8.12218935 5.02796306,6.13329249 C4.44715634,5.11479623 4.00853113,3.98879204 4.00853113,3.98879204 C4.00853113,3.98879204 3.92396569,3.77849143 3.77249128,3.66532519 C3.58942099,3.52858261 3.33386607,3.48614526 3.33386607,3.48614526 L0.619407914,3.50406329 C0.619407914,3.50406329 0.211449296,3.51537991 0.0618334991,3.69550288 C-0.0710551132,3.85487864 0.0516112616,4.18588994 0.0516112616,4.18588994 C0.0516112616,4.18588994 2.17689913,9.23216166 4.58376206,11.7755732 C6.79082753,14.106798 9.29619526,13.9540235 9.29619526,13.9540235 L10.4317885,13.9540235 Z" id="Shape"></path>
                        </g>
                    </g>
                </g>
            </g>
        </g>
    </g>
</svg>